<svg width="20" height="20" viewBox="0 0 20 20" fill="none" xmlns="http://www.w3.org/2000/svg">
<path d="M5.42188 14.4258C5.73936 14.2903 6.10673 14.4374 6.24219 14.7549V14.7559L6.24316 14.7568L6.24414 14.7607L6.24707 14.7686L6.25684 14.791C6.26385 14.809 6.27293 14.833 6.2832 14.8623C6.30387 14.9213 6.32972 15.003 6.35547 15.1025C6.4065 15.2999 6.45897 15.5784 6.45898 15.8984C6.45898 16.5534 6.23458 17.3969 5.36035 18.0117C5.07799 18.2103 4.6878 18.1417 4.48926 17.8594C4.2909 17.5771 4.35859 17.1878 4.64062 16.9893C5.09957 16.6666 5.20898 16.2591 5.20898 15.8984C5.20897 15.7108 5.17779 15.5399 5.14551 15.415C5.12971 15.354 5.11407 15.3065 5.10352 15.2764C5.09825 15.2614 5.09387 15.2504 5.0918 15.2451L5.09082 15.2422C4.95808 14.9256 5.10568 14.5607 5.42188 14.4258ZM10 14.375C10.3452 14.375 10.625 14.6548 10.625 15V17.5C10.625 17.8452 10.3452 18.125 10 18.125C9.65497 18.1248 9.375 17.8451 9.375 17.5V15C9.375 14.6549 9.65497 14.3752 10 14.375ZM13.7588 14.7549C13.8943 14.4374 14.2616 14.2903 14.5791 14.4258C14.8951 14.5608 15.0429 14.9257 14.9102 15.2422L14.9082 15.2451C14.9061 15.2504 14.9027 15.2614 14.8975 15.2764C14.8869 15.3065 14.8713 15.354 14.8555 15.415C14.8232 15.5399 14.792 15.7108 14.792 15.8984C14.792 16.259 14.9005 16.6666 15.3594 16.9893C15.6417 17.1877 15.71 17.577 15.5117 17.8594C15.3132 18.1417 14.923 18.2102 14.6406 18.0117C13.7662 17.3969 13.542 16.5534 13.542 15.8984C13.542 15.5784 13.5945 15.2999 13.6455 15.1025C13.6713 15.0029 13.6971 14.9213 13.7178 14.8623C13.7281 14.833 13.7371 14.809 13.7441 14.791L13.7529 14.7686L13.7568 14.7607L13.7578 14.7568V14.7559L13.7588 14.7549ZM13.3662 1.875C14.3131 1.87499 15.0693 1.87478 15.6758 1.93359C16.2987 1.99402 16.8298 2.12143 17.3018 2.41797C17.7521 2.70101 18.133 3.08185 18.416 3.53223C18.7126 4.00419 18.839 4.53521 18.8994 5.1582C18.9582 5.76462 18.959 6.52092 18.959 7.46777V7.53223C18.959 8.47908 18.9582 9.23538 18.8994 9.8418C18.839 10.4648 18.7126 10.9958 18.416 11.4678C18.133 11.9181 17.7521 12.299 17.3018 12.582C16.8298 12.8786 16.2987 13.006 15.6758 13.0664C15.0693 13.1252 14.3131 13.125 13.3662 13.125H6.63477C5.68793 13.125 4.93161 13.1252 4.3252 13.0664C3.7022 13.006 3.17119 12.8786 2.69922 12.582C2.24883 12.299 1.86799 11.9182 1.58496 11.4678C1.2884 10.9958 1.16101 10.4648 1.10059 9.8418C1.04179 9.23539 1.04198 8.47906 1.04199 7.53223V7.46777C1.04198 6.52094 1.04179 5.76461 1.10059 5.1582C1.16101 4.53521 1.2884 4.00419 1.58496 3.53223C1.86799 3.08184 2.24883 2.701 2.69922 2.41797C3.17119 2.12141 3.7022 1.99401 4.3252 1.93359C4.93161 1.8748 5.68793 1.87499 6.63477 1.875H13.3662ZM6.66699 3.125C5.6801 3.125 4.98435 3.12546 4.44531 3.17773C3.9161 3.22909 3.60372 3.3261 3.36426 3.47656C3.07294 3.65966 2.82665 3.90595 2.64355 4.19727C2.49309 4.43673 2.39608 4.74911 2.34473 5.27832C2.29245 5.81735 2.29199 6.5131 2.29199 7.5C2.29199 8.4869 2.29245 9.18265 2.34473 9.72168C2.39608 10.2509 2.49309 10.5633 2.64355 10.8027C2.82665 11.094 3.07294 11.3403 3.36426 11.5234C3.60372 11.6739 3.9161 11.7709 4.44531 11.8223C4.98435 11.8745 5.6801 11.875 6.66699 11.875H13.334C14.3205 11.875 15.0158 11.8745 15.5547 11.8223C16.0841 11.7709 16.3972 11.6739 16.6367 11.5234C16.928 11.3403 17.1744 11.094 17.3574 10.8027C17.5079 10.5633 17.6039 10.2508 17.6553 9.72168C17.7076 9.18265 17.709 8.4869 17.709 7.5C17.709 6.5131 17.7075 5.81735 17.6553 5.27832C17.6039 4.74915 17.5079 4.43672 17.3574 4.19727C17.1744 3.90597 16.928 3.65968 16.6367 3.47656C16.3972 3.32606 16.0841 3.22908 15.5547 3.17773C15.0158 3.12549 14.3205 3.125 13.334 3.125H6.66699ZM14.167 9.375C14.5122 9.375 14.792 9.65482 14.792 10C14.792 10.3452 14.5122 10.625 14.167 10.625H5.83398C5.48881 10.625 5.20898 10.3452 5.20898 10C5.20898 9.65482 5.48881 9.375 5.83398 9.375H14.167ZM15.0078 5C15.4679 5 15.8406 5.37292 15.8408 5.83301C15.8408 6.29324 15.468 6.66699 15.0078 6.66699H15C14.5399 6.66682 14.167 6.29314 14.167 5.83301C14.1672 5.37303 14.54 5.00018 15 5H15.0078Z" fill="#161616"/>
</svg>
