<svg width="16" height="16" viewBox="0 0 16 16" fill="none" xmlns="http://www.w3.org/2000/svg">
<path d="M11.5985 10.2965C11.5172 10.1889 11.2746 9.86773 11.1302 9.68259C10.8408 9.31178 10.4454 8.81906 10.0188 8.32779C9.59013 7.83405 9.13979 7.35319 8.73971 6.99969C8.53911 6.82244 8.36288 6.68775 8.21746 6.60008C8.08069 6.51763 7.9999 6.50049 7.9999 6.50049C7.9999 6.50049 7.92149 6.51764 7.78473 6.60008C7.63931 6.68775 7.46308 6.82243 7.26248 6.99969C6.8624 7.35318 6.41206 7.83405 5.98337 8.3278C5.55683 8.81907 5.16142 9.3118 4.87204 9.68261C4.72756 9.86776 4.48529 10.1885 4.40403 10.296C4.24027 10.5184 3.92694 10.5664 3.70459 10.4026C3.48224 10.2388 3.43474 9.92584 3.5985 9.7035L3.59967 9.70194C3.6848 9.58923 3.93621 9.25637 4.08369 9.06739C4.37961 8.6882 4.78656 8.18093 5.22827 7.67219C5.66781 7.16594 6.15159 6.64681 6.60034 6.25031C6.82414 6.05256 7.051 5.87475 7.26844 5.74366C7.47216 5.62085 7.73009 5.5 8.0011 5.5C8.2721 5.5 8.53003 5.62086 8.73375 5.74367C8.95119 5.87475 9.17805 6.05256 9.40185 6.25031C9.8506 6.64681 10.3344 7.16594 10.7739 7.67218C11.2156 8.18091 11.6226 8.68818 11.9185 9.06736C12.066 9.25641 12.3173 9.58914 12.4024 9.70172L12.4035 9.70314C12.5672 9.92549 12.5199 10.2388 12.2976 10.4026C12.0753 10.5663 11.7623 10.5188 11.5985 10.2965Z" fill="#161616"/>
</svg>
