<svg width="33" height="30" viewBox="0 0 33 30" fill="none" xmlns="http://www.w3.org/2000/svg">
<path opacity="0.4" d="M4.375 0C5.18042 0 5.83301 0.653569 5.83301 1.45898V8.94434C6.54338 8.81771 7.27424 8.75002 8.02051 8.75C11.0812 8.75 13.8806 9.8614 16.042 11.6982V11.0645C16.042 10.6388 15.9797 10.2153 15.8574 9.80762C15.8503 9.78371 15.8438 9.75959 15.8379 9.73535L13.8965 1.80566C13.705 1.02335 14.1835 0.233525 14.9658 0.0419922C15.7481 -0.149439 16.537 0.330046 16.7285 1.1123L18.6396 8.91699L22.5771 9.71191C24.2038 10.0403 25.563 10.3155 26.6338 10.6826C27.772 11.0729 28.7396 11.6164 29.4785 12.5752C30.2096 13.5239 30.514 14.6181 30.6553 15.8555C30.7014 16.2592 30.7309 16.697 30.751 17.1699C30.7708 17.6374 30.7812 17.8716 30.6465 17.9629C30.5117 18.054 30.2796 17.9494 29.8164 17.7412C28.9506 17.352 27.9903 17.1358 26.9795 17.1357C23.1538 17.1357 20.0518 20.2368 20.0518 24.0625C20.0518 24.0866 20.0525 24.1107 20.0527 24.1348C20.0561 24.4639 20.0573 24.6286 19.959 24.7168C19.8606 24.8049 19.7185 24.788 19.4346 24.7539C19.4308 24.7535 19.4266 24.7534 19.4229 24.7529C18.3079 24.6148 17.5698 23.8063 17.4863 22.6924C17.4524 22.2383 17.5 21.6759 17.5 21.1455C17.4999 19.5246 17.094 18.0029 16.3799 16.6719C14.7798 13.6896 11.6352 11.667 8.02051 11.667C5.88503 11.6671 3.91802 12.3717 2.33398 13.5615C1.69002 14.0449 0.775609 13.9144 0.291992 13.2705C-0.191341 12.6265 -0.0608316 11.7131 0.583008 11.2295C1.30381 10.6881 2.08618 10.2245 2.91699 9.84863V1.45898C2.91699 0.653569 3.56958 1.28823e-07 4.375 0Z" fill="#007A8C"/>
<path d="M26.9788 18.958C29.7977 18.958 32.0833 21.2435 32.0833 24.0625C32.0833 26.8815 29.7977 29.167 26.9788 29.167C24.16 29.1668 21.8752 26.8813 21.8752 24.0625C21.8752 21.2437 24.16 18.9582 26.9788 18.958ZM8.02075 13.4893C12.2491 13.4893 15.6768 16.9172 15.677 21.1455C15.677 25.3739 12.2492 28.8018 8.02075 28.8018C3.79232 28.8018 0.364502 25.3739 0.364502 21.1455C0.364678 16.9172 3.79243 13.4893 8.02075 13.4893ZM30.0383 13.4893C30.3566 14.1583 30.5285 14.8881 30.6301 15.6768H27.8733C27.2693 15.6767 26.7795 15.187 26.7795 14.583C26.7797 13.9792 27.2694 13.4893 27.8733 13.4893H30.0383ZM27.7083 4.375C28.5134 4.37518 29.1661 5.02785 29.1663 5.83301C29.1663 6.58786 28.5927 7.20913 27.8577 7.28418L27.5588 7.2998C26.8237 7.37475 26.2493 7.99515 26.2493 8.75V10.5576C25.425 10.3057 24.4499 10.0944 23.3333 9.86621V8.75C23.3333 6.33386 25.2922 4.37518 27.7083 4.375ZM17.5002 0C18.3054 0.000175186 18.9581 0.65285 18.9583 1.45801C18.9583 2.26332 18.3055 2.91682 17.5002 2.91699H10.2083V8.94336C9.49827 8.81692 8.76716 8.75001 8.02075 8.75C7.77604 8.75001 7.53252 8.75942 7.29126 8.77344V2.91699H2.91626C2.11099 2.91682 1.45825 2.26331 1.45825 1.45801C1.45843 0.652851 2.1111 0.000175894 2.91626 0H17.5002Z" fill="#007A8C"/>
</svg>
