<svg width="180" height="54" viewBox="0 0 180 54" fill="none" xmlns="http://www.w3.org/2000/svg">
<g clip-path="url(#clip0_6837_50782)">
<path d="M173.585 53.33H6.30494C2.82916 53.33 0 50.4928 0 47.0197V6.30094C0 2.82649 2.82916 0 6.30494 0H173.585C177.06 0 179.989 2.82649 179.989 6.30094V47.0197C179.989 50.4928 177.06 53.33 173.585 53.33Z" fill="#A6A6A6"/>
<path d="M178.699 47.02C178.699 49.8412 176.414 52.1264 173.587 52.1264H6.30585C3.48069 52.1264 1.1875 49.8412 1.1875 47.02V6.29856C1.1875 3.47874 3.48069 1.18555 6.30585 1.18555H173.586C176.414 1.18555 178.698 3.47874 178.698 6.29856L178.699 47.02Z" fill="black"/>
<path d="M40.1661 26.3757C40.1274 22.0786 43.6845 19.9881 43.8472 19.8908C41.8326 16.9536 38.7102 16.5523 37.6129 16.5203C34.9904 16.2443 32.4466 18.0896 31.1107 18.0896C29.7481 18.0896 27.6909 16.547 25.4737 16.5923C22.6205 16.6363 19.9513 18.2882 18.4874 20.8534C15.4663 26.0837 17.7195 33.7699 20.614 37.9976C22.0619 40.0682 23.7538 42.38 25.9683 42.2987C28.1348 42.2094 28.9441 40.9175 31.5586 40.9175C34.1491 40.9175 34.9091 42.2987 37.1676 42.2467C39.4928 42.2094 40.9567 40.1668 42.3539 38.0776C44.0272 35.7045 44.6991 33.3673 44.7258 33.2473C44.6711 33.2286 40.2101 31.5261 40.1661 26.3757Z" fill="white"/>
<path d="M35.8998 13.7388C37.0651 12.2815 37.8624 10.299 37.6411 8.28711C35.9545 8.36177 33.8453 9.4537 32.6307 10.8789C31.5561 12.1349 30.5962 14.1934 30.8441 16.1293C32.7387 16.2706 34.6839 15.1733 35.8998 13.7388Z" fill="white"/>
<path d="M71.522 42.0027H68.4942L66.8357 36.791H61.0707L59.4908 42.0027H56.543L62.2546 24.2598H65.7824L71.522 42.0027ZM66.3357 34.6045L64.8358 29.9714C64.6771 29.4981 64.3798 28.3835 63.9412 26.629H63.8878C63.7132 27.3836 63.4319 28.4982 63.0452 29.9714L61.572 34.6045H66.3357Z" fill="white"/>
<path d="M86.2112 35.4495C86.2112 37.6254 85.6232 39.3453 84.4473 40.6079C83.394 41.7318 82.0861 42.2931 80.5249 42.2931C78.8396 42.2931 77.6291 41.6878 76.8918 40.4772H76.8384V47.2168H73.9959V33.4217C73.9959 32.0537 73.96 30.6498 73.8906 29.2099H76.3905L76.5491 31.2378H76.6025C77.5504 29.7099 78.989 28.9473 80.9195 28.9473C82.4288 28.9473 83.6887 29.5432 84.6966 30.7365C85.7072 31.9311 86.2112 33.5016 86.2112 35.4495ZM83.3154 35.5535C83.3154 34.3083 83.0354 33.2817 82.4728 32.4737C81.8581 31.6311 81.0328 31.2098 79.9982 31.2098C79.297 31.2098 78.6597 31.4444 78.0904 31.9071C77.5197 32.3737 77.1464 32.983 76.9718 33.7376C76.8838 34.0896 76.8398 34.3776 76.8398 34.6042V36.7374C76.8398 37.6681 77.1251 38.4533 77.6957 39.0946C78.2664 39.7359 79.0076 40.0559 79.9196 40.0559C80.9902 40.0559 81.8235 39.6426 82.4194 38.8186C83.0167 37.9934 83.3154 36.9054 83.3154 35.5535Z" fill="white"/>
<path d="M100.925 35.4495C100.925 37.6254 100.337 39.3453 99.1595 40.6079C98.1075 41.7318 96.7996 42.2931 95.2384 42.2931C93.5532 42.2931 92.3426 41.6878 91.6066 40.4772H91.5533V47.2168H88.7108V33.4217C88.7108 32.0537 88.6748 30.6498 88.6055 29.2099H91.1053L91.264 31.2378H91.3173C92.2639 29.7099 93.7025 28.9473 95.6344 28.9473C97.1423 28.9473 98.4022 29.5432 99.4128 30.7365C100.419 31.9311 100.925 33.5016 100.925 35.4495ZM98.0289 35.5535C98.0289 34.3083 97.7476 33.2817 97.1849 32.4737C96.5703 31.6311 95.7477 31.2098 94.7118 31.2098C94.0091 31.2098 93.3732 31.4444 92.8025 31.9071C92.2319 32.3737 91.8599 32.983 91.6853 33.7376C91.5986 34.0896 91.5533 34.3776 91.5533 34.6042V36.7374C91.5533 37.6681 91.8386 38.4533 92.4066 39.0946C92.9772 39.7346 93.7185 40.0559 94.6331 40.0559C95.7037 40.0559 96.537 39.6426 97.1329 38.8186C97.7302 37.9934 98.0289 36.9054 98.0289 35.5535Z" fill="white"/>
<path d="M117.378 37.0272C117.378 38.5364 116.854 39.7643 115.803 40.7123C114.647 41.7482 113.037 42.2655 110.969 42.2655C109.06 42.2655 107.53 41.8975 106.371 41.1603L107.03 38.7911C108.278 39.5457 109.647 39.9243 111.139 39.9243C112.209 39.9243 113.043 39.6817 113.641 39.199C114.237 38.7164 114.535 38.0685 114.535 37.2605C114.535 36.5406 114.289 35.9339 113.797 35.442C113.308 34.95 112.491 34.4927 111.349 34.07C108.243 32.9114 106.691 31.2142 106.691 28.9824C106.691 27.5238 107.235 26.3279 108.324 25.3972C109.41 24.4653 110.857 24 112.668 24C114.283 24 115.624 24.2813 116.694 24.8426L115.984 27.1598C114.984 26.6158 113.853 26.3439 112.588 26.3439C111.588 26.3439 110.807 26.5905 110.247 27.0811C109.774 27.5198 109.536 28.0544 109.536 28.6877C109.536 29.389 109.807 29.969 110.351 30.4249C110.824 30.8462 111.684 31.3022 112.932 31.7942C114.459 32.4088 115.58 33.1274 116.301 33.9514C117.02 34.7727 117.378 35.8006 117.378 37.0272Z" fill="white"/>
<path d="M126.776 31.3425H123.643V37.5541C123.643 39.134 124.195 39.9233 125.301 39.9233C125.809 39.9233 126.231 39.8793 126.564 39.7913L126.643 41.9498C126.083 42.1591 125.345 42.2645 124.432 42.2645C123.309 42.2645 122.432 41.9218 121.799 41.2379C121.168 40.5526 120.851 39.4033 120.851 37.7887V31.3398H118.984V29.2066H120.851V26.8641L123.643 26.0215V29.2066H126.776V31.3425Z" fill="white"/>
<path d="M140.914 35.5002C140.914 37.4667 140.351 39.0813 139.229 40.3439C138.052 41.6438 136.489 42.2918 134.541 42.2918C132.664 42.2918 131.169 41.6691 130.055 40.4239C128.94 39.1786 128.383 37.6067 128.383 35.7122C128.383 33.7296 128.956 32.1057 130.107 30.8431C131.255 29.5792 132.804 28.9473 134.752 28.9473C136.629 28.9473 138.14 29.5699 139.279 30.8165C140.37 32.0257 140.914 33.587 140.914 35.5002ZM137.965 35.5922C137.965 34.4123 137.713 33.4003 137.202 32.5564C136.606 31.5351 135.754 31.0258 134.65 31.0258C133.508 31.0258 132.64 31.5364 132.044 32.5564C131.533 33.4017 131.281 34.4296 131.281 35.6455C131.281 36.8254 131.533 37.8374 132.044 38.68C132.659 39.7013 133.517 40.2106 134.625 40.2106C135.71 40.2106 136.562 39.6906 137.177 38.6533C137.701 37.7934 137.965 36.7708 137.965 35.5922Z" fill="white"/>
<path d="M150.152 31.7098C149.87 31.6578 149.57 31.6311 149.256 31.6311C148.256 31.6311 147.482 32.0084 146.938 32.7644C146.465 33.431 146.228 34.2736 146.228 35.2909V42.0038H143.387L143.413 33.239C143.413 31.7644 143.377 30.4218 143.307 29.2112H145.782L145.886 31.6591H145.965C146.265 30.8178 146.738 30.1405 147.386 29.6326C148.02 29.1753 148.704 28.9473 149.441 28.9473C149.704 28.9473 149.941 28.9659 150.152 28.9993V31.7098Z" fill="white"/>
<path d="M162.866 35.0002C162.866 35.5095 162.833 35.9388 162.762 36.2894H154.235C154.268 37.5533 154.68 38.5199 155.472 39.1866C156.19 39.7825 157.12 40.0812 158.261 40.0812C159.524 40.0812 160.676 39.8799 161.711 39.4759L162.157 41.4491C160.946 41.9771 159.517 42.2397 157.868 42.2397C155.884 42.2397 154.327 41.6557 153.193 40.4892C152.063 39.3226 151.496 37.756 151.496 35.7908C151.496 33.8616 152.023 32.255 153.077 30.9737C154.181 29.6058 155.673 28.9219 157.55 28.9219C159.394 28.9219 160.79 29.6058 161.738 30.9737C162.489 32.0603 162.866 33.4043 162.866 35.0002ZM160.156 34.2629C160.174 33.4203 159.989 32.6923 159.604 32.0777C159.112 31.2871 158.356 30.8924 157.338 30.8924C156.409 30.8924 155.653 31.2777 155.076 32.051C154.603 32.6656 154.321 33.4029 154.235 34.2615L160.156 34.2629Z" fill="white"/>
<path d="M65.3954 13.344C65.3954 14.9133 64.9247 16.0945 63.9848 16.8878C63.1142 17.6198 61.8769 17.9864 60.2743 17.9864C59.4797 17.9864 58.7998 17.9517 58.2305 17.8824V9.30827C58.9731 9.18828 59.773 9.12695 60.637 9.12695C62.1636 9.12695 63.3142 9.45893 64.0901 10.1229C64.9594 10.8735 65.3954 11.9468 65.3954 13.344ZM63.9221 13.3827C63.9221 12.3654 63.6528 11.5855 63.1142 11.0415C62.5755 10.4989 61.7889 10.2269 60.753 10.2269C60.313 10.2269 59.9384 10.2562 59.6277 10.3175V16.8358C59.7997 16.8625 60.1144 16.8745 60.5717 16.8745C61.6409 16.8745 62.4662 16.5772 63.0475 15.9825C63.6288 15.3879 63.9221 14.5213 63.9221 13.3827Z" fill="white"/>
<path d="M73.2064 14.7146C73.2064 15.6812 72.9304 16.4731 72.3784 17.0944C71.7998 17.733 71.0332 18.0517 70.0759 18.0517C69.1533 18.0517 68.4187 17.7464 67.8707 17.1331C67.3241 16.5211 67.0508 15.7492 67.0508 14.8186C67.0508 13.8453 67.3321 13.0467 67.8974 12.4267C68.4627 11.8067 69.2226 11.4961 70.1799 11.4961C71.1025 11.4961 71.8438 11.8014 72.4051 12.4134C72.9384 13.008 73.2064 13.776 73.2064 14.7146ZM71.7572 14.7599C71.7572 14.1799 71.6318 13.6826 71.3825 13.268C71.0892 12.7667 70.6719 12.516 70.1293 12.516C69.568 12.516 69.1413 12.7667 68.848 13.268C68.5974 13.6826 68.4734 14.1879 68.4734 14.7852C68.4734 15.3652 68.5987 15.8625 68.848 16.2771C69.1506 16.7784 69.572 17.0291 70.1159 17.0291C70.6492 17.0291 71.0679 16.7744 71.3692 16.2638C71.6278 15.8412 71.7572 15.3399 71.7572 14.7599Z" fill="white"/>
<path d="M83.6823 11.623L81.7157 17.908H80.4358L79.6212 15.1788C79.4145 14.4975 79.2465 13.8202 79.1159 13.1483H79.0906C78.9692 13.8389 78.8012 14.5149 78.5853 15.1788L77.72 17.908H76.4254L74.5762 11.623H76.0121L76.7227 14.6109C76.8947 15.3175 77.036 15.9908 77.1493 16.6281H77.1747C77.2787 16.1028 77.4507 15.4335 77.6933 14.6242L78.5853 11.6244H79.7239L80.5785 14.5602C80.7851 15.2762 80.9531 15.9654 81.0824 16.6294H81.1211C81.2158 15.9828 81.3584 15.2935 81.5477 14.5602L82.3104 11.6244H83.6823V11.623Z" fill="white"/>
<path d="M90.925 17.9091H89.5278V14.3093C89.5278 13.2001 89.1064 12.6454 88.2612 12.6454C87.8465 12.6454 87.5119 12.7974 87.2519 13.1028C86.9946 13.4081 86.8639 13.768 86.8639 14.18V17.9078H85.4667V13.4201C85.4667 12.8681 85.4493 12.2695 85.416 11.6215H86.6439L86.7093 12.6041H86.7479C86.9106 12.2988 87.1532 12.0468 87.4719 11.8455C87.8505 11.6108 88.2745 11.4922 88.7385 11.4922C89.3251 11.4922 89.8131 11.6815 90.201 12.0615C90.6837 12.5268 90.925 13.2214 90.925 14.144V17.9091Z" fill="white"/>
<path d="M94.7787 17.909H93.3828V8.74023H94.7787V17.909Z" fill="white"/>
<path d="M103.003 14.7146C103.003 15.6812 102.727 16.4731 102.175 17.0944C101.597 17.733 100.829 18.0517 99.8728 18.0517C98.9489 18.0517 98.2142 17.7464 97.6676 17.1331C97.121 16.5211 96.8477 15.7492 96.8477 14.8186C96.8477 13.8453 97.129 13.0467 97.6943 12.4267C98.2596 11.8067 99.0195 11.4961 99.9755 11.4961C100.899 11.4961 101.639 11.8014 102.202 12.4134C102.735 13.008 103.003 13.776 103.003 14.7146ZM101.553 14.7599C101.553 14.1799 101.427 13.6826 101.178 13.268C100.886 12.7667 100.467 12.516 99.9261 12.516C99.3635 12.516 98.9369 12.7667 98.6449 13.268C98.3942 13.6826 98.2702 14.1879 98.2702 14.7852C98.2702 15.3652 98.3956 15.8625 98.6449 16.2771C98.9475 16.7784 99.3688 17.0291 99.9128 17.0291C100.446 17.0291 100.863 16.7744 101.165 16.2638C101.425 15.8412 101.553 15.3399 101.553 14.7599Z" fill="white"/>
<path d="M109.765 17.909H108.511L108.407 17.1851H108.368C107.939 17.7624 107.327 18.0517 106.532 18.0517C105.939 18.0517 105.459 17.861 105.097 17.4824C104.769 17.1384 104.605 16.7104 104.605 16.2025C104.605 15.4345 104.925 14.8492 105.569 14.4439C106.212 14.0386 107.116 13.8399 108.28 13.8493V13.732C108.28 12.904 107.845 12.4907 106.975 12.4907C106.355 12.4907 105.808 12.6467 105.336 12.956L105.052 12.0387C105.636 11.6774 106.357 11.4961 107.208 11.4961C108.851 11.4961 109.674 12.3627 109.674 14.0959V16.4105C109.674 17.0384 109.705 17.5384 109.765 17.909ZM108.315 15.7492V14.7799C106.773 14.7532 106.003 15.1759 106.003 16.0465C106.003 16.3745 106.091 16.6198 106.271 16.7838C106.451 16.9478 106.68 17.0291 106.953 17.0291C107.26 17.0291 107.547 16.9318 107.808 16.7384C108.071 16.5438 108.232 16.2971 108.292 15.9945C108.307 15.9265 108.315 15.8438 108.315 15.7492Z" fill="white"/>
<path d="M117.707 17.909H116.467L116.401 16.8997H116.363C115.967 17.6677 115.292 18.0517 114.344 18.0517C113.587 18.0517 112.956 17.7543 112.456 17.1597C111.956 16.5651 111.707 15.7931 111.707 14.8452C111.707 13.8279 111.978 13.004 112.522 12.3747C113.048 11.788 113.694 11.4947 114.462 11.4947C115.305 11.4947 115.896 11.7787 116.232 12.348H116.259V8.74023H117.657V16.2158C117.657 16.8277 117.673 17.3917 117.707 17.909ZM116.259 15.2585V14.2106C116.259 14.0292 116.245 13.8826 116.22 13.7706C116.141 13.4346 115.972 13.152 115.715 12.924C115.455 12.696 115.141 12.5813 114.78 12.5813C114.259 12.5813 113.851 12.788 113.551 13.2026C113.254 13.6173 113.103 14.1466 113.103 14.7932C113.103 15.4145 113.246 15.9185 113.532 16.3064C113.835 16.7197 114.243 16.9264 114.754 16.9264C115.212 16.9264 115.579 16.7544 115.857 16.4091C116.127 16.0904 116.259 15.7065 116.259 15.2585Z" fill="white"/>
<path d="M129.656 14.7146C129.656 15.6812 129.38 16.4731 128.828 17.0944C128.249 17.733 127.484 18.0517 126.525 18.0517C125.604 18.0517 124.869 17.7464 124.32 17.1331C123.773 16.5211 123.5 15.7492 123.5 14.8186C123.5 13.8453 123.781 13.0467 124.347 12.4267C124.912 11.8067 125.672 11.4961 126.63 11.4961C127.552 11.4961 128.294 11.8014 128.854 12.4134C129.388 13.008 129.656 13.776 129.656 14.7146ZM128.208 14.7599C128.208 14.1799 128.082 13.6826 127.833 13.268C127.538 12.7667 127.122 12.516 126.578 12.516C126.019 12.516 125.592 12.7667 125.297 13.268C125.047 13.6826 124.923 14.1879 124.923 14.7852C124.923 15.3652 125.048 15.8625 125.297 16.2771C125.6 16.7784 126.021 17.0291 126.565 17.0291C127.098 17.0291 127.518 16.7744 127.82 16.2638C128.077 15.8412 128.208 15.3399 128.208 14.7599Z" fill="white"/>
<path d="M137.168 17.9091H135.772V14.3093C135.772 13.2001 135.351 12.6454 134.504 12.6454C134.089 12.6454 133.755 12.7974 133.496 13.1028C133.237 13.4081 133.108 13.768 133.108 14.18V17.9078H131.709V13.4201C131.709 12.8681 131.693 12.2695 131.66 11.6215H132.887L132.952 12.6041H132.991C133.155 12.2988 133.397 12.0468 133.715 11.8455C134.095 11.6108 134.517 11.4922 134.983 11.4922C135.568 11.4922 136.056 11.6815 136.444 12.0615C136.928 12.5268 137.168 13.2214 137.168 14.144V17.9091Z" fill="white"/>
<path d="M146.572 12.6704H145.033V15.7236C145.033 16.4995 145.307 16.8875 145.848 16.8875C146.099 16.8875 146.307 16.8662 146.471 16.8222L146.507 17.8821C146.231 17.9861 145.868 18.0381 145.421 18.0381C144.869 18.0381 144.44 17.8701 144.129 17.5341C143.817 17.1981 143.663 16.6328 143.663 15.8396V12.6704H142.744V11.6238H143.663V10.4719L145.032 10.0586V11.6225H146.571L146.572 12.6704Z" fill="white"/>
<path d="M153.97 17.909H152.571V14.3359C152.571 13.2093 152.15 12.6453 151.306 12.6453C150.658 12.6453 150.216 12.972 149.973 13.6253C149.932 13.7626 149.908 13.9306 149.908 14.1279V17.9077H148.512V8.74023H149.908V12.528H149.934C150.374 11.8387 151.005 11.4947 151.822 11.4947C152.401 11.4947 152.879 11.684 153.259 12.064C153.733 12.5373 153.97 13.2413 153.97 14.1719V17.909Z" fill="white"/>
<path d="M161.599 14.4695C161.599 14.7202 161.581 14.9308 161.547 15.1028H157.357C157.376 15.7241 157.576 16.1974 157.964 16.5254C158.318 16.8187 158.776 16.9654 159.336 16.9654C159.955 16.9654 160.521 16.8667 161.03 16.6681L161.249 17.6387C160.653 17.8973 159.951 18.0266 159.14 18.0266C158.166 18.0266 157.4 17.74 156.845 17.1667C156.288 16.5934 156.012 15.8241 156.012 14.8588C156.012 13.9109 156.269 13.1216 156.788 12.4923C157.329 11.8204 158.061 11.4844 158.985 11.4844C159.889 11.4844 160.575 11.8204 161.039 12.4923C161.414 13.0256 161.599 13.6856 161.599 14.4695ZM160.266 14.1082C160.277 13.6936 160.185 13.3363 159.995 13.0349C159.753 12.647 159.384 12.4523 158.884 12.4523C158.428 12.4523 158.056 12.6416 157.772 13.0216C157.54 13.3243 157.402 13.6856 157.357 14.1082H160.266Z" fill="white"/>
</g>
<defs>
<clipPath id="clip0_6837_50782">
<rect width="179.989" height="53.33" fill="white"/>
</clipPath>
</defs>
</svg>
