<svg width="22" height="22" viewBox="0 0 22 22" fill="none" xmlns="http://www.w3.org/2000/svg">
<path fill-rule="evenodd" clip-rule="evenodd" d="M8.68359 3.42773C6.5381 3.42773 4.79883 5.167 4.79883 7.3125L4.79883 12.3399C4.79883 15.7475 7.5612 18.5098 10.9687 18.5098C14.3763 18.5098 17.1387 15.7475 17.1387 12.3399V10.9688C17.1387 10.5902 17.4456 10.2833 17.8242 10.2833C18.2028 10.2833 18.5098 10.5902 18.5098 10.9688V12.3399C18.5098 16.5047 15.1335 19.8809 10.9687 19.8809C6.80396 19.8809 3.42773 16.5047 3.42773 12.3399L3.42773 7.3125C3.42773 4.40977 5.78086 2.05664 8.68359 2.05664C11.5863 2.05664 13.9395 4.40977 13.9395 7.3125V12.3398C13.9395 13.9805 12.6094 15.3105 10.9687 15.3105C9.32808 15.3105 7.99805 13.9805 7.99805 12.3398L7.99805 8.68359C7.99805 8.30498 8.30498 7.99805 8.68359 7.99805C9.06221 7.99805 9.36914 8.30498 9.36914 8.68359L9.36914 12.3398C9.36914 13.2233 10.0853 13.9395 10.9687 13.9395C11.8522 13.9395 12.5684 13.2233 12.5684 12.3398V7.3125C12.5684 5.167 10.8291 3.42773 8.68359 3.42773Z" fill="#161616"/>
</svg>
