<svg width="20" height="20" viewBox="0 0 20 20" fill="none" xmlns="http://www.w3.org/2000/svg">
<path fill-rule="evenodd" clip-rule="evenodd" d="M10 1.04199C10.4025 1.04199 10.8553 1.11113 11.2262 1.35394C11.6377 1.62332 11.875 2.05935 11.875 2.60449C11.875 2.99131 11.7573 3.39148 11.5657 3.73725C14.1928 4.40575 16.1768 6.71812 16.3255 9.54333C16.3331 9.68708 16.3387 9.82474 16.3441 9.95741C16.3626 10.4087 16.3787 10.8016 16.4604 11.1781C16.5582 11.6279 16.7389 11.9816 17.1066 12.2573C17.7477 12.7382 18.125 13.4928 18.125 14.2942C18.125 15.4453 17.219 16.4587 16 16.4587H13.0625C12.7729 17.8851 11.5118 18.9587 10 18.9587C8.48817 18.9587 7.22706 17.8851 6.93751 16.4587H4C2.78099 16.4587 1.875 15.4453 1.875 14.2942C1.875 13.5501 2.20034 12.8462 2.76014 12.3645L2.89344 12.2573C3.26107 11.9816 3.44187 11.6279 3.53957 11.1781C3.60499 10.8769 3.62836 10.5652 3.64454 10.2215L3.65587 9.95741C3.6613 9.82474 3.66693 9.68708 3.6745 9.54333C3.8232 6.71812 5.80714 4.40575 8.43425 3.73725C8.24271 3.39148 8.125 2.99131 8.125 2.60449C8.125 2.05935 8.36233 1.62332 8.77383 1.35394C9.14475 1.11113 9.5975 1.04199 10 1.04199ZM11.7683 16.4587H8.23169C8.48908 17.1869 9.18358 17.7087 10 17.7087C10.8164 17.7087 11.5109 17.1869 11.7683 16.4587ZM10 4.79199C7.29589 4.79199 5.0649 6.90865 4.92278 9.60899C4.91718 9.71549 4.91271 9.82824 4.90807 9.94549C4.8896 10.4122 4.86832 10.9496 4.7611 11.4433C4.61886 12.0983 4.31517 12.7536 3.64344 13.2573C3.31707 13.5021 3.125 13.8862 3.125 14.2942C3.125 14.8067 3.52201 15.2087 4 15.2087H16C16.478 15.2087 16.875 14.8067 16.875 14.2942C16.875 13.8862 16.6829 13.5021 16.3566 13.2573C15.6848 12.7536 15.3812 12.0983 15.2389 11.4433C15.1531 11.0483 15.1224 10.6254 15.104 10.2331L15.0919 9.94541C15.0872 9.82808 15.0828 9.71541 15.0772 9.60899C14.9351 6.90865 12.7041 4.79199 10 4.79199ZM10 2.29199C9.71217 2.29199 9.53992 2.34643 9.45842 2.39978C9.42483 2.42178 9.41025 2.44086 9.40133 2.45773C9.392 2.47554 9.375 2.51788 9.375 2.60449C9.375 2.79804 9.46067 3.06047 9.61775 3.27178C9.77942 3.48935 9.92758 3.54199 10 3.54199C10.0724 3.54199 10.2206 3.48935 10.3822 3.27178C10.5393 3.06047 10.625 2.79804 10.625 2.60449C10.625 2.51788 10.608 2.47554 10.5987 2.45773C10.5897 2.44086 10.5752 2.42178 10.5416 2.39978C10.4601 2.34643 10.2878 2.29199 10 2.29199Z" fill="white"/>
</svg>
