<svg width="32" height="32" viewBox="0 0 32 32" fill="none" xmlns="http://www.w3.org/2000/svg">
<path d="M21.6738 24.792C22.7136 24.792 23.4762 24.7906 24.1689 25.0137C24.7361 25.1945 25.2608 25.4847 25.707 25.8711C26.2612 26.3494 26.6202 26.9954 27.0781 27.8223L27.2959 28.2129C27.3732 28.3514 27.5188 28.4375 27.6777 28.4375H28.8018C29.6066 28.4375 30.2606 29.1009 30.2607 29.8955C30.2607 30.6903 29.6244 31.337 28.834 31.3545H14.1865C13.3962 31.3369 12.7607 30.7005 12.7607 29.8955C12.7609 29.0907 13.4139 28.4375 14.2188 28.4375H15.3428C15.5017 28.4375 15.6483 28.3514 15.7256 28.2129L15.9424 27.8223C16.4003 26.9954 16.7593 26.3494 17.3135 25.8711C17.7596 25.4847 18.2844 25.1945 18.8516 25.0137C19.5442 24.792 20.3071 24.792 21.3467 24.792H21.6738ZM11.917 0.320312C12.3443 -0.106974 13.0376 -0.106977 13.4648 0.320312C13.8919 0.747537 13.8919 1.43895 13.4648 1.86621L13.4395 1.89062C13.7748 2.15454 14.1774 2.47728 14.625 2.8418C15.8777 3.86701 17.4896 5.2484 18.8809 6.63965C20.2719 8.03072 21.6526 9.64193 22.6777 10.8945C23.0422 11.3421 23.365 11.7447 23.6289 12.0801L23.6533 12.0557C24.0806 11.6284 24.7719 11.6285 25.1992 12.0557C25.6265 12.4829 25.6265 13.1752 25.1992 13.6025L17.9775 20.8242C17.5502 21.2515 16.858 21.2515 16.4307 20.8242C16.0035 20.3969 16.0034 19.7056 16.4307 19.2783L16.4551 19.2539C16.1197 18.99 15.7176 18.6672 15.2715 18.3027C14.0174 17.2761 12.4058 15.897 11.0146 14.5059C9.62342 13.1146 8.24346 11.5032 7.2168 10.249C6.85221 9.80277 6.52958 9.39987 6.26562 9.06445L6.24121 9.08984C5.81395 9.51685 5.12254 9.51692 4.69531 9.08984C4.26803 8.66257 4.26806 7.96929 4.69531 7.54199L11.917 0.320312Z" fill="#007A8C"/>
<path opacity="0.4" d="M7.69043 13.8086C7.86665 13.8205 8.00392 13.9709 8.2793 14.2725C8.74882 14.7872 9.23566 15.3021 9.72559 15.792C10.2156 16.2834 10.7303 16.7707 11.2451 17.2402C11.547 17.5158 11.6987 17.6527 11.709 17.8291C11.7207 18.0056 11.5892 18.1591 11.3281 18.4668L6.41113 24.2383C5.03307 25.8555 2.56851 25.955 1.06641 24.4531C-0.435657 22.9496 -0.337932 20.4851 1.2793 19.1084L7.05078 14.1904C7.35849 13.9294 7.51397 13.7984 7.69043 13.8086ZM25.6992 20.6787C26.0857 19.9717 26.9706 19.7119 27.6777 20.0967L30.5947 21.6885C31.3017 22.075 31.563 22.9598 31.1768 23.667C30.7918 24.3743 29.9046 24.634 29.1973 24.249L26.2812 22.6582C25.574 22.2732 25.3142 21.386 25.6992 20.6787ZM28.9727 13.0898C29.5952 12.5795 30.5139 12.6712 31.0244 13.2949C31.5348 13.9176 31.4435 14.8372 30.8193 15.3477L27.9023 17.7334C27.2797 18.2435 26.361 18.1517 25.8506 17.5293C25.3416 16.9051 25.4339 15.986 26.0566 15.4756L28.9727 13.0898Z" fill="#007A8C"/>
</svg>
