<svg width="22" height="22" viewBox="0 0 22 22" fill="none" xmlns="http://www.w3.org/2000/svg">
<path d="M13.8525 17.0166C14.4604 16.9836 15.0767 16.9836 15.6836 17.0166C17.7194 17.1276 18.4506 18.7358 18.9336 19.7998C18.9646 19.8678 18.9954 19.934 19.0254 19.999H19.752C20.166 19.999 20.502 20.335 20.502 20.749C20.502 21.163 20.166 21.499 19.752 21.499H9.75391C9.33996 21.499 9.00391 21.163 9.00391 20.749C9.00391 20.3351 9.33995 19.9991 9.75391 19.999H10.5137C10.5437 19.935 10.5745 19.8678 10.6045 19.8008C11.0865 18.7369 11.8151 17.1278 13.8525 17.0166ZM15.6025 18.5146C15.0497 18.4837 14.4884 18.4837 13.9355 18.5146C13.0238 18.5648 12.5959 19.1242 12.168 19.999H17.3721C16.9441 19.124 16.5145 18.5636 15.6025 18.5146ZM8.1709 0.220703C8.4629 -0.0722969 8.93842 -0.0732735 9.23242 0.219727C9.52517 0.512738 9.5263 0.986353 9.2334 1.28027L9.21582 1.29785C10.0928 1.98986 11.6553 3.26848 12.9482 4.56445C14.24 5.85825 15.5121 7.4217 16.2031 8.30176L16.2197 8.28613C16.5127 7.99342 16.9864 7.99232 17.2803 8.28516C17.5733 8.57716 17.5742 9.05268 17.2812 9.34668L16.6787 9.9502C16.6738 9.95614 16.6671 9.96087 16.6621 9.9668L12.3291 14.3105C12.1833 14.4572 11.9906 14.5302 11.7988 14.5303L11.7969 14.5312C11.6051 14.5311 11.4144 14.4582 11.2676 14.3125C10.9746 14.0205 10.9736 13.545 11.2666 13.251L11.2852 13.2324C10.7139 12.7816 9.85212 12.0818 8.96289 11.291L4.39844 16.6611C3.94744 17.1911 3.2907 17.5111 2.5957 17.5381C2.56284 17.5391 2.52993 17.54 2.49707 17.54H2.49609C1.83729 17.54 1.19843 17.2763 0.730469 16.8086C0.239528 16.3157 -0.0259726 15.6343 0.00195312 14.9404C0.0299531 14.2464 0.348953 13.5887 0.876953 13.1377L6.23828 8.56055C5.44757 7.66804 4.74709 6.80311 4.2959 6.22852L4.28125 6.24316C3.98828 6.53613 3.51471 6.53704 3.2207 6.24414C2.9277 5.95114 2.92673 5.47759 3.21973 5.18359L7.55273 0.839844C7.55459 0.837976 7.56206 0.830517 7.56641 0.826172L8.1709 0.220703ZM1.85156 14.2793C1.63762 14.4622 1.51204 14.7181 1.50098 15.001C1.48998 15.2839 1.59307 15.55 1.79297 15.75C1.99097 15.948 2.25413 16.053 2.53613 16.04C2.81701 16.029 3.07191 15.9043 3.25488 15.6904L7.8623 10.2695C7.75817 10.1685 7.65402 10.0683 7.55273 9.9668C7.45356 9.86732 7.35553 9.76528 7.25684 9.66309L1.85156 14.2793ZM18.0928 13.333C18.2918 12.97 18.7474 12.8362 19.1104 13.0352L21.1104 14.1289C21.4733 14.3279 21.6071 14.7835 21.4082 15.1465C21.2722 15.3955 21.015 15.5371 20.749 15.5371C20.6272 15.537 20.5045 15.5063 20.3906 15.4443L18.3906 14.3506C18.0276 14.1516 17.8938 13.696 18.0928 13.333ZM5.36426 5.15918H5.36328C6.00027 5.97516 7.31531 7.60722 8.61328 8.9082C9.91128 10.2082 11.5375 11.5231 12.3525 12.1621L15.1357 9.37305C14.4987 8.55706 13.1837 6.92402 11.8867 5.62402C10.5907 4.32502 8.96346 3.00814 8.14746 2.36914L5.36426 5.15918ZM20.2744 8.19336C20.5944 7.93058 21.0671 7.978 21.3301 8.29785C21.593 8.61777 21.5463 9.09048 21.2266 9.35352L19.2266 10.9941C19.0876 11.1081 18.918 11.1641 18.751 11.1641H18.75C18.5331 11.164 18.3178 11.0695 18.1699 10.8896C17.9072 10.5697 17.9546 10.0969 18.2744 9.83398L20.2744 8.19336Z" fill="#007A8C"/>
</svg>
