<svg width="14" height="15" viewBox="0 0 14 15" fill="none" xmlns="http://www.w3.org/2000/svg">
<g clip-path="url(#clip0_5091_53369)">
<path d="M8.35299 13.2883C8.11349 13.8194 7.95518 14.3956 7.89453 15L12.9627 13.9226C13.2022 13.3917 13.3604 12.8153 13.4212 12.2109L8.35299 13.2883Z" fill="#161616"/>
<path d="M12.9626 10.6949C13.2021 10.164 13.3604 9.58759 13.4211 8.98324L9.47309 9.82291V8.20876L12.9625 7.46723C13.202 6.9363 13.3603 6.35989 13.421 5.75554L9.47297 6.59449V0.789524C8.86803 1.12919 8.33077 1.58132 7.89405 2.11463V6.93021L6.31512 7.26582V0C5.71017 0.339544 5.17292 0.791792 4.73619 1.32511V7.6013L1.20333 8.35202C0.963833 8.88295 0.805403 9.45936 0.744633 10.0637L4.73619 9.21545V11.2482L0.458456 12.1572C0.218961 12.6881 0.06065 13.2646 0 13.8689L4.47759 12.9174C4.84209 12.8416 5.15537 12.6261 5.35905 12.3295L6.18021 11.1121V11.1118C6.26545 10.9859 6.31512 10.834 6.31512 10.6705V8.87985L7.89405 8.54424V11.7725L12.9625 10.6947L12.9626 10.6949Z" fill="#161616"/>
</g>
<defs>
<clipPath id="clip0_5091_53369">
<rect width="13.4211" height="15" fill="white"/>
</clipPath>
</defs>
</svg>
