<svg width="20" height="20" viewBox="0 0 20 20" fill="none" xmlns="http://www.w3.org/2000/svg">
<path d="M10 1.0415C14.9207 1.0415 18.959 4.86556 18.959 9.63916C18.9588 14.4126 14.9205 18.2358 10 18.2358C9.42019 18.2366 8.84183 18.1826 8.27246 18.0757C8.07523 18.0386 7.94979 18.0152 7.85645 18.0024C7.81645 17.9969 7.79114 17.9955 7.77734 17.9946C7.76322 18 7.7355 18.0113 7.69043 18.0327C7.59499 18.078 7.46708 18.145 7.27246 18.2485C6.07957 18.8828 4.688 19.1085 3.3457 18.8589C3.12891 18.8186 2.94911 18.6664 2.87305 18.4595C2.79705 18.2526 2.83566 18.0211 2.97461 17.8501C3.36444 17.3706 3.63243 16.7922 3.75098 16.1704C3.78287 15.9994 3.71027 15.7669 3.4873 15.5405C1.97524 14.0049 1.0421 11.9286 1.04199 9.63916C1.04199 4.86567 5.07951 1.04167 10 1.0415ZM7.77539 17.9927C7.7728 17.9931 7.77034 17.9935 7.76855 17.9937C7.76613 17.994 7.76419 17.9936 7.76367 17.9937C7.76456 17.9937 7.76915 17.9941 7.77734 17.9946L7.78906 17.9897C7.78906 17.9897 7.78393 17.9914 7.77539 17.9927ZM10 2.2915C5.71709 2.29167 2.29199 5.60764 2.29199 9.63916C2.2921 11.5798 3.08123 13.3467 4.37793 14.6636C4.77308 15.0648 5.11378 15.6907 4.97949 16.4028V16.4038C4.89292 16.8584 4.74477 17.2967 4.54199 17.7065C5.28672 17.689 6.02436 17.4966 6.68555 17.145L6.69922 17.1382C6.87744 17.0434 7.03013 16.9618 7.1543 16.9028C7.27427 16.8459 7.42392 16.7812 7.58594 16.7563C7.74407 16.7322 7.8985 16.7466 8.02637 16.7642C8.15407 16.7817 8.3106 16.8117 8.48926 16.8452L8.50391 16.8472C8.99698 16.9398 9.49728 16.9865 9.99902 16.9858C14.282 16.9858 17.7088 13.6706 17.709 9.63916C17.709 5.60753 14.2831 2.2915 10 2.2915ZM6.6748 9.1665C7.13478 9.16669 7.50764 9.53952 7.50781 9.99951C7.50781 10.4596 7.13489 10.8333 6.6748 10.8335H6.66699C6.20676 10.8335 5.83398 10.4598 5.83398 9.99951C5.83416 9.53941 6.20687 9.1665 6.66699 9.1665H6.6748ZM10.0049 9.1665C10.4649 9.16668 10.8377 9.53952 10.8379 9.99951C10.8379 10.4597 10.465 10.8333 10.0049 10.8335H9.99707C9.53682 10.8335 9.16406 10.4598 9.16406 9.99951C9.16424 9.53941 9.53693 9.1665 9.99707 9.1665H10.0049ZM13.333 9.1665C13.7931 9.1665 14.1658 9.53941 14.166 9.99951C14.166 10.4598 13.7933 10.8335 13.333 10.8335H13.3252C12.8651 10.8333 12.4922 10.4597 12.4922 9.99951C12.4924 9.53952 12.8652 9.16668 13.3252 9.1665H13.333Z" fill="#007A8C"/>
</svg>
