<svg width="14" height="14" viewBox="0 0 14 14" fill="none" xmlns="http://www.w3.org/2000/svg">
<path d="M4.94678 0.228516C8.2844 -0.662653 11.7105 1.12918 12.9048 4.28125C12.9567 4.4187 12.9396 4.57289 12.8599 4.69629C12.78 4.81962 12.6462 4.8983 12.4995 4.90723L10.9507 5.00098C10.6957 5.01636 10.476 4.82237 10.4604 4.56738C10.4449 4.31227 10.6399 4.09268 10.895 4.07715L11.7788 4.02344C10.5741 1.68272 7.84872 0.410842 5.18506 1.12207C2.12003 1.94062 0.30393 5.07244 1.12158 8.11328C1.93947 11.1548 5.08512 12.9621 8.15088 12.1436C10.4256 11.5361 12.014 9.65391 12.3462 7.47949C12.3848 7.22683 12.6209 7.05321 12.8735 7.0918C13.1261 7.13045 13.2998 7.36652 13.2612 7.61914C12.8751 10.1466 11.0295 12.3331 8.38916 13.0381C4.83485 13.987 1.17969 11.8926 0.228027 8.35352C-0.723798 4.81368 1.39176 1.17775 4.94678 0.228516ZM6.6333 3.70215C6.88871 3.70235 7.09619 3.90958 7.09619 4.16504V6.44141L8.19385 7.54004C8.37458 7.72077 8.37458 8.01361 8.19385 8.19434C8.0131 8.37484 7.72021 8.37499 7.53955 8.19434L6.30615 6.95996C6.21936 6.87317 6.17041 6.75555 6.17041 6.63281V4.16504C6.17041 3.90945 6.37771 3.70215 6.6333 3.70215Z" fill="#161616"/>
</svg>
