<svg width="24" height="24" viewBox="0 0 24 24" fill="none" xmlns="http://www.w3.org/2000/svg">
<path d="M12 1.25C13.2426 1.25 14.25 2.25736 14.25 3.5C14.25 3.84964 14.1677 4.17942 14.0254 4.47461C18.1596 5.39833 21.25 9.08727 21.25 13.5C21.25 18.6086 17.1086 22.75 12 22.75C6.89137 22.75 2.75 18.6086 2.75 13.5C2.75 9.08761 5.83988 5.39867 9.97363 4.47461C9.83144 4.17952 9.75 3.84949 9.75 3.5C9.75 2.25736 10.7574 1.25 12 1.25ZM12 5.75C7.71979 5.75 4.25 9.21979 4.25 13.5C4.25 17.7802 7.71979 21.25 12 21.25C16.2802 21.25 19.75 17.7802 19.75 13.5C19.75 9.21979 16.2802 5.75 12 5.75ZM12 7.25C12.4142 7.25 12.75 7.58579 12.75 8C12.75 8.41421 12.4142 8.75 12 8.75C9.37665 8.75 7.25 10.8766 7.25 13.5C7.25 16.1234 9.37665 18.25 12 18.25C12.4142 18.25 12.75 18.5858 12.75 19C12.75 19.4142 12.4142 19.75 12 19.75C8.54822 19.75 5.75 16.9518 5.75 13.5C5.75 10.0482 8.54822 7.25 12 7.25ZM14.376 8.58398C14.6057 8.23936 15.0714 8.14622 15.416 8.37598C15.7606 8.60574 15.8538 9.07138 15.624 9.41602L12.624 13.916C12.3943 14.2607 11.9286 14.3538 11.584 14.124C11.2393 13.8943 11.1462 13.4286 11.376 13.084L14.376 8.58398ZM12 2.75C11.5858 2.75 11.25 3.08579 11.25 3.5C11.25 3.91421 11.5858 4.25 12 4.25C12.4142 4.25 12.75 3.91421 12.75 3.5C12.75 3.08579 12.4142 2.75 12 2.75Z" fill="#007A8C"/>
</svg>
