<svg width="33" height="32" viewBox="0 0 33 32" fill="none" xmlns="http://www.w3.org/2000/svg">
<path opacity="0.4" d="M17.9796 3.22741C18.9522 3.50968 19.7749 3.74845 20.4229 4.02476C21.114 4.31941 21.7112 4.69789 22.1648 5.3183C22.6157 5.93509 22.8018 6.62313 22.8875 7.37894C22.9686 8.09464 22.9686 8.9754 22.9686 10.0277V10.0278L22.9686 30.2602C22.9686 30.8642 22.4789 31.3539 21.8748 31.3539L2.91651 31.3539C2.31244 31.3539 1.82276 30.8642 1.82276 30.2602L1.82275 7.88771V7.88768C1.82272 6.12933 1.82268 4.69322 1.97757 3.58823C2.13795 2.44406 2.49224 1.42252 3.39375 0.712798C4.30507 -0.00465497 5.373 -0.08761 6.49931 0.0631784C7.57481 0.207165 8.91426 0.596002 10.5395 1.0678L17.9796 3.2274L17.9796 3.22741Z" fill="#007A8C"/>
<path d="M14.583 10.9385C15.1871 10.9385 15.6768 10.4488 15.6768 9.84473C15.6766 9.24082 15.187 8.75098 14.583 8.75098L10.208 8.75098C9.6042 8.75115 9.11443 9.24092 9.11426 9.84473C9.11426 10.4487 9.6041 10.9383 10.208 10.9385L14.583 10.9385ZM30.625 31.3555C31.4303 31.3555 32.0828 30.7027 32.083 29.8975C32.083 29.092 31.4304 28.4385 30.625 28.4385H30.2607L30.2607 19.208C30.2608 18.2297 30.2607 17.3734 30.1787 16.6689C30.0901 15.9078 29.8926 15.173 29.3955 14.5049C28.8984 13.8368 28.2515 13.4363 27.5479 13.1328C26.8967 12.8519 26.0766 12.6062 25.1396 12.3252L22.9688 11.6738V14.7188L24.2266 15.0957C25.2605 15.4059 25.9157 15.6049 26.3926 15.8105C26.8344 16.0011 26.9761 16.1392 27.0557 16.2461C27.1352 16.353 27.2266 16.5282 27.2822 17.0059C27.3422 17.5217 27.3437 18.2066 27.3438 19.2861L27.3438 28.4385L17.1357 28.4385L17.1357 24.3633C17.1358 23.7322 17.1355 23.1534 17.0723 22.6826C17.0026 22.1642 16.8384 21.6157 16.3877 21.165C15.9372 20.7147 15.3893 20.5511 14.8711 20.4814C14.4004 20.4182 13.8216 20.4179 13.1904 20.418L11.6016 20.418C10.9704 20.4179 10.3916 20.4182 9.9209 20.4814C9.40249 20.5511 8.85398 20.7144 8.40332 21.165C7.95266 21.6157 7.78942 22.1642 7.71973 22.6826C7.65645 23.1534 7.65618 23.7321 7.65625 24.3633L7.65625 28.4385L1.45801 28.4385C0.652742 28.4387 0 29.0922 0 29.8975C0.000175894 30.7026 0.652851 31.3553 1.45801 31.3555L30.625 31.3555ZM14.583 16.7725C15.187 16.7725 15.6766 16.2826 15.6768 15.6787C15.6768 15.0746 15.1871 14.585 14.583 14.585L10.208 14.585C9.6041 14.5851 9.11426 15.0748 9.11426 15.6787C9.11443 16.2825 9.6042 16.7723 10.208 16.7725L14.583 16.7725ZM9.84375 24.4287C9.84375 23.7103 9.84638 23.2809 9.8877 22.9736C9.90666 22.833 9.95569 22.7349 9.96875 22.7031C10.0005 22.6901 10.0713 22.6683 10.2119 22.6494C10.5192 22.6081 10.9486 22.6055 11.667 22.6055L13.125 22.6055C13.8431 22.6055 14.2718 22.6081 14.5791 22.6494C14.7192 22.6683 14.8174 22.7171 14.8496 22.7305C14.8627 22.7622 14.8854 22.833 14.9043 22.9736C14.9456 23.2809 14.9482 23.7103 14.9482 24.4287V28.4385L9.84375 28.4385V24.4287Z" fill="#007A8C"/>
</svg>
