<svg width="21" height="21" viewBox="0 0 21 21" fill="none" xmlns="http://www.w3.org/2000/svg">
<path d="M13.75 0C14.1642 0 14.5 0.335786 14.5 0.75V3.5H19.75C19.9488 3.5 20.1396 3.5792 20.2803 3.71973C20.4209 3.86038 20.5 4.0511 20.5 4.25V9.7998L19.5 10.1152V19.75C19.5 20.1642 19.1642 20.5 18.75 20.5H1.75C1.55108 20.5 1.36038 20.4209 1.21973 20.2803C1.07908 20.1396 0.999994 19.9489 1 19.75V10.1152L0 9.7998V4.25C0 3.83579 0.335786 3.5 0.75 3.5H6V0.75C6 0.335786 6.33579 0 6.75 0H13.75ZM12.9629 12.1797C12.7564 13.4941 11.6224 14.5 10.25 14.5C8.87754 14.5 7.7426 13.4942 7.53613 12.1797L2.5 10.5889V19H18V10.5889L12.9629 12.1797ZM9 11.75C9 12.4404 9.55964 13 10.25 13C10.9404 13 11.5 12.4404 11.5 11.75V10.5H9V11.75ZM1.5 8.7002L7.5 10.5947V9H13V10.5947L19 8.7002V5H1.5V8.7002ZM7.5 3.5H13V1.5H7.5V3.5Z" fill="#007A8C"/>
</svg>
