<svg width="80" height="54" viewBox="0 0 80 54" fill="none" xmlns="http://www.w3.org/2000/svg">
<path d="M10.0583 8.79199H3.55959V12.4571H9.03768C12.6315 12.4571 14.1413 13.9318 14.1413 16.8805V22.9759H0V26.6422H18.5339V16.6413C18.5339 11.6201 15.9607 8.79199 10.0583 8.79199Z" fill="white"/>
<path d="M8.28347 4.34411C9.61617 4.34411 10.6805 3.34743 10.6805 2.19177C10.6805 0.99656 9.61617 0.000976562 8.28347 0.000976562C6.99767 0.000976562 5.8877 0.99656 5.8877 2.19177C5.8877 3.34743 6.99767 4.34411 8.28347 4.34411Z" fill="white"/>
<path d="M46.845 4.34411C48.1765 4.34411 49.2408 3.34743 49.2408 2.19177C49.2408 0.99656 48.1765 0.000976562 46.845 0.000976562C45.558 0.000976562 44.4492 0.99656 44.4492 2.19177C44.4492 3.34743 45.558 4.34411 46.845 4.34411Z" fill="white"/>
<path d="M68.3274 0C67.0404 0 65.9316 0.997781 65.9316 2.1919C65.9316 3.34755 67.0404 4.34313 68.3274 4.34313C69.6589 4.34313 70.7232 3.34755 70.7232 2.1919C70.7232 0.997781 69.6589 0 68.3274 0Z" fill="white"/>
<path d="M50.9716 22.9758H41.6529V17.2386C41.6529 14.0504 43.1618 12.457 46.8005 12.457H50.9716V22.9758ZM66.1531 22.9758H55.4078V8.79223H45.8684C39.8775 8.79223 37.2603 11.7793 37.2603 16.8803V22.9758H30.5527C28.4237 22.9758 27.4475 22.1791 27.4475 20.107V0.0664062H23.0537V19.6686C23.0537 24.5307 24.8731 26.642 30.7738 26.642H70.5016V8.79223H66.1531V22.9758Z" fill="white"/>
<path d="M79.374 0.0644531H74.9814V26.6412H79.374V0.0644531Z" fill="white"/>
<path d="M15.3527 40.4639H7.78809V53.772H11.1996V42.9638H14.8159C17.1252 42.9638 18.0671 43.8096 18.0671 45.885V53.772H21.4807V45.9648C21.4807 42.1613 19.5907 40.4639 15.3527 40.4639Z" fill="white"/>
<path d="M25.8106 39.5546V40.4634H23.4805V42.9106H25.8106V53.7711H29.2221V42.9106H33.8521V40.4634H29.2221V39.6359C29.2221 38.4693 29.6826 38.0572 30.9819 38.0572H33.8521V35.6367H30.1754C27.0747 35.6367 25.8106 36.7722 25.8106 39.5546Z" fill="white"/>
<path d="M45.3471 47.8187V51.353H40.6013C39.2955 51.353 38.6334 50.7582 38.6334 49.5857C38.6334 48.4132 39.2955 47.8187 40.6013 47.8187H45.3471ZM42.9917 40.4639H36.0586V42.9111H42.9314C44.7148 42.9111 45.3169 43.4572 45.3169 45.0806V45.3986H39.8242C36.9054 45.3986 35.1611 46.963 35.1611 49.5857C35.1611 52.2083 36.9054 53.7716 39.8242 53.7716H48.7289V45.6169C48.7289 41.9569 47.0674 40.4639 42.9917 40.4639Z" fill="white"/>
<path d="M56.477 37.0303H53.0634V40.4632H50.7354V42.9107H53.0634V49.8534C53.0634 52.6373 54.328 53.7713 57.4283 53.7713H61.4949V51.3252H58.2351C56.9375 51.3252 56.477 50.9117 56.477 49.7465V42.9107H61.5006V40.4632H56.477V37.0303Z" fill="white"/>
<path d="M73.2472 40.463H69.2474V35.6367H65.8359V53.7711H69.2474V42.9629H72.7104C75.018 42.9629 75.9616 43.8087 75.9616 45.8841V53.7711H79.3731V45.964C79.3731 42.1604 77.4836 40.463 73.2472 40.463Z" fill="white"/>
<path d="M3.41927 35.6367H0V53.6865H3.41927V35.6367Z" fill="white"/>
<path d="M77.221 31.0704V30.2499C77.221 29.8591 77.376 29.7268 77.8349 29.7268H78.7817V28.5459H77.6534C76.4741 28.5459 75.8507 29.1206 75.8507 30.2074V31.0704H74.9814V32.2517H79.374V31.0704H77.221Z" fill="white"/>
</svg>
