<svg width="16" height="18" viewBox="0 0 16 18" fill="none" xmlns="http://www.w3.org/2000/svg">
<g clip-path="url(#clip0_5952_698)">
<path d="M9.95768 15.842C9.67217 16.4751 9.48344 17.1621 9.41113 17.8826L15.4532 16.5982C15.7387 15.9653 15.9273 15.2781 15.9998 14.5576L9.95768 15.842Z" fill="white"/>
<path d="M15.4534 12.75C15.739 12.1171 15.9277 11.4299 16 10.7094L11.2934 11.7104V9.78611L15.4533 8.90209C15.7388 8.26915 15.9276 7.58197 15.9999 6.86149L11.2933 7.86165V0.941235C10.5721 1.34617 9.93157 1.88517 9.41093 2.52097V8.26189L7.5286 8.66198V0C6.80741 0.404789 6.16692 0.943939 5.64627 1.57973V9.06193L1.43455 9.95691C1.14904 10.5899 0.960165 11.277 0.887719 11.9975L5.64627 10.9862V13.4096L0.546551 14.4933C0.261035 15.1262 0.0723042 15.8134 0 16.5339L5.33798 15.3995C5.77252 15.3091 6.146 15.0522 6.38881 14.6987L7.36777 13.2473V13.247C7.46939 13.0969 7.5286 12.9158 7.5286 12.7208V10.5862L9.41093 10.1861V14.0347L15.4533 12.7497L15.4534 12.75Z" fill="white"/>
</g>
<defs>
<clipPath id="clip0_5952_698">
<rect width="16" height="17.8823" fill="white"/>
</clipPath>
</defs>
</svg>
