<svg width="35" height="50" viewBox="0 0 35 50" fill="none" xmlns="http://www.w3.org/2000/svg">
<path d="M18.5881 24.5675C18.323 24.7536 18.165 25.0582 18.165 25.3853V33.5974C18.165 34.1501 18.6106 34.5957 19.1633 34.5957C19.7161 34.5957 20.1616 34.1501 20.1616 33.5974V25.9042L28.887 19.7959C29.1859 19.9482 29.5187 20.0385 29.8796 20.0385C31.0641 20.0385 32.0229 19.0796 32.0229 17.8952C32.0229 16.7108 31.0641 15.752 29.8796 15.752C28.6952 15.752 27.7364 16.7108 27.7364 17.8952C27.7364 17.9855 27.742 18.0701 27.7533 18.1603L18.5937 24.5732L18.5881 24.5675Z" fill="white"/>
<path d="M12.395 22.386V30.5643C11.7125 30.9252 11.25 31.6359 11.25 32.465C11.25 33.6494 12.2088 34.6083 13.3933 34.6083C14.5777 34.6083 15.5365 33.6494 15.5365 32.465C15.5365 31.6415 15.0684 30.9252 14.3859 30.5643V22.9049L27.285 13.8751C27.55 13.6889 27.708 13.3844 27.708 13.0572V6.96022C27.708 6.40749 27.2624 5.96191 26.7097 5.96191C26.1569 5.96191 25.7114 6.40749 25.7114 6.96022V12.5383L12.8123 21.5682C12.5472 21.7544 12.3893 22.0589 12.3893 22.386H12.395Z" fill="white"/>
<path d="M27.8621 25.1207L24.5683 27.4275C24.1171 27.7433 24.0099 28.3638 24.3257 28.815C24.5175 29.0913 24.8277 29.238 25.1436 29.238C25.341 29.238 25.5384 29.1816 25.7132 29.0575L29.0071 26.7507C29.4583 26.4348 29.5655 25.8144 29.2496 25.3632C28.9338 24.912 28.3133 24.8048 27.8621 25.1207Z" fill="white"/>
<path d="M34.1484 30.9188C33.8269 30.462 33.1952 30.3492 32.7327 30.6707L17.1659 41.5674L1.59902 30.6707C1.14217 30.3492 0.504842 30.462 0.183353 30.9188C-0.138135 31.3813 -0.0253395 32.013 0.431513 32.3345L15.3892 42.8083L11.0068 45.8765C10.7079 45.7242 10.3695 45.634 10.0085 45.634C8.8015 45.634 7.82576 46.6097 7.82576 47.8167C7.82576 49.0237 8.8015 49.9995 10.0085 49.9995C11.2155 49.9995 12.1912 49.0237 12.1912 47.8167C12.1912 47.7265 12.1856 47.6306 12.1743 47.5404L17.1659 44.0491L22.1574 47.5404C22.1461 47.6306 22.1405 47.7208 22.1405 47.8167C22.1405 49.0237 23.1162 49.9995 24.3232 49.9995C25.5302 49.9995 26.5059 49.0237 26.5059 47.8167C26.5059 46.6097 25.5302 45.634 24.3232 45.634C23.9622 45.634 23.6238 45.7242 23.3249 45.8765L18.9425 42.8083L33.9002 32.3345C34.3571 32.013 34.4699 31.3813 34.1484 30.9188Z" fill="white"/>
<path d="M6.47396 7.31458L9.76781 5.00776C10.219 4.69191 10.3262 4.07149 10.0103 3.62028C9.81857 3.34391 9.50837 3.19727 9.19252 3.19727C8.99512 3.19727 8.79771 3.25367 8.62286 3.37775L5.32901 5.68457C4.8778 6.00042 4.77064 6.62084 5.08649 7.07205C5.40234 7.52326 6.02275 7.63043 6.47396 7.31458Z" fill="white"/>
<path d="M19.947 4.04399V9.53186L7.04801 18.5618C6.78292 18.7479 6.625 19.0524 6.625 19.3796V25.4766C6.625 26.0293 7.07058 26.4749 7.62332 26.4749C8.17605 26.4749 8.62162 26.0293 8.62162 25.4766V19.8985L21.5207 10.8686C21.7857 10.6825 21.9437 10.3779 21.9437 10.0508V4.04399C22.6261 3.68302 23.0886 2.97236 23.0886 2.14326C23.0886 0.958826 22.1298 0 20.9454 0C19.7609 0 18.8021 0.958826 18.8021 2.14326C18.8021 2.96672 19.2702 3.68302 19.9527 4.04399H19.947Z" fill="white"/>
<path d="M4.46042 16.6897C5.64485 16.6897 6.60369 15.7308 6.60369 14.5464C6.60369 14.4562 6.59805 14.3716 6.58677 14.2813L15.7464 7.86845C16.0115 7.68233 16.1694 7.37776 16.1694 7.05063V1.01003C16.1694 0.457291 15.7238 0.0117188 15.1711 0.0117188C14.6184 0.0117188 14.1728 0.457291 14.1728 1.01003V6.53174L5.44745 12.6457C5.14852 12.4934 4.81576 12.4031 4.45479 12.4031C3.27036 12.4031 2.31152 13.362 2.31152 14.5464C2.31152 15.7308 3.27036 16.6897 4.45479 16.6897H4.46042Z" fill="white"/>
</svg>
