<svg width="18" height="18" viewBox="0 0 18 18" fill="none" xmlns="http://www.w3.org/2000/svg">
<path d="M8.58887 0C10.4145 -1.13249e-05 11.8492 -0.000124097 12.9688 0.150391C14.1158 0.304652 15.0261 0.627695 15.7412 1.34277C16.4561 2.05789 16.7784 2.96819 16.9326 4.11523C17.0831 5.23472 17.083 6.66865 17.083 8.49414V8.58887C17.083 10.4145 17.0831 11.8492 16.9326 12.9688C16.7784 14.1157 16.4563 15.0261 15.7412 15.7412C15.0261 16.4563 14.1157 16.7784 12.9688 16.9326C11.8492 17.0831 10.4145 17.083 8.58887 17.083H8.49414C6.66865 17.083 5.23472 17.0831 4.11523 16.9326C2.96819 16.7784 2.05789 16.4561 1.34277 15.7412C0.627695 15.0261 0.304652 14.1158 0.150391 12.9688C-0.000124097 11.8492 -1.13249e-05 10.4145 0 8.58887V8.49414C-1.13241e-05 6.66868 -9.38498e-05 5.23472 0.150391 4.11523C0.30463 2.96802 0.627608 2.05794 1.34277 1.34277C2.05794 0.627608 2.96802 0.30463 4.11523 0.150391C5.23472 -9.38498e-05 6.66868 -1.13241e-05 8.49414 0H8.58887ZM8.54199 1.25C6.65835 1.25 5.30783 1.25163 4.28125 1.38965C3.27286 1.52526 2.67071 1.78241 2.22656 2.22656C1.78241 2.67071 1.52526 3.27286 1.38965 4.28125C1.25163 5.30783 1.25 6.65835 1.25 8.54199C1.25 10.4255 1.25164 11.7752 1.38965 12.8018C1.52525 13.8103 1.78237 14.4132 2.22656 14.8574C2.67069 15.3014 3.27306 15.5588 4.28125 15.6943C5.30783 15.8324 6.65835 15.833 8.54199 15.833C10.4254 15.833 11.7752 15.8323 12.8018 15.6943C13.8104 15.5587 14.4132 15.3016 14.8574 14.8574C15.3016 14.4132 15.5587 13.8104 15.6943 12.8018C15.8323 11.7752 15.833 10.4254 15.833 8.54199C15.833 6.65835 15.8324 5.30783 15.6943 4.28125C15.5588 3.27306 15.3014 2.67069 14.8574 2.22656C14.4132 1.78237 13.8103 1.52525 12.8018 1.38965C11.7752 1.25164 10.4255 1.25 8.54199 1.25ZM11.042 4.56348C11.3979 4.56367 11.6875 4.85397 11.6875 5.20996V10.5488C11.8492 10.3407 12.0146 10.1062 12.1562 9.87305C12.3418 9.56842 12.7393 9.47281 13.0439 9.6582C13.3486 9.84374 13.4452 10.2412 13.2598 10.5459C12.8097 11.2844 11.9234 12.5221 11.042 12.5225V12.5215C10.1592 12.5215 9.27242 11.2835 8.82227 10.5449C8.63669 10.2402 8.73339 9.8428 9.03809 9.65723C9.34277 9.47175 9.74023 9.56839 9.92578 9.87305C10.0686 10.1061 10.2339 10.3418 10.3955 10.5498V5.20996C10.3955 4.85385 10.6859 4.56348 11.042 4.56348ZM6.04102 4.56348C6.93373 4.56348 7.80986 5.80272 8.25879 6.54004C8.4443 6.84463 8.34839 7.24207 8.04395 7.42773C7.73925 7.61331 7.34085 7.51661 7.15527 7.21191C7.01237 6.97879 6.8482 6.74418 6.68652 6.53613V11.875C6.68652 12.2311 6.39713 12.5215 6.04102 12.5215C5.68493 12.5215 5.39551 12.2311 5.39551 11.875V6.53125C5.23375 6.7394 5.06943 6.97548 4.92773 7.20996C4.74335 7.51449 4.34564 7.61299 4.04102 7.42871C3.73661 7.24444 3.6374 6.8488 3.82129 6.54297C4.26642 5.80443 5.14825 4.56353 6.04102 4.56348Z" fill="#161616"/>
</svg>
