<svg width="48" height="48" viewBox="0 0 48 48" fill="none" xmlns="http://www.w3.org/2000/svg">
<path d="M0 24C0 10.7452 10.7452 0 24 0C37.2548 0 48 10.7452 48 24C48 37.2548 37.2548 48 24 48C10.7452 48 0 37.2548 0 24Z" fill="#F9F6EB"/>
<path d="M24 16.25C26.5705 16.25 28.7739 17.3814 30.4795 18.7129C32.1865 20.0456 33.4484 21.6196 34.1543 22.6094C34.1718 22.6339 34.19 22.6586 34.208 22.6836C34.4612 23.0357 34.75 23.4378 34.75 24C34.75 24.5622 34.4612 24.9643 34.208 25.3164C34.19 25.3414 34.1718 25.3661 34.1543 25.3906C33.4484 26.3804 32.1865 27.9544 30.4795 29.2871C28.7739 30.6186 26.5705 31.75 24 31.75C21.4295 31.75 19.2261 30.6186 17.5205 29.2871C15.8135 27.9544 14.5516 26.3804 13.8457 25.3906C13.8282 25.3661 13.81 25.3414 13.792 25.3164C13.5388 24.9643 13.25 24.5622 13.25 24C13.25 23.4378 13.5388 23.0357 13.792 22.6836C13.81 22.6586 13.8282 22.6339 13.8457 22.6094C14.5516 21.6196 15.8135 20.0456 17.5205 18.7129C19.2261 17.3814 21.4295 16.25 24 16.25ZM24 17.75C21.8813 17.75 19.9959 18.6835 18.4434 19.8955C16.8924 21.1063 15.7266 22.5547 15.0664 23.4805C14.9032 23.7093 14.8256 23.8212 14.7793 23.9102C14.7498 23.9667 14.7499 23.9829 14.75 23.998V24.002C14.7499 24.0171 14.7498 24.0333 14.7793 24.0898C14.8256 24.1788 14.9032 24.2907 15.0664 24.5195C15.7266 25.4453 16.8924 26.8937 18.4434 28.1045C19.9959 29.3165 21.8813 30.25 24 30.25C26.1187 30.25 28.0041 29.3165 29.5566 28.1045C31.1076 26.8937 32.2734 25.4453 32.9336 24.5195C33.0968 24.2907 33.1744 24.1788 33.2207 24.0898C33.2502 24.0333 33.2501 24.0171 33.25 24.002V23.998C33.2501 23.9829 33.2502 23.9667 33.2207 23.9102C33.1744 23.8212 33.0968 23.7093 32.9336 23.4805C32.2734 22.5547 31.1076 21.1063 29.5566 19.8955C28.0041 18.6835 26.1187 17.75 24 17.75ZM24 20.25C26.0711 20.25 27.75 21.9289 27.75 24C27.75 26.0711 26.0711 27.75 24 27.75C21.9289 27.75 20.25 26.0711 20.25 24C20.25 21.9289 21.9289 20.25 24 20.25ZM24 21.75C22.7574 21.75 21.75 22.7574 21.75 24C21.75 25.2426 22.7574 26.25 24 26.25C25.2426 26.25 26.25 25.2426 26.25 24C26.25 22.7574 25.2426 21.75 24 21.75Z" fill="#B54708"/>
</svg>
