<svg width="108" height="108" viewBox="0 0 108 108" fill="none" xmlns="http://www.w3.org/2000/svg">
<path d="M41.3004 35.6072C42.5372 32.0912 44.9786 29.1263 48.192 27.2377C51.4054 25.3492 55.1835 24.6588 58.8572 25.2889C62.5308 25.9191 65.8629 27.829 68.2633 30.6805C70.6637 33.5319 71.9774 37.1409 71.9719 40.8682C71.9719 51.3902 56.1889 56.6512 56.1889 56.6512M56.6098 77.6951H56.6624M35.0398 93.478C45.0808 98.6288 56.6313 100.024 67.6099 97.4121C78.5886 94.8002 88.2733 88.353 94.919 79.2322C101.565 70.1115 104.734 58.9171 103.857 47.6663C102.979 36.4154 98.1115 25.848 90.1318 17.8682C82.152 9.88849 71.5846 5.02121 60.3337 4.1435C49.0829 3.26578 37.8885 6.43534 28.7678 13.081C19.647 19.7267 13.1998 29.4114 10.5879 40.3901C7.97601 51.3687 9.37116 62.9192 14.522 72.9602L4 104L35.0398 93.478Z" stroke="url(#paint0_linear_6608_54235)" stroke-width="8" stroke-linecap="round" stroke-linejoin="round"/>
<path d="M41.3004 35.6072C42.5372 32.0912 44.9786 29.1263 48.192 27.2377C51.4054 25.3492 55.1835 24.6588 58.8572 25.2889C62.5308 25.9191 65.8629 27.829 68.2633 30.6805C70.6637 33.5319 71.9774 37.1409 71.9719 40.8682C71.9719 51.3902 56.1889 56.6512 56.1889 56.6512M56.6098 77.6951H56.6624M35.0398 93.478C45.0808 98.6288 56.6313 100.024 67.6099 97.4121C78.5886 94.8002 88.2733 88.353 94.919 79.2322C101.565 70.1115 104.734 58.9171 103.857 47.6663C102.979 36.4154 98.1115 25.848 90.1318 17.8682C82.152 9.88849 71.5846 5.02121 60.3337 4.1435C49.0829 3.26578 37.8885 6.43534 28.7678 13.081C19.647 19.7267 13.1998 29.4114 10.5879 40.3901C7.97601 51.3687 9.37116 62.9192 14.522 72.9602L4 104L35.0398 93.478Z" stroke="url(#paint1_linear_6608_54235)" stroke-width="8" stroke-linecap="round" stroke-linejoin="round"/>
<defs>
<linearGradient id="paint0_linear_6608_54235" x1="-18.1295" y1="54" x2="110.933" y2="30.5561" gradientUnits="userSpaceOnUse">
<stop stop-color="#00A2A0"/>
<stop offset="1" stop-color="#00365D"/>
</linearGradient>
<linearGradient id="paint1_linear_6608_54235" x1="4" y1="104" x2="93.6427" y2="22.29" gradientUnits="userSpaceOnUse">
<stop stop-color="#3BBEBB"/>
<stop offset="1" stop-color="#73C6A7"/>
</linearGradient>
</defs>
</svg>
