<svg width="17" height="17" viewBox="0 0 17 17" fill="none" xmlns="http://www.w3.org/2000/svg">
<path d="M6.01465 9.34277C6.2589 9.09904 6.65458 9.09959 6.89844 9.34375C7.14235 9.58799 7.1417 9.98362 6.89746 10.2275L2.14844 14.9707C2.43102 14.9912 2.74846 14.9976 3.06738 14.9951C3.49925 14.9918 3.91716 14.9721 4.22852 14.9531C4.38378 14.9437 4.51204 14.9346 4.60059 14.9277C4.64468 14.9243 4.67909 14.9219 4.70215 14.9199L4.72852 14.917H4.73633C5.08 14.8863 5.38322 15.1397 5.41406 15.4834C5.44491 15.8272 5.19142 16.1312 4.84766 16.1621H4.84473L4.83691 16.1631L4.80664 16.165C4.7811 16.1672 4.74415 16.1702 4.69727 16.1738C4.60296 16.1811 4.46765 16.1912 4.30469 16.2012C3.97972 16.221 3.53828 16.2416 3.07715 16.2451C2.61964 16.2486 2.12442 16.2354 1.69922 16.1826C1.48721 16.1563 1.27438 16.1185 1.08496 16.0605C0.910777 16.0073 0.682878 15.9152 0.506836 15.7393C0.330859 15.5633 0.238861 15.3353 0.185547 15.1611C0.127604 14.9717 0.0898095 14.7589 0.0634766 14.5469C0.0106608 14.1216 -0.00253967 13.6265 0.000976562 13.1689C0.00452671 12.7076 0.0251132 12.2655 0.0449219 11.9404C0.054843 11.7777 0.0649915 11.643 0.0722656 11.5488C0.075884 11.502 0.0789112 11.465 0.0810547 11.4395L0.0830078 11.4092L0.0839844 11.4014V11.3984C0.114836 11.0546 0.418899 10.8012 0.762695 10.832C1.10628 10.863 1.35973 11.1662 1.3291 11.5098V11.5117L1.32812 11.5176L1.32617 11.5439C1.32424 11.567 1.32176 11.6015 1.31836 11.6455C1.31153 11.734 1.30242 11.8616 1.29297 12.0166C1.27399 12.328 1.2543 12.7466 1.25098 13.1787C1.24858 13.4903 1.25402 13.8005 1.27344 14.0781L6.01465 9.34277ZM9.35449 9.34375C9.59834 9.09959 9.99403 9.09908 10.2383 9.34277L14.9795 14.0781C14.9989 13.8005 15.0043 13.4903 15.002 13.1787C14.9986 12.7466 14.9789 12.328 14.96 12.0166C14.9505 11.8616 14.9414 11.734 14.9346 11.6455C14.9312 11.6015 14.9287 11.567 14.9268 11.5439L14.9248 11.5176L14.9238 11.5117V11.5098C14.8932 11.1662 15.1467 10.863 15.4902 10.832C15.834 10.8012 16.1381 11.0546 16.1689 11.3984V11.4014L16.1699 11.4092L16.1719 11.4395C16.174 11.465 16.177 11.502 16.1807 11.5488C16.1879 11.643 16.1981 11.7777 16.208 11.9404C16.2278 12.2655 16.2484 12.7076 16.252 13.1689C16.2555 13.6265 16.2423 14.1216 16.1895 14.5469C16.1631 14.7589 16.1253 14.9717 16.0674 15.1611C16.0141 15.3353 15.9221 15.5633 15.7461 15.7393C15.57 15.9152 15.3421 16.0073 15.168 16.0605C14.9786 16.1185 14.7657 16.1563 14.5537 16.1826C14.1285 16.2354 13.6333 16.2486 13.1758 16.2451C12.7146 16.2416 12.2732 16.221 11.9482 16.2012C11.7853 16.1912 11.65 16.1811 11.5557 16.1738C11.5088 16.1702 11.4718 16.1672 11.4463 16.165L11.417 16.1631L11.4082 16.1621H11.4053C11.0616 16.1312 10.808 15.8271 10.8389 15.4834C10.8697 15.1397 11.173 14.8864 11.5166 14.917H11.5244L11.5508 14.9199C11.5738 14.9219 11.6082 14.9243 11.6523 14.9277C11.7409 14.9346 11.8691 14.9437 12.0244 14.9531C12.3358 14.9721 12.7537 14.9918 13.1855 14.9951C13.5045 14.9976 13.8219 14.9912 14.1045 14.9707L9.35547 10.2275C9.11124 9.98363 9.1106 9.58799 9.35449 9.34375ZM3.07715 0.000976562C3.53829 0.00452315 3.97972 0.0251273 4.30469 0.0449219C4.46765 0.0548499 4.60296 0.0649864 4.69727 0.0722656C4.74415 0.0758858 4.7811 0.0789137 4.80664 0.0810547L4.83691 0.0830078L4.84473 0.0839844H4.84766C5.19141 0.114871 5.44491 0.418926 5.41406 0.762695C5.38314 1.1063 5.07994 1.35976 4.73633 1.3291H4.73438L4.72852 1.32812L4.70215 1.32617C4.67909 1.32424 4.64468 1.32176 4.60059 1.31836C4.51204 1.31152 4.38379 1.30243 4.22852 1.29297C3.91716 1.27401 3.49925 1.25429 3.06738 1.25098C2.74846 1.24853 2.43102 1.25487 2.14844 1.27539L6.89746 6.01855C7.1417 6.26247 7.14235 6.65811 6.89844 6.90234C6.65451 7.14648 6.25885 7.14623 6.01465 6.90234L1.27344 2.16797C1.25402 2.44558 1.24858 2.7558 1.25098 3.06738C1.2543 3.49925 1.274 3.91716 1.29297 4.22852C1.30243 4.38378 1.31152 4.51204 1.31836 4.60059C1.32176 4.64468 1.32424 4.67909 1.32617 4.70215L1.32812 4.72852L1.3291 4.73438V4.73535C1.35991 5.07907 1.10639 5.38314 0.762695 5.41406C0.418899 5.44491 0.114836 5.19145 0.0839844 4.84766V4.84473L0.0830078 4.83691L0.0810547 4.80664C0.0789129 4.78109 0.0758862 4.74415 0.0722656 4.69727C0.0649847 4.60296 0.0548527 4.46765 0.0449219 4.30469C0.0251219 3.97971 0.00452932 3.53828 0.000976562 3.07715C-0.00253925 2.61962 0.0106783 2.12444 0.0634766 1.69922C0.0898094 1.48721 0.127604 1.27438 0.185547 1.08496C0.238854 0.910753 0.330806 0.682864 0.506836 0.506836C0.682874 0.330811 0.910755 0.238851 1.08496 0.185547C1.27438 0.127604 1.48721 0.0898117 1.69922 0.0634766C2.12443 0.0106777 2.61963 -0.00253224 3.07715 0.000976562ZM13.1758 0.000976562C13.6333 -0.00253202 14.1285 0.0106859 14.5537 0.0634766C14.7657 0.0898117 14.9786 0.127604 15.168 0.185547C15.3422 0.238844 15.57 0.330812 15.7461 0.506836C15.9221 0.682856 16.0141 0.910756 16.0674 1.08496C16.1253 1.27438 16.1631 1.48721 16.1895 1.69922C16.2423 2.12444 16.2555 2.61962 16.252 3.07715C16.2484 3.53828 16.2278 3.97971 16.208 4.30469C16.1981 4.46765 16.1879 4.60296 16.1807 4.69727C16.177 4.74415 16.174 4.7811 16.1719 4.80664L16.1699 4.83691L16.1689 4.84473V4.84766C16.1381 5.19145 15.834 5.44491 15.4902 5.41406C15.1466 5.3831 14.893 5.07904 14.9238 4.73535V4.73438L14.9248 4.72852L14.9268 4.70215C14.9287 4.67909 14.9312 4.64468 14.9346 4.60059C14.9414 4.51204 14.9505 4.38379 14.96 4.22852C14.9789 3.91716 14.9986 3.49925 15.002 3.06738C15.0043 2.7558 14.9989 2.44558 14.9795 2.16797L10.2383 6.90234C9.99406 7.14624 9.59841 7.14652 9.35449 6.90234C9.11057 6.65811 9.11123 6.26247 9.35547 6.01855L14.1045 1.27539C13.8219 1.25487 13.5045 1.24853 13.1855 1.25098C12.7537 1.2543 12.3358 1.27401 12.0244 1.29297C11.8691 1.30243 11.7409 1.31152 11.6523 1.31836C11.6082 1.32177 11.5738 1.32424 11.5508 1.32617L11.5244 1.32812L11.5186 1.3291H11.5166C11.173 1.35971 10.8698 1.10627 10.8389 0.762695C10.808 0.418952 11.0616 0.114911 11.4053 0.0839844H11.4082L11.417 0.0830078L11.4463 0.0810547C11.4718 0.0789145 11.5088 0.0758868 11.5557 0.0722656C11.65 0.0649864 11.7853 0.0548499 11.9482 0.0449219C12.2732 0.025127 12.7146 0.00452526 13.1758 0.000976562Z" fill="white"/>
</svg>
