<svg width="20" height="20" viewBox="0 0 20 20" fill="none" xmlns="http://www.w3.org/2000/svg">
<path d="M3.91406 1.87646C4.28119 1.8713 4.79014 1.88136 5.35254 1.94385C6.44213 2.06497 7.88364 2.39704 8.82715 3.34033C10.0485 4.56177 10.1081 6.50343 9.00781 7.79639C9.04371 7.85158 9.08663 7.91376 9.12988 7.98584C9.30183 8.27245 9.5255 8.69275 9.74707 9.24658C9.92832 9.69969 10.1048 10.2426 10.2539 10.8726C10.3422 10.7169 10.4312 10.5704 10.5215 10.4351C10.8064 10.0076 11.092 9.67843 11.3086 9.45459C11.3778 9.38305 11.4417 9.32338 11.4951 9.27295C10.78 8.14775 10.9118 6.63977 11.8936 5.65771C12.725 4.82634 13.9875 4.53835 14.9258 4.43408C15.4122 4.38004 15.8517 4.37201 16.1689 4.37646C16.3281 4.37871 16.4584 4.38399 16.5498 4.38916C16.5954 4.39174 16.6317 4.39409 16.6572 4.396L16.6875 4.39893H16.6963L16.6992 4.3999H16.7002L16.8096 4.41943C17.0568 4.48741 17.2425 4.70261 17.2666 4.96533V4.96729L17.2676 4.97021V4.979L17.2705 5.00928C17.2724 5.03482 17.2748 5.07108 17.2773 5.1167C17.2825 5.20811 17.2878 5.33842 17.29 5.49756C17.2945 5.81487 17.2865 6.25425 17.2324 6.74072C17.1282 7.67897 16.8402 8.94156 16.0088 9.77295C15.0215 10.7599 13.5021 10.8887 12.375 10.1606C12.3308 10.2017 12.2731 10.2555 12.207 10.3237C12.033 10.5035 11.7974 10.7746 11.5615 11.1284C11.1652 11.7229 10.7743 12.5424 10.6592 13.562C13.5631 13.7374 16.1538 15.0624 17.9648 17.0825C18.1951 17.3395 18.1739 17.7349 17.917 17.9653C17.66 18.1957 17.2646 18.1744 17.0342 17.9175C15.3166 16.0014 12.8033 14.7916 10 14.7915C7.19654 14.7915 4.68247 16.0014 2.96484 17.9175C2.73448 18.1741 2.33994 18.1954 2.08301 17.9653C1.82598 17.7349 1.80378 17.3395 2.03418 17.0825C3.8494 15.0576 6.44821 13.7315 9.36035 13.561C9.29005 11.8663 8.93494 10.5839 8.58594 9.71143C8.39107 9.2243 8.19809 8.86356 8.05762 8.62939C8.04779 8.61302 8.03664 8.59765 8.02734 8.58252C6.78606 9.23314 5.21717 9.03772 4.17383 7.99463C3.23019 7.05099 2.89746 5.60879 2.77637 4.51904C2.71389 3.9567 2.70382 3.44865 2.70898 3.08154C2.71158 2.89753 2.71865 2.74744 2.72461 2.64209C2.72759 2.5894 2.73024 2.54729 2.73242 2.51807L2.73535 2.48389L2.73633 2.47412V2.46924L2.75586 2.35986C2.82398 2.11262 3.03991 1.92679 3.30273 1.90283H3.30664L3.31738 1.90186L3.35156 1.89893C3.3807 1.89675 3.42223 1.89408 3.47461 1.89111C3.57988 1.88516 3.73022 1.87906 3.91406 1.87646ZM16.041 5.62549C15.774 5.62504 15.4333 5.63629 15.0645 5.67725C14.185 5.77496 13.2924 6.02649 12.7773 6.5415C12.1294 7.18982 12.1292 8.24098 12.7773 8.88916C13.4255 9.53727 14.4767 9.53711 15.125 8.88916C15.64 8.37413 15.8915 7.4815 15.9893 6.60205C16.0302 6.23323 16.0415 5.89248 16.041 5.62549ZM3.95898 3.12549C3.95521 3.45302 3.96569 3.89676 4.01953 4.38135C4.13411 5.41218 4.43046 6.48368 5.05762 7.11084C5.85457 7.90749 7.14641 7.90751 7.94336 7.11084C8.74032 6.31384 8.7403 5.02114 7.94336 4.22412C7.3161 3.59709 6.24463 3.30058 5.21387 3.18604C4.72949 3.13223 4.28644 3.12173 3.95898 3.12549Z" fill="#161616"/>
</svg>
