<svg width="180" height="54" viewBox="0 0 180 54" fill="none" xmlns="http://www.w3.org/2000/svg">
<g clip-path="url(#clip0_6837_50772)">
<path d="M173.33 53.334H6.67041C3.00381 53.334 0.00390625 50.3341 0.00390625 46.6675V6.66845C0.00390625 3.00185 3.00381 0.00195312 6.67041 0.00195312H173.33C176.997 0.00195312 179.997 3.00185 179.997 6.66845V46.6675C179.997 50.3341 176.997 53.334 173.33 53.334Z" fill="#100F0D"/>
<path d="M173.33 0.00195312H6.67041C3.00381 0.00195312 0.00390625 3.00185 0.00390625 6.66845V46.6675C0.00390625 50.3341 3.00381 53.334 6.67041 53.334H173.33C176.997 53.334 179.997 50.3341 179.997 46.6675V6.66845C179.997 3.00185 176.997 0.00195312 173.33 0.00195312ZM173.33 1.06805C176.418 1.06805 178.93 3.58055 178.93 6.66845V46.6675C178.93 49.7554 176.418 52.2679 173.33 52.2679H6.67041C3.58251 52.2679 1.07111 49.7554 1.07111 46.6675V6.66845C1.07111 3.58055 3.58251 1.06805 6.67041 1.06805H173.33Z" fill="#A2A2A1"/>
<path d="M142.579 40.0008H145.067V23.3318H142.579V40.0008ZM164.988 29.3368L162.136 36.5632H162.051L159.091 29.3368H156.411L160.851 39.4368L158.319 45.0553H160.914L167.755 29.3373L164.988 29.3368ZM150.878 38.1074C150.065 38.1074 148.928 37.6995 148.928 36.6918C148.928 35.4053 150.344 34.9121 151.565 34.9121C152.658 34.9121 153.174 35.1475 153.838 35.4694C153.645 37.0136 152.316 38.1074 150.878 38.1074ZM151.18 28.9722C149.378 28.9722 147.513 29.7659 146.741 31.5243L148.949 32.4461C149.421 31.5243 150.3 31.2243 151.222 31.2243C152.509 31.2243 153.817 31.9956 153.838 33.3685V33.5398C153.387 33.2825 152.422 32.8967 151.244 32.8967C148.862 32.8967 146.44 34.2044 146.44 36.6491C146.44 38.8793 148.392 40.3162 150.578 40.3162C152.25 40.3162 153.174 39.5656 153.751 38.6861H153.838V39.9735H156.241V33.5825C156.241 30.6232 154.03 28.9722 151.18 28.9722ZM135.804 31.3659H132.265V25.6526H135.804C137.664 25.6526 138.719 27.1922 138.719 28.5092C138.719 29.8009 137.663 31.3659 135.804 31.3659ZM135.74 23.3322H129.778V40.0012H132.265V33.6863H135.74C138.497 33.6863 141.208 31.6905 141.208 28.5098C141.208 25.3297 138.497 23.3322 135.74 23.3322ZM103.233 38.1102C101.514 38.1102 100.075 36.6706 100.075 34.6952C100.075 32.6968 101.514 31.2369 103.233 31.2369C104.929 31.2369 106.261 32.6969 106.261 34.6952C106.261 36.6706 104.929 38.1102 103.233 38.1102ZM106.089 30.2699H106.003C105.445 29.6041 104.37 29.0027 103.018 29.0027C100.182 29.0027 97.5832 31.4948 97.5832 34.6952C97.5832 37.8738 100.182 40.344 103.018 40.344C104.37 40.344 105.445 39.7424 106.003 39.0555H106.089V39.871C106.089 42.0413 104.929 43.2006 103.061 43.2006C101.536 43.2006 100.591 42.1053 100.204 41.1818L98.0349 42.0839C98.6572 43.5869 100.311 45.4349 103.061 45.4349C105.983 45.4349 108.453 43.7161 108.453 39.5272V29.3462H106.089L106.089 30.2699ZM110.171 40.0003H112.662V23.3313H110.171V40.0003ZM116.335 34.5015C116.271 32.3104 118.033 31.1937 119.3 31.1937C120.288 31.1937 121.125 31.6879 121.406 32.3963L116.335 34.5015ZM124.068 32.6109C123.596 31.3443 122.157 29.0027 119.214 29.0027C116.292 29.0027 113.865 31.301 113.865 34.6734C113.865 37.8525 116.271 40.3441 119.493 40.3441C122.092 40.3441 123.596 38.7551 124.219 37.8311L122.286 36.5421C121.641 37.4874 120.761 38.1103 119.493 38.1103C118.226 38.1103 117.323 37.5301 116.744 36.3917L124.326 33.2558L124.068 32.6109ZM63.6591 30.7427V33.1484H69.4156C69.2437 34.5016 68.7926 35.4895 68.1052 36.177C67.2672 37.0144 65.9569 37.9384 63.659 37.9384C60.1147 37.9384 57.344 35.0817 57.344 31.5375C57.344 27.9933 60.1147 25.1362 63.659 25.1362C65.5708 25.1362 66.9667 25.8881 67.9978 26.8548L69.6952 25.1575C68.2556 23.783 66.3442 22.7305 63.659 22.7305C58.8038 22.7305 54.7227 26.6829 54.7227 31.5375C54.7227 36.3916 58.8038 40.3441 63.659 40.3441C66.2792 40.3441 68.2557 39.4847 69.802 37.8739C71.3916 36.2843 71.8858 34.0505 71.8858 32.2459C71.8858 31.688 71.8424 31.1725 71.7566 30.7427H63.6591ZM78.4311 38.1102C76.7123 38.1102 75.2301 36.6925 75.2301 34.6734C75.2301 32.6328 76.7123 31.237 78.4311 31.237C80.1492 31.237 81.6314 32.6328 81.6314 34.6734C81.6314 36.6925 80.1492 38.1102 78.4311 38.1102ZM78.4311 29.0027C75.2941 29.0027 72.7384 31.3869 72.7384 34.6734C72.7384 37.9384 75.2941 40.3441 78.4311 40.3441C81.5669 40.3441 84.1231 37.9384 84.1231 34.6734C84.1231 31.3869 81.5669 29.0027 78.4311 29.0027ZM90.8481 38.1102C89.1305 38.1102 87.6478 36.6925 87.6478 34.6734C87.6478 32.6328 89.1306 31.237 90.8481 31.237C92.5669 31.237 94.0486 32.6328 94.0486 34.6734C94.0486 36.6925 92.5669 38.1102 90.8481 38.1102ZM90.8481 29.0027C87.7123 29.0027 85.1566 31.3869 85.1566 34.6734C85.1566 37.9384 87.7123 40.3441 90.8481 40.3441C93.9851 40.3441 96.5408 37.9384 96.5408 34.6734C96.5408 31.3869 93.9851 29.0027 90.8481 29.0027Z" fill="white"/>
<path d="M27.6217 25.8986L13.4277 40.9646C13.4283 40.9677 13.4293 40.9703 13.4298 40.9735C13.8652 42.6095 15.3594 43.8141 17.1328 43.8141C17.8418 43.8141 18.5073 43.6225 19.0781 43.286L19.1235 43.2594L35.1015 34.0394L27.6217 25.8986Z" fill="#EB3131"/>
<path d="M41.9823 23.3345L41.9687 23.3252L35.0705 19.3262L27.2988 26.2418L35.0975 34.0395L41.9593 30.0803C43.1623 29.4308 43.979 28.1626 43.979 26.7001C43.979 25.2481 43.1734 23.9861 41.9823 23.3345Z" fill="#F6B60B"/>
<path d="M13.4251 12.3691C13.3398 12.6838 13.2949 13.0134 13.2949 13.3557V39.9787C13.2949 40.3203 13.3392 40.651 13.4256 40.9645L28.1096 26.2835L13.4251 12.3691Z" fill="#5778C5"/>
<path d="M27.7278 26.668L35.0751 19.3229L19.1151 10.0695C18.5349 9.72201 17.8579 9.52148 17.1334 9.52148C15.36 9.52148 13.8637 10.7283 13.4283 12.3662C13.4277 12.3678 13.4277 12.3689 13.4277 12.3703L27.7278 26.668Z" fill="#3BAD49"/>
<path d="M63.193 13.0412H59.3035V14.0037H62.2181C62.1389 14.7891 61.8263 15.4058 61.2993 15.8537C60.7722 16.3017 60.0993 16.5266 59.3035 16.5266C58.4306 16.5266 57.691 16.2225 57.0849 15.6184C56.491 15.0017 56.189 14.2392 56.189 13.3205C56.189 12.4018 56.491 11.6393 57.0849 11.0227C57.691 10.4185 58.4306 10.1164 59.3035 10.1164C59.7515 10.1164 60.1785 10.1935 60.5701 10.3623C60.9618 10.5309 61.2763 10.7664 61.5222 11.0685L62.2618 10.3289C61.9263 9.94763 61.5014 9.65603 60.9742 9.44351C60.4471 9.23098 59.8972 9.12898 59.3034 9.12898C58.1389 9.12898 57.1515 9.5331 56.3452 10.3394C55.5389 11.1476 55.1348 12.1435 55.1348 13.3205C55.1348 14.4975 55.5389 15.4955 56.3452 16.3018C57.1514 17.1079 58.1389 17.5122 59.3034 17.5122C60.5263 17.5122 61.5013 17.1205 62.2513 16.3246C62.9116 15.6622 63.2491 14.7664 63.2491 13.6456C63.2491 13.456 63.2263 13.2537 63.193 13.0412ZM64.6998 9.30797V17.3329H69.385V16.3474H65.731V13.8017H69.0268V12.8392H65.731V10.2955H69.385V9.30794L64.6998 9.30797ZM75.9548 10.2955V9.30797H70.4403V10.2955H72.682V17.3328H73.7132V10.2955H75.9548ZM80.9473 9.30797H79.9161V17.3329H80.9473V9.30797ZM87.7539 10.2955V9.30797H82.2395V10.2955H84.481V17.3328H85.5122V10.2955H87.7539ZM98.1599 10.3518C97.364 9.53304 96.3891 9.12891 95.2245 9.12891C94.0579 9.12891 93.083 9.53303 92.2871 10.3393C91.4912 11.1352 91.0997 12.133 91.0997 13.3204C91.0997 14.5078 91.4912 15.5058 92.2871 16.3017C93.0829 17.1078 94.0579 17.5121 95.2245 17.5121C96.3786 17.5121 97.364 17.1078 98.1599 16.3017C98.9557 15.5059 99.3473 14.5079 99.3473 13.3204C99.3473 12.1434 98.9557 11.1475 98.1599 10.3518ZM93.0267 11.0226C93.6204 10.4185 94.3496 10.1163 95.2245 10.1163C96.0974 10.1163 96.8265 10.4185 97.4099 11.0226C98.0036 11.6163 98.2952 12.3912 98.2952 13.3204C98.2952 14.2517 98.0036 15.0245 97.4099 15.6183C96.8265 16.2224 96.0974 16.5265 95.2245 16.5265C94.3495 16.5265 93.6204 16.2224 93.0267 15.6183C92.4453 15.012 92.1537 14.2517 92.1537 13.3204C92.1537 12.3912 92.4453 11.6288 93.0267 11.0226ZM101.797 12.3351L101.754 10.7871H101.797L105.876 17.3328H106.953V9.30789H105.922V14.0036L105.966 15.5516H105.922L102.022 9.30789H100.766V17.3328H101.797V12.3351Z" fill="white" stroke="white" stroke-width="0.26666" stroke-miterlimit="10"/>
</g>
<defs>
<clipPath id="clip0_6837_50772">
<rect width="180" height="53.333" fill="white"/>
</clipPath>
</defs>
</svg>
