<svg width="20" height="20" viewBox="0 0 20 20" fill="none" xmlns="http://www.w3.org/2000/svg">
<path d="M9.25272 1.51415C9.5584 0.894783 10.4416 0.894783 10.7473 1.51415L12.745 5.56205C12.8664 5.808 13.1011 5.97847 13.3725 6.01791L17.8396 6.66702C18.5231 6.76635 18.796 7.60632 18.3014 8.08844L15.069 11.2393C14.8726 11.4307 14.783 11.7066 14.8293 11.9769L15.5924 16.426C15.7092 17.1067 14.9946 17.6258 14.3833 17.3044L10.3878 15.2039C10.145 15.0762 9.85499 15.0762 9.61222 15.2039L5.61671 17.3044C5.00535 17.6258 4.29082 17.1067 4.40758 16.426L5.17066 11.9769C5.21702 11.7066 5.1274 11.4307 4.93099 11.2393L1.69856 8.08844C1.20396 7.60632 1.47689 6.76635 2.1604 6.66702L6.62752 6.01791C6.89894 5.97847 7.13358 5.808 7.25497 5.56205L9.25272 1.51415Z" fill="#E5E7EB"/>
</svg>
