<svg width="18" height="18" viewBox="0 0 18 18" fill="none" xmlns="http://www.w3.org/2000/svg">
<path fill-rule="evenodd" clip-rule="evenodd" d="M8.95833 0C8.49083 0 8.11001 0.19667 7.76335 0.46167C7.43835 0.70917 7.08001 1.06749 6.66085 1.48665L6.63167 1.51583C6.20251 1.945 5.82833 2.11332 5.25167 2.11332C5.17917 2.11332 5.08832 2.11082 4.98498 2.10832C4.72082 2.10082 4.37916 2.09083 4.08 2.11666C3.6425 2.15499 3.09583 2.27417 2.68083 2.6925C2.26916 3.10834 2.15251 3.6525 2.11584 4.08667C2.09084 4.38334 2.10082 4.72249 2.10832 4.98498C2.11082 5.08832 2.11332 5.17917 2.11332 5.25167C2.11332 5.82833 1.945 6.20251 1.51583 6.63167L1.48665 6.66085C1.06749 7.08001 0.70917 7.43835 0.46167 7.76335C0.19667 8.11001 0 8.49083 0 8.95833C0 9.42583 0.19667 9.80665 0.46167 10.1533C0.70917 10.4783 1.06749 10.8367 1.48665 11.2558L1.51583 11.285C1.79416 11.5633 1.92502 11.7433 1.99919 11.9133C2.07169 12.0792 2.11332 12.2892 2.11332 12.665C2.11332 12.7375 2.11082 12.8283 2.10832 12.9317C2.10082 13.1958 2.09083 13.5375 2.11666 13.8367C2.15499 14.2742 2.27417 14.8208 2.6925 15.2358C3.10834 15.6475 3.6525 15.7642 4.08667 15.8008C4.38334 15.8258 4.72249 15.8158 4.98498 15.8083C5.08832 15.8058 5.17917 15.8033 5.25167 15.8033C5.61917 15.8033 5.82582 15.84 5.98832 15.9075C6.15082 15.9742 6.325 16.0942 6.58667 16.3558C6.6425 16.4117 6.71668 16.4909 6.80168 16.5825C6.99334 16.7875 7.24252 17.0542 7.47502 17.2583C7.82835 17.5667 8.335 17.9167 8.95833 17.9167C9.58167 17.9167 10.0883 17.5667 10.4416 17.2583C10.6741 17.0542 10.9233 16.7875 11.115 16.5825C11.2 16.4909 11.2742 16.4117 11.33 16.3558C11.5917 16.0942 11.7658 15.9742 11.9283 15.9075C12.0908 15.84 12.2975 15.8033 12.665 15.8033C12.7375 15.8033 12.8283 15.8058 12.9317 15.8083C13.1942 15.8158 13.5333 15.8258 13.83 15.8008C14.2642 15.7642 14.8083 15.6475 15.2242 15.2358C15.6425 14.8208 15.7617 14.2742 15.8 13.8367C15.8258 13.5375 15.8158 13.1958 15.8083 12.9317C15.8058 12.8283 15.8033 12.7367 15.8033 12.665C15.8033 12.2892 15.845 12.0792 15.9175 11.9133C15.9916 11.7433 16.1225 11.5633 16.4008 11.285L16.43 11.2558C16.8492 10.8367 17.2075 10.4783 17.455 10.1533C17.72 9.80665 17.9167 9.42583 17.9167 8.95833C17.9167 8.49083 17.72 8.11001 17.455 7.76335C17.2075 7.43835 16.8492 7.08001 16.43 6.66085L16.4008 6.63167C16.1225 6.35334 15.9916 6.17334 15.9175 6.00334C15.845 5.8375 15.8033 5.6275 15.8033 5.25167C15.8033 5.17917 15.8058 5.08834 15.8083 4.98584C15.8158 4.72084 15.8258 4.37916 15.8 4.08C15.7617 3.6425 15.6425 3.09583 15.2242 2.68083C14.8083 2.26916 14.2642 2.15251 13.83 2.11584C13.5333 2.09084 13.1942 2.10082 12.9317 2.10832C12.8283 2.11082 12.7367 2.11332 12.665 2.11332C12.0875 2.11332 11.7142 1.945 11.285 1.51583L11.2558 1.48665C10.8367 1.06749 10.4783 0.70917 10.1533 0.46167C9.80665 0.19667 9.42583 0 8.95833 0ZM11.8433 7.61418C12.2517 7.40168 12.41 6.89832 12.1975 6.48999C11.985 6.08166 11.4817 5.92332 11.0733 6.13582C9.88332 6.75582 8.9125 7.94248 8.27083 8.87748C8.09 9.14165 7.93 9.39418 7.79167 9.62252C7.6975 9.54252 7.60583 9.47082 7.5225 9.40832C7.3425 9.27249 7.18165 9.16665 7.06331 9.09249L6.8575 8.97082H6.85583C6.45167 8.75082 5.94583 8.90001 5.72583 9.30501C5.50666 9.70918 5.65666 10.215 6.06083 10.435C6.18083 10.5109 6.44002 10.6775 6.52002 10.7392C6.79752 10.9483 7.08081 11.2117 7.25248 11.485C7.41415 11.7417 7.70249 11.8909 8.00582 11.8742C8.30832 11.8567 8.57833 11.6758 8.71 11.4025C8.7525 11.3167 8.86085 11.1042 8.95251 10.9425C9.11501 10.65 9.35167 10.25 9.64583 9.81999C10.2542 8.93332 11.0333 8.03584 11.8433 7.61418Z" fill="#3F866C"/>
</svg>
