<svg width="20" height="23" viewBox="0 0 20 23" fill="none" xmlns="http://www.w3.org/2000/svg">
<g clip-path="url(#clip0_5091_53402)">
<path d="M12.4469 19.8023C12.09 20.5936 11.8541 21.4524 11.7637 22.353L19.3163 20.7475C19.6732 19.9563 19.9089 19.0974 19.9995 18.1968L12.4469 19.8023Z" fill="#007A8C"/>
<path d="M19.3168 15.9375C19.6737 15.1463 19.9096 14.2874 20 13.3868L14.1167 14.638V12.2326L19.3166 11.1276C19.6735 10.3364 19.9094 9.47747 19.9998 8.57687L14.1166 9.82707V1.17654C13.2151 1.68271 12.4145 2.35647 11.7637 3.15121V10.3274L9.41075 10.8275V0C8.50926 0.505987 7.70865 1.17992 7.05784 1.97466V11.3274L1.79319 12.4461C1.4363 13.2373 1.20021 14.0963 1.10965 14.9969L7.05784 13.7328V16.762L0.683189 18.1166C0.326294 18.9078 0.0903802 19.7668 0 20.6674L6.67248 19.2494C7.21565 19.1364 7.68249 18.8153 7.98602 18.3733L9.20971 16.5591V16.5588C9.33674 16.3711 9.41075 16.1448 9.41075 15.901V13.2327L11.7637 12.7326V17.5434L19.3166 15.9372L19.3168 15.9375Z" fill="#007A8C"/>
</g>
<defs>
<clipPath id="clip0_5091_53402">
<rect width="20" height="22.3529" fill="white"/>
</clipPath>
</defs>
</svg>
