<svg width="24" height="24" viewBox="0 0 24 24" fill="none" xmlns="http://www.w3.org/2000/svg">
<path d="M3 2.25C3.41421 2.25 3.75 2.58579 3.75 3V14C3.75 15.6709 3.75128 16.8488 3.87109 17.7402C3.96493 18.4382 4.1256 18.8865 4.36523 19.2178C4.66289 17.5398 5.29292 15.0801 6.14941 12.9219C6.63898 11.6882 7.22004 10.5103 7.88086 9.62695C8.51501 8.77932 9.36545 8.01488 10.4277 8.01465C11.1899 8.01465 11.761 8.41222 12.1787 8.85449C12.5785 9.27774 12.9134 9.82256 13.1973 10.2852L13.2109 10.3076C13.5192 10.81 13.7744 11.2227 14.0508 11.5195C14.3167 11.8051 14.5128 11.8857 14.6865 11.8857C15.0778 11.8857 15.4533 11.6459 15.8721 10.9141C16.2728 10.2137 16.5923 9.26991 16.9482 8.21777C16.964 8.17108 16.9801 8.12426 16.9961 8.07715C17.3555 7.01592 17.758 5.84811 18.3223 4.9502C18.8959 4.03741 19.7375 3.25001 21 3.25C21.4142 3.25 21.75 3.58579 21.75 4C21.75 4.41421 21.4142 4.75 21 4.75C20.4767 4.75001 20.0366 5.04195 19.5928 5.74805C19.1395 6.46923 18.7887 7.46107 18.417 8.55859C18.3948 8.62426 18.3721 8.69038 18.3496 8.75684C18.0132 9.7528 17.6507 10.8262 17.1748 11.6582C16.6674 12.5451 15.8984 13.3857 14.6865 13.3857C13.9283 13.3857 13.3631 12.9822 12.9531 12.542C12.5665 12.1269 12.2394 11.5934 11.96 11.1377C11.9506 11.1225 11.9419 11.1068 11.9326 11.0918C11.6256 10.5915 11.368 10.1794 11.0889 9.88379C10.8211 9.60028 10.6165 9.51465 10.4277 9.51465C10.1144 9.5149 9.65362 9.76004 9.08105 10.5254C8.53484 11.2556 8.01247 12.295 7.54395 13.4756C6.62218 15.7984 5.9741 18.5037 5.75293 20.0371C5.906 20.0715 6.07394 20.1039 6.25977 20.1289C7.15123 20.2487 8.32908 20.25 10 20.25H21C21.4142 20.25 21.75 20.5858 21.75 21C21.75 21.4142 21.4142 21.75 21 21.75H9.94434C8.34174 21.75 7.06266 21.7501 6.05957 21.6152C5.02332 21.4759 4.17025 21.18 3.49512 20.5049C2.81999 19.8298 2.52409 18.9767 2.38477 17.9404C2.2499 16.9373 2.24998 15.6583 2.25 14.0557V3C2.25 2.58579 2.58579 2.25 3 2.25Z" fill="#007A8C"/>
</svg>
