<svg width="20" height="20" viewBox="0 0 20 20" fill="none" xmlns="http://www.w3.org/2000/svg">
<path fill-rule="evenodd" clip-rule="evenodd" d="M9.85417 19.7083C4.41192 19.7083 0 15.2964 0 9.85417C0 4.41192 4.41192 0 9.85417 0C15.2964 0 19.7083 4.41192 19.7083 9.85417C19.7083 15.2964 15.2964 19.7083 9.85417 19.7083ZM12.8306 6.1316L8.43609 10.9257L6.82183 9.31151L5.52475 10.6077L8.49383 13.5767L14.1827 7.37093L12.8306 6.1316Z" fill="#56A7B3"/>
<path fill-rule="evenodd" clip-rule="evenodd" d="M9.85417 19.7083C4.41192 19.7083 0 15.2964 0 9.85417C0 4.41192 4.41192 0 9.85417 0C15.2964 0 19.7083 4.41192 19.7083 9.85417C19.7083 15.2964 15.2964 19.7083 9.85417 19.7083ZM12.8306 6.1316L8.43609 10.9257L6.82183 9.31151L5.52475 10.6077L8.49383 13.5767L14.1827 7.37093L12.8306 6.1316Z" fill="url(#paint0_linear_7008_12939)"/>
<defs>
<linearGradient id="paint0_linear_7008_12939" x1="0" y1="9.85417" x2="19.7083" y2="9.85417" gradientUnits="userSpaceOnUse">
<stop stop-color="#3BBEBB"/>
<stop offset="1" stop-color="#73C6A7"/>
</linearGradient>
</defs>
</svg>
