<svg width="20" height="20" viewBox="0 0 20 20" fill="none" xmlns="http://www.w3.org/2000/svg">
<path d="M8.875 1.0415C9.96833 1.0415 10.8584 1.88234 10.8584 2.9165C10.8584 3.49138 10.5827 4.00691 10.1504 4.35107C10.8787 5.74094 11.4091 6.90636 11.7607 8.16455C11.7957 8.28783 11.8331 8.4155 11.8623 8.55127C11.9348 8.88877 11.7193 9.22193 11.3818 9.29443C11.0444 9.36594 10.7121 9.15138 10.6396 8.81396C10.6188 8.71899 10.5894 8.6166 10.5586 8.5083C10.2228 7.30497 9.69777 6.17122 8.96777 4.78955C8.93696 4.79121 8.90581 4.7915 8.875 4.7915C8.53015 4.79133 8.25 4.5114 8.25 4.1665C8.25 3.82161 8.53015 3.54168 8.875 3.5415C8.94982 3.5415 9.02166 3.53158 9.08984 3.51416C9.11222 3.50587 9.13597 3.4985 9.15918 3.49268C9.42335 3.39768 9.6084 3.17484 9.6084 2.9165C9.6084 2.57234 9.27917 2.2915 8.875 2.2915L4.375 2.2915C3.97098 2.29165 3.6416 2.57243 3.6416 2.9165C3.6416 3.1698 3.81927 3.38846 4.07422 3.48682C4.0991 3.49345 4.12438 3.50114 4.14844 3.51025C4.22001 3.53023 4.29595 3.54147 4.375 3.5415C4.72 3.5415 5 3.8215 5 4.1665C5 4.5115 4.72 4.7915 4.375 4.7915C4.33443 4.7915 4.29463 4.79105 4.25488 4.78857C2.97998 7.21425 2.29204 9.05641 2.29199 11.4829L2.29199 14.9995C2.29199 16.2745 2.4322 16.9242 2.77637 17.2417C3.13561 17.5732 3.85986 17.7085 5.27539 17.7085L8.69238 17.7085C9.0372 17.7087 9.31738 17.9886 9.31738 18.3335C9.31721 18.6782 9.03709 18.9583 8.69238 18.9585L5.27539 18.9585C3.78539 18.9585 2.64621 18.8222 1.92871 18.1597C1.19291 17.4805 1.04199 16.4045 1.04199 14.9995L1.04199 11.4829C1.04204 8.61387 1.93997 6.50608 3.0791 4.33447C2.65851 3.99031 2.3916 3.48215 2.3916 2.9165C2.3916 1.88244 3.28182 1.04167 4.375 1.0415L8.875 1.0415ZM16.4424 7.7085C16.7872 7.70872 17.0674 7.98863 17.0674 8.3335C17.0672 8.67821 16.7871 8.95828 16.4424 8.9585C15.7024 8.9585 15.222 9.49076 14.9795 10.0933C15.2003 10.0474 15.4395 10.0161 15.6836 10.0161C16.4585 10.0161 17.2978 10.5029 17.9277 11.3169C18.5927 12.176 18.9589 13.3005 18.959 14.4829C18.959 17.2471 16.4712 18.9585 14.167 18.9585C11.8628 18.9585 9.375 17.2471 9.375 14.4829C9.37505 13.3005 9.7413 12.1752 10.4062 11.3169C11.0362 10.5029 11.8755 10.0161 12.6504 10.0161C13.0068 10.0161 13.3533 10.082 13.6465 10.1636C13.9624 8.86703 14.9733 7.7085 16.4424 7.7085ZM15.6836 11.2661C15.122 11.2661 14.5224 11.5472 14.4541 11.5806C14.3683 11.6246 14.271 11.6509 14.167 11.6509C14.0629 11.6509 13.9665 11.6255 13.8799 11.5806C13.8107 11.5472 13.212 11.2661 12.6504 11.2661C11.9629 11.2661 10.6251 12.4014 10.625 14.4829C10.625 16.5646 12.4637 17.7085 14.167 17.7085C15.8703 17.7085 17.709 16.4754 17.709 14.4829C17.7089 12.4906 16.3711 11.2661 15.6836 11.2661Z" fill="#161616"/>
</svg>
