<svg width="17" height="12" viewBox="0 0 17 12" fill="none" xmlns="http://www.w3.org/2000/svg">
<path d="M5.10132 7.69434C6.90958 6.57642 9.2032 6.57646 11.0115 7.69434C11.0648 7.72731 11.1331 7.76709 11.2107 7.8125C11.5619 8.01802 12.1194 8.34481 12.4998 8.73145C12.7386 8.97427 12.9768 9.30521 13.0203 9.71777C13.0667 10.1594 12.8788 10.5681 12.5212 10.9219C11.9306 11.5062 11.1993 11.9979 10.24 11.998H5.8728C4.91354 11.9979 4.1822 11.5062 3.59155 10.9219C3.23396 10.5681 3.04604 10.1594 3.09253 9.71777C3.136 9.30524 3.37422 8.97427 3.61304 8.73145C3.99348 8.34473 4.55186 8.01802 4.90308 7.8125C4.98049 7.7672 5.0481 7.72724 5.10132 7.69434ZM10.4714 8.56934C8.99453 7.6561 7.11931 7.65626 5.64233 8.56934C5.55367 8.62416 5.4582 8.68044 5.36011 8.73828C5.0092 8.94519 4.61945 9.17467 4.34644 9.45215C4.17872 9.62263 4.12332 9.7473 4.11499 9.8252C4.10983 9.87423 4.11244 9.99179 4.31421 10.1914C4.81632 10.6882 5.30204 10.9696 5.8728 10.9697H10.24C10.8108 10.9696 11.2965 10.6882 11.7986 10.1914C12.0004 9.99179 12.003 9.87423 11.9978 9.8252C11.9895 9.7473 11.9341 9.62262 11.7664 9.45215C11.4933 9.1747 11.1036 8.94518 10.7527 8.73828C10.6547 8.68051 10.56 8.6241 10.4714 8.56934ZM3.21069 6.17285C3.49353 6.14726 3.7437 6.35584 3.76929 6.63867C3.79469 6.92138 3.5862 7.17169 3.30347 7.19727C2.86447 7.23699 2.42209 7.40609 2.01733 7.71777C1.95219 7.76793 1.88435 7.81804 1.81616 7.86816C1.58345 8.03921 1.34438 8.21545 1.17358 8.43164C1.07213 8.56007 1.03579 8.65647 1.03003 8.72461C1.02565 8.77659 1.03312 8.86828 1.15112 9.01367C1.49063 9.43189 1.76695 9.59861 2.04077 9.59863C2.32462 9.59863 2.55519 9.82852 2.55542 10.1123C2.55542 10.3963 2.32476 10.627 2.04077 10.627C1.28725 10.6269 0.746411 10.1467 0.352295 9.66113C0.0949317 9.34395 -0.0256355 8.99588 0.00463867 8.6377C0.03359 8.29577 0.194311 8.01127 0.365967 7.79395C0.634646 7.45383 1.03372 7.16409 1.26733 6.99414C1.3165 6.95837 1.3586 6.92779 1.39038 6.90332C1.94178 6.47871 2.56727 6.23108 3.21069 6.17285ZM12.9021 6.17285C13.5455 6.23109 14.171 6.47873 14.7224 6.90332C14.7542 6.92778 14.7963 6.95839 14.8455 6.99414C15.0791 7.16409 15.4782 7.45385 15.7468 7.79395C15.9185 8.01127 16.0792 8.29578 16.1082 8.6377C16.1384 8.99587 16.0178 9.34395 15.7605 9.66113C15.3664 10.1467 14.8255 10.6269 14.072 10.627C13.788 10.627 13.5574 10.3963 13.5574 10.1123C13.5576 9.82852 13.7882 9.59863 14.072 9.59863C14.3458 9.59859 14.6222 9.43188 14.9617 9.01367C15.0797 8.86829 15.0871 8.77659 15.0828 8.72461C15.077 8.65647 15.0407 8.56007 14.9392 8.43164C14.7684 8.21545 14.5293 8.03921 14.2966 7.86816C14.2285 7.81805 14.1606 7.76793 14.0955 7.71777C13.6907 7.4061 13.2483 7.23699 12.8093 7.19727C12.5266 7.17169 12.3181 6.92138 12.3435 6.63867C12.3691 6.35584 12.6193 6.14726 12.9021 6.17285ZM3.60034 1.37109C3.88414 1.37132 4.11401 1.60189 4.11401 1.88574C4.11384 2.16945 3.88403 2.39919 3.60034 2.39941C2.9377 2.39941 2.40015 2.93697 2.40015 3.59961C2.40023 4.26218 2.93776 4.79883 3.60034 4.79883C3.88414 4.79905 4.11401 5.02963 4.11401 5.31348C4.11401 5.59732 3.88414 5.8279 3.60034 5.82812C2.36978 5.82812 1.37191 4.83015 1.37183 3.59961C1.37183 2.36899 2.36972 1.37109 3.60034 1.37109ZM8.0564 0C9.66565 2.28064e-05 10.9705 1.30481 10.9705 2.91406C10.9703 4.52322 9.66557 5.8281 8.0564 5.82812C6.4472 5.82812 5.14245 4.52323 5.14233 2.91406C5.14233 1.30479 6.44713 0 8.0564 0ZM12.1697 1.37109C13.4003 1.37109 14.3982 2.36899 14.3982 3.59961C14.3981 4.83015 13.4002 5.82812 12.1697 5.82812C11.8858 5.82795 11.656 5.59735 11.656 5.31348C11.656 5.0296 11.8858 4.79901 12.1697 4.79883C12.8323 4.79883 13.3698 4.26218 13.3699 3.59961C13.3699 2.93697 12.8323 2.39941 12.1697 2.39941C11.8859 2.39924 11.6562 2.16947 11.656 1.88574C11.656 1.60186 11.8858 1.37127 12.1697 1.37109ZM8.0564 1.02832C7.0151 1.02832 6.17065 1.87277 6.17065 2.91406C6.17078 3.95525 7.01518 4.79883 8.0564 4.79883C9.09759 4.79881 9.94202 3.95524 9.94214 2.91406C9.94214 1.87278 9.09767 1.02834 8.0564 1.02832Z" fill="#161616"/>
</svg>
