<svg width="33" height="33" viewBox="0 0 33 33" fill="none" xmlns="http://www.w3.org/2000/svg">
<path d="M0 3.27463C0 1.4661 1.4661 0 3.27463 0H29.6346C31.4431 0 32.9092 1.4661 32.9092 3.27463V29.6346C32.9092 31.4431 31.4431 32.9092 29.6346 32.9092H3.27463C1.4661 32.9092 0 31.4431 0 29.6346V3.27463Z" fill="#F3F4F6"/>
<path fill-rule="evenodd" clip-rule="evenodd" d="M9.99232 9.34284C12.4449 7.83845 14.645 8.43801 15.9742 9.43618C16.1928 9.60039 16.3429 9.71277 16.4546 9.78867C16.5664 9.71277 16.7164 9.60039 16.9351 9.43618C18.2642 8.43801 20.4644 7.83845 22.917 9.34284C24.6128 10.3831 25.567 12.556 25.2322 15.0526C24.8957 17.5612 23.272 20.3985 19.8333 22.9437C19.8046 22.965 19.776 22.9861 19.7477 23.0071C18.5536 23.8914 17.7628 24.4771 16.4546 24.4771C15.1464 24.4771 14.3556 23.8914 13.1615 23.0071C13.1332 22.9861 13.1047 22.965 13.076 22.9437C9.63726 20.3985 8.01353 17.5612 7.67708 15.0526C7.34224 12.556 8.29647 10.3831 9.99232 9.34284ZM16.3257 9.86818C16.323 9.86938 16.3235 9.86899 16.3268 9.86765C16.3264 9.86785 16.326 9.86803 16.3257 9.86818ZM16.5824 9.86765C16.5858 9.86898 16.5862 9.86938 16.5836 9.86818C16.5833 9.86803 16.5829 9.86785 16.5824 9.86765ZM15.2331 10.423C14.2487 9.68372 12.5976 9.19253 10.6376 10.3948C9.43794 11.1307 8.61683 12.7755 8.90022 14.8885C9.182 16.9895 10.5701 19.5536 13.8102 21.9517C15.1119 22.9152 15.587 23.243 16.4546 23.243C17.3223 23.243 17.7974 22.9152 19.0991 21.9517C22.3392 19.5536 23.7273 16.9895 24.009 14.8885C24.2924 12.7755 23.4713 11.1307 22.2717 10.3948C20.3117 9.19253 18.6606 9.68372 17.6762 10.423L17.659 10.4359C17.4365 10.603 17.2454 10.7465 17.0926 10.8466C17.0131 10.8986 16.9252 10.9515 16.8339 10.9928C16.7472 11.0319 16.6141 11.0809 16.4546 11.0809C16.2952 11.0809 16.1621 11.0319 16.0754 10.9928C15.9841 10.9515 15.8961 10.8986 15.8167 10.8466C15.6638 10.7465 15.4727 10.603 15.2503 10.4359L15.2331 10.423Z" fill="#161616"/>
</svg>
