<svg width="20" height="20" viewBox="0 0 20 20" fill="none" xmlns="http://www.w3.org/2000/svg">
<path d="M10.417 1.0415C6.19014 1.0415 2.70828 4.30651 2.70801 8.3999C2.70801 10.7434 3.70209 12.5635 5.58887 14.1372C6.78566 15.1354 8.25682 16.8162 9.13281 18.1685C9.41599 18.6056 9.84912 18.9585 10.4053 18.9585C10.9548 18.9583 11.3916 18.6127 11.6885 18.1851C12.6249 16.8364 14.055 15.129 15.2441 14.1372C17.131 12.5634 18.125 10.7435 18.125 8.3999C18.1247 4.30662 14.6437 1.04167 10.417 1.0415ZM10.417 2.2915C14.0137 2.29167 16.8747 5.0558 16.875 8.3999C16.875 10.3094 16.0981 11.7972 14.4434 13.1772C13.1362 14.2674 11.6334 16.0734 10.6621 17.4722C10.5807 17.5894 10.5105 17.652 10.4639 17.6821C10.4414 17.6966 10.4256 17.7028 10.417 17.7056C10.4101 17.7078 10.4063 17.7085 10.4053 17.7085C10.4051 17.7085 10.4027 17.7082 10.3975 17.7065C10.3915 17.7046 10.3784 17.6996 10.3594 17.687C10.3198 17.6607 10.2562 17.6032 10.1826 17.4897C9.24281 16.0388 7.68908 14.261 6.38965 13.1772C4.73508 11.7972 3.95801 10.3093 3.95801 8.3999C3.95828 5.0557 6.82015 2.2915 10.417 2.2915ZM8.75 5.2085C8.40482 5.2085 8.125 5.48832 8.125 5.8335L8.125 10.8335C8.12518 11.1785 8.40493 11.4585 8.75 11.4585C9.09507 11.4585 9.37482 11.1785 9.375 10.8335V8.9585H11.458V10.8335C11.4582 11.1784 11.7381 11.4583 12.083 11.4585C12.4281 11.4585 12.7078 11.1785 12.708 10.8335L12.708 5.8335C12.708 5.48832 12.4282 5.2085 12.083 5.2085C11.738 5.20867 11.458 5.48843 11.458 5.8335L11.458 7.7085L9.375 7.7085V5.8335C9.375 5.48832 9.09518 5.2085 8.75 5.2085Z" fill="#161616"/>
</svg>
