<svg width="22" height="22" viewBox="0 0 22 22" fill="none" xmlns="http://www.w3.org/2000/svg">
<path d="M11.3711 1.06055L10.7139 1.71777C11.7529 2.53077 13.7803 4.16901 15.4443 5.83301C17.107 7.49574 18.7435 9.52145 19.5576 10.5615L20.2158 9.9043L21.2773 10.9648L14.1807 18.0605L13.1201 17L13.7793 16.3408C13.1604 15.8564 12.1929 15.0791 11.1602 14.1797L4.28027 21.0605C4.13433 21.2065 3.94289 21.2812 3.75098 21.2812H3.75C3.558 21.2812 3.36573 21.2075 3.21973 21.0605L0.219727 18.0605C-0.073038 17.7675 -0.0731846 17.2929 0.219727 17L7.09863 10.1201C6.19764 9.08572 5.41946 8.11658 4.93457 7.49707L4.27539 8.15625L3.21484 7.09473L10.3096 0L11.3711 1.06055ZM1.81055 17.5312L3.75 19.4697L10.043 13.1758C9.70587 12.8635 9.37055 12.5463 9.05078 12.2266C8.73145 11.9074 8.41432 11.5737 8.10254 11.2373L1.81055 17.5312ZM6.00586 6.42773H6.00488C6.75088 7.38573 8.44331 9.49802 10.1123 11.166C11.7803 12.8349 13.8897 14.5255 14.8486 15.2725L18.4902 11.6309C17.7432 10.6719 16.0528 8.56155 14.3848 6.89355C12.7148 5.22364 10.6035 3.53305 9.64551 2.78809L6.00586 6.42773Z" fill="#007A8C"/>
</svg>
