<svg width="32" height="29" viewBox="0 0 32 29" fill="none" xmlns="http://www.w3.org/2000/svg">
<path opacity="0.4" d="M10.251 4.37521C10.5598 4.37521 10.7147 4.37459 10.8018 4.2756C10.8885 4.17659 10.8684 4.02297 10.8291 3.71701L10.793 3.43478C10.6638 2.42861 10.4446 1.41617 9.68557 0.752166C8.92915 0.0906268 7.89338 0.000212727 6.86233 0.000212727C5.83128 0.000227985 4.79546 0.0905219 4.03909 0.752166C3.2801 1.41617 3.06082 2.42865 2.93166 3.43478L2.89553 3.71701C2.85622 4.02319 2.83696 4.17659 2.92385 4.2756C3.01096 4.37461 3.16572 4.37521 3.47463 4.37521L10.251 4.37521ZM28.8506 28.4377C29.1496 28.4378 29.4732 28.4382 29.7461 28.4016C30.0659 28.3586 30.4745 28.2473 30.8184 27.9035C31.1623 27.5597 31.2734 27.1511 31.3164 26.8313C31.3529 26.5596 31.3526 25.9422 31.3526 25.9358L31.3526 6.92697C31.3524 6.50269 31.1069 6.1167 30.7227 5.93674C30.3384 5.75684 29.8846 5.81548 29.5586 6.08713L23.5625 11.0793C23.1491 11.4235 22.9423 11.5954 22.7744 11.5168C22.6066 11.4382 22.606 11.169 22.6055 10.6311L22.6026 6.92697C22.6025 6.51867 22.3752 6.14429 22.0127 5.95627C21.6501 5.76831 21.2127 5.79813 20.8789 6.03342L14.2451 10.7121C14.1055 10.8106 14.0356 10.8598 14.003 10.9338C13.9703 11.008 13.9812 11.0932 14.003 11.2629L16.0137 26.926C16.0441 27.1627 16.0481 27.4003 16.0274 27.634C15.9911 28.0434 15.9729 28.2483 16.0596 28.343C16.1463 28.4377 16.3237 28.4377 16.6778 28.4377L28.8506 28.4377Z" fill="#007A8C"/>
<path d="M12.7603 28.4377C13.0746 28.4377 13.3739 28.3026 13.5815 28.0666C13.7892 27.8306 13.8852 27.5161 13.8452 27.2043L11.2603 7.07152C11.2291 6.82913 11.2139 6.70768 11.1313 6.63499C11.0488 6.56233 10.9264 6.56273 10.6821 6.56273L3.04443 6.56273C2.80028 6.56273 2.67783 6.56256 2.59521 6.63499C2.5126 6.70768 2.49646 6.82907 2.46533 7.07152L0.0844727 25.6174C0.0414677 25.9514 -0.00352396 26.3072 0.000488281 26.6086C0.00520985 26.959 0.0754371 27.4229 0.433105 27.8244C0.788977 28.2238 1.23991 28.3489 1.58447 28.3967C1.88357 28.4382 2.24333 28.4379 2.58447 28.4377L12.7603 28.4377ZM21.5103 19.6877C22.1142 19.6877 22.6039 19.1979 22.604 18.594C22.604 17.9899 22.1143 17.5003 21.5103 17.5002H20.0522C19.4482 17.5002 18.9585 17.9899 18.9585 18.594C18.9586 19.1979 19.4483 19.6877 20.0522 19.6877H21.5103ZM27.3433 19.6877C27.9472 19.6877 28.4369 19.1979 28.437 18.594C28.437 17.9899 27.9473 17.5002 27.3433 17.5002L25.8853 17.5002C25.2812 17.5002 24.7915 17.9899 24.7915 18.594C24.7916 19.1979 25.2813 19.6877 25.8853 19.6877L27.3433 19.6877Z" fill="#007A8C"/>
</svg>
