<svg width="48" height="48" viewBox="0 0 48 48" fill="none" xmlns="http://www.w3.org/2000/svg">
<path d="M0 24C0 10.7452 10.7452 0 24 0C37.2548 0 48 10.7452 48 24C48 37.2548 37.2548 48 24 48C10.7452 48 0 37.2548 0 24Z" fill="#EFF8FF"/>
<path d="M27.1025 30.2666C27.7104 30.2336 28.3267 30.2336 28.9336 30.2666C30.9694 30.3776 31.7006 31.9858 32.1836 33.0498C32.2146 33.1178 32.2454 33.184 32.2754 33.249H33.002C33.416 33.249 33.752 33.585 33.752 33.999C33.752 34.413 33.416 34.749 33.002 34.749H23.0039C22.59 34.749 22.2539 34.413 22.2539 33.999C22.2539 33.5851 22.59 33.2491 23.0039 33.249H23.7637C23.7937 33.185 23.8245 33.1178 23.8545 33.0508C24.3365 31.9869 25.0651 30.3778 27.1025 30.2666ZM28.8525 31.7646C28.2997 31.7337 27.7384 31.7337 27.1855 31.7646C26.2738 31.8148 25.8459 32.3742 25.418 33.249H30.6221C30.1941 32.374 29.7645 31.8136 28.8525 31.7646ZM21.4209 13.4707C21.7129 13.1777 22.1884 13.1767 22.4824 13.4697C22.7752 13.7627 22.7763 14.2364 22.4834 14.5303L22.4658 14.5479C23.3428 15.2399 24.9053 16.5185 26.1982 17.8145C27.49 19.1082 28.7621 20.6717 29.4531 21.5518L29.4697 21.5361C29.7627 21.2434 30.2364 21.2423 30.5303 21.5352C30.8233 21.8272 30.8242 22.3027 30.5312 22.5967L29.9287 23.2002C29.9238 23.2061 29.9171 23.2109 29.9121 23.2168L25.5791 27.5605C25.4333 27.7072 25.2406 27.7802 25.0488 27.7803L25.0469 27.7812C24.8551 27.7811 24.6644 27.7082 24.5176 27.5625C24.2246 27.2705 24.2236 26.795 24.5166 26.501L24.5352 26.4824C23.9639 26.0316 23.1021 25.3318 22.2129 24.541L17.6484 29.9111C17.1974 30.4411 16.5407 30.7611 15.8457 30.7881C15.8128 30.7891 15.7799 30.79 15.7471 30.79H15.7461C15.0873 30.79 14.4484 30.5263 13.9805 30.0586C13.4895 29.5657 13.224 28.8843 13.252 28.1904C13.28 27.4964 13.599 26.8387 14.127 26.3877L19.4883 21.8105C18.6976 20.918 17.9971 20.0531 17.5459 19.4785L17.5312 19.4932C17.2383 19.7861 16.7647 19.787 16.4707 19.4941C16.1777 19.2011 16.1767 18.7276 16.4697 18.4336L20.8027 14.0898C20.8046 14.088 20.8121 14.0805 20.8164 14.0762L21.4209 13.4707ZM15.1016 27.5293C14.8876 27.7122 14.762 27.9681 14.751 28.251C14.74 28.5339 14.8431 28.8 15.043 29C15.241 29.198 15.5041 29.303 15.7861 29.29C16.067 29.279 16.3219 29.1543 16.5049 28.9404L21.1123 23.5195C21.0082 23.4185 20.904 23.3183 20.8027 23.2168C20.7036 23.1173 20.6055 23.0153 20.5068 22.9131L15.1016 27.5293ZM31.3428 26.583C31.5418 26.22 31.9974 26.0862 32.3604 26.2852L34.3604 27.3789C34.7233 27.5779 34.8571 28.0335 34.6582 28.3965C34.5222 28.6455 34.265 28.7871 33.999 28.7871C33.8772 28.7871 33.7545 28.7563 33.6406 28.6943L31.6406 27.6006C31.2776 27.4016 31.1438 26.946 31.3428 26.583ZM18.6143 18.4092H18.6133C19.2503 19.2252 20.5653 20.8572 21.8633 22.1582C23.1613 23.4582 24.7875 24.7731 25.6025 25.4121L28.3857 22.623C27.7487 21.8071 26.4337 20.174 25.1367 18.874C23.8407 17.575 22.2135 16.2581 21.3975 15.6191L18.6143 18.4092ZM33.5244 21.4434C33.8444 21.1806 34.3171 21.228 34.5801 21.5479C34.843 21.8678 34.7964 22.3405 34.4766 22.6035L32.4766 24.2441C32.3376 24.3581 32.168 24.4141 32.001 24.4141H32C31.7831 24.414 31.5678 24.3195 31.4199 24.1396C31.1572 23.8197 31.2046 23.3469 31.5244 23.084L33.5244 21.4434Z" fill="#185CD4"/>
</svg>
