<svg width="18" height="18" viewBox="0 0 18 18" fill="none" xmlns="http://www.w3.org/2000/svg">
<path d="M8.58984 17.084C10.4153 17.084 11.8493 17.0841 12.9688 16.9336C14.1159 16.7794 15.0261 16.4564 15.7412 15.7412C16.4564 15.0261 16.7794 14.1159 16.9336 12.9688C17.0841 11.8493 17.084 10.4153 17.084 8.58984V8.49414C17.084 6.66865 17.0841 5.23471 16.9336 4.11523C16.7794 2.96804 16.4564 2.05793 15.7412 1.34277C15.0261 0.627621 14.1159 0.304632 12.9688 0.150391C11.8493 -0.000118256 10.4153 -1.14441e-05 8.58984 0H8.49414C6.66865 -1.14441e-05 5.23471 -0.000118256 4.11523 0.150391C2.96804 0.304632 2.05793 0.627619 1.34277 1.34277C0.627619 2.05793 0.304632 2.96804 0.150391 4.11523C-0.000118434 5.23471 -1.13241e-05 6.66865 0 8.49414L0 8.58984C-1.13241e-05 10.4153 -0.000118491 11.8493 0.150391 12.9688C0.304632 14.1159 0.62762 15.0261 1.34277 15.7412C2.05793 16.4564 2.96804 16.7794 4.11523 16.9336C5.23471 17.0841 6.66865 17.084 8.49414 17.084H8.58984ZM8.54199 15.834C6.65854 15.834 5.30877 15.8323 4.28223 15.6943C3.27362 15.5587 2.67077 15.3016 2.22656 14.8574C1.78236 14.4132 1.52525 13.8104 1.38965 12.8018C1.25167 11.7752 1.25 10.4254 1.25 8.54199C1.25 6.65854 1.25167 5.30877 1.38965 4.28223C1.52525 3.27362 1.78236 2.67077 2.22656 2.22656C2.67077 1.78236 3.27362 1.52525 4.28223 1.38965C5.30877 1.25167 6.65854 1.25 8.54199 1.25C10.4254 1.25 11.7752 1.25167 12.8018 1.38965C13.8104 1.52525 14.4132 1.78236 14.8574 2.22656C15.3016 2.67077 15.5587 3.27362 15.6943 4.28223C15.8323 5.30877 15.834 6.65854 15.834 8.54199C15.834 10.4254 15.8323 11.7752 15.6943 12.8018C15.5587 13.8104 15.3016 14.4132 14.8574 14.8574C14.4132 15.3016 13.8104 15.5587 12.8018 15.6943C11.7752 15.8323 10.4254 15.834 8.54199 15.834ZM4.38184 5.20898C4.84207 5.20898 5.21484 4.83524 5.21484 4.375C5.21467 3.91491 4.84196 3.54199 4.38184 3.54199H4.37402C3.91405 3.54217 3.54119 3.91502 3.54102 4.375C3.54102 4.83513 3.91394 5.20881 4.37402 5.20898H4.38184ZM4.375 13.334C4.72007 13.334 4.99982 13.054 5 12.709L5 6.875C4.99982 6.52997 4.72007 6.25 4.375 6.25C4.03008 6.25018 3.75018 6.53008 3.75 6.875L3.75 12.709C3.75018 13.0539 4.03008 13.3338 4.375 13.334ZM12.709 13.334C13.0539 13.3338 13.3338 13.0539 13.334 12.709L13.334 9.375C13.3338 7.64937 11.9346 6.25018 10.209 6.25C9.5056 6.25 8.85623 6.48281 8.33398 6.875C8.33381 6.53008 8.0539 6.25018 7.70898 6.25C7.36391 6.25 7.08416 6.52997 7.08398 6.875L7.08398 12.709C7.08416 13.054 7.36391 13.334 7.70898 13.334C8.0539 13.3338 8.33381 13.0539 8.33398 12.709L8.33398 9.375C8.33416 8.33962 9.17356 7.5 10.209 7.5C11.2443 7.50018 12.0838 8.33972 12.084 9.375L12.084 12.709C12.0842 13.054 12.3639 13.334 12.709 13.334Z" fill="white"/>
</svg>
