<svg width="18" height="20" viewBox="0 0 18 20" fill="none" xmlns="http://www.w3.org/2000/svg">
<path d="M6.5 0.0429077C6.8906 -0.0949509 7.31917 0.110316 7.45703 0.500916C7.59464 0.891283 7.3902 1.31897 7 1.45697L6.33691 1.69135C5.03156 2.15206 4.11152 2.47785 3.42188 2.81244C2.74935 3.13872 2.36452 3.44266 2.09668 3.82123C1.82902 4.19971 1.67073 4.6637 1.58691 5.40619C1.50098 6.16784 1.5 7.14416 1.5 8.52826V10.9726C1.5 12.3569 1.50093 13.333 1.58691 14.0947C1.67076 14.8373 1.82887 15.3011 2.09668 15.6796C2.3645 16.0582 2.74944 16.3612 3.42188 16.6874C4.11155 17.022 5.03146 17.3488 6.33691 17.8095L7 18.0429C7.39037 18.1809 7.59485 18.6095 7.45703 18.9999C7.31909 19.3904 6.89052 19.5948 6.5 19.457L5.7959 19.2089C4.54254 18.7666 3.54222 18.4128 2.76758 18.037C1.96705 17.6487 1.33887 17.2056 0.87207 16.5458C0.405366 15.8861 0.19648 15.1467 0.0966797 14.2626C0.000117168 13.4071 -1.21572e-05 12.3466 0 11.0175V8.48334C-1.21593e-05 7.15409 9.35793e-05 6.09283 0.0966797 5.23724C0.196501 4.3532 0.405312 3.61376 0.87207 2.95404C1.33887 2.29431 1.96709 1.8512 2.76758 1.46283C3.54219 1.08707 4.54265 0.734242 5.7959 0.291931L6.5 0.0429077ZM8.72754 6.71185C9.02458 6.42343 9.49947 6.43055 9.78809 6.72748C10.0765 7.02452 10.0694 7.49941 9.77246 7.78802C9.61091 7.94499 9.35389 8.14675 9.10938 8.33881C9.09062 8.35353 9.0717 8.36884 9.05273 8.38373C8.80701 8.57664 8.54356 8.78339 8.29492 8.99408C8.29263 8.99602 8.29037 8.998 8.28809 8.99994H16.75C17.1642 8.99994 17.5 9.33573 17.5 9.74994C17.5 10.1642 17.1642 10.4999 16.75 10.4999H8.28809C8.29037 10.5019 8.29263 10.5039 8.29492 10.5058C8.54356 10.7165 8.80701 10.9232 9.05273 11.1161C9.0717 11.131 9.09062 11.1463 9.10938 11.1611C9.35389 11.3531 9.61091 11.5549 9.77246 11.7119C10.0694 12.0005 10.0765 12.4754 9.78809 12.7724C9.49947 13.0693 9.02458 13.0764 8.72754 12.788C8.63628 12.6993 8.45404 12.553 8.18262 12.3398C8.16306 12.3244 8.14322 12.3087 8.12305 12.2929C7.88091 12.1028 7.59631 11.8801 7.3252 11.6503C7.03485 11.4043 6.73354 11.1287 6.49902 10.8535C6.38156 10.7155 6.26533 10.5597 6.17578 10.3925C6.08939 10.2311 6 10.0082 6 9.74994C6 9.49165 6.08939 9.2688 6.17578 9.10736C6.26533 8.94015 6.38156 8.78434 6.49902 8.64642C6.73354 8.37116 7.03485 8.09558 7.3252 7.84955C7.59632 7.61981 7.8809 7.39704 8.12305 7.20697C8.14322 7.19113 8.16306 7.17546 8.18262 7.1601C8.45404 6.9469 8.63628 6.80055 8.72754 6.71185Z" fill="#161616"/>
</svg>
