<svg width="18" height="18" viewBox="0 0 18 18" fill="none" xmlns="http://www.w3.org/2000/svg">
<path d="M8.125 0C12.6122 0.000176032 16.25 3.63779 16.25 8.125C16.2499 10.1435 15.5114 11.9883 14.293 13.4092L17.7334 16.8496C17.9773 17.0937 17.9774 17.4894 17.7334 17.7334C17.4894 17.9774 17.0937 17.9773 16.8496 17.7334L13.4092 14.293C11.9883 15.5114 10.1435 16.2499 8.125 16.25C3.63779 16.25 0.000176028 12.6122 0 8.125C0 3.63769 3.63769 0 8.125 0ZM8.125 1.25C4.32804 1.25 1.25 4.32804 1.25 8.125C1.25018 11.9218 4.32815 15 8.125 15C11.9217 14.9998 14.9998 11.9217 15 8.125C15 4.32815 11.9218 1.25018 8.125 1.25ZM8.125 4.58301C8.47003 4.58318 8.75 4.86294 8.75 5.20801V7.5H11.041C11.3862 7.5 11.666 7.77982 11.666 8.125C11.6658 8.47003 11.3861 8.75 11.041 8.75H8.75V11.041C8.75 11.3861 8.47003 11.6658 8.125 11.666C7.77982 11.666 7.5 11.3862 7.5 11.041V8.75H5.20801C4.86294 8.75 4.58318 8.47003 4.58301 8.125C4.58301 7.77982 4.86283 7.5 5.20801 7.5H7.5V5.20801C7.5 4.86283 7.77982 4.58301 8.125 4.58301Z" fill="white"/>
</svg>
