<svg width="18" height="16" viewBox="0 0 18 16" fill="none" xmlns="http://www.w3.org/2000/svg">
<path d="M6.52539 0.0302734C8.15293 -0.0106161 9.76504 -0.0106195 11.3926 0.0302734L11.4404 0.03125C12.7111 0.0631576 13.7343 0.0897128 14.5537 0.232422C15.4112 0.381825 16.1084 0.66784 16.6973 1.25879C17.2838 1.84752 17.5692 2.53506 17.7158 3.37891C17.8554 4.18252 17.877 5.18037 17.9033 6.41602L17.9043 6.46484C17.922 7.29513 17.922 8.12089 17.9043 8.95117L17.9033 9C17.877 10.2357 17.8554 11.2335 17.7158 12.0371C17.5692 12.881 17.2838 13.5684 16.6973 14.1572C16.1083 14.7483 15.4113 15.0352 14.5537 15.1846C13.7343 15.3273 12.7111 15.3529 11.4404 15.3848L11.3926 15.3857C9.76505 15.4266 8.15292 15.4266 6.52539 15.3857L6.47656 15.3848C5.20611 15.3529 4.18358 15.3273 3.36426 15.1846C2.50658 15.0352 1.80965 14.7482 1.2207 14.1572C0.634165 13.5685 0.348726 12.881 0.202148 12.0371C0.0625901 11.2335 0.0409797 10.2357 0.0146484 9L0.0136719 8.95117C-0.00403478 8.12088 -0.00403398 7.29513 0.0136719 6.46484L0.0146484 6.41602C0.0409777 5.18036 0.0625947 4.18253 0.202148 3.37891C0.348734 2.53507 0.634202 1.84752 1.2207 1.25879C1.80964 0.667819 2.50661 0.380824 3.36426 0.231445C4.18369 0.0887376 5.20685 0.0631548 6.47754 0.03125L6.52539 0.0302734ZM1.39355 3.85742C1.3069 4.51788 1.28796 5.35338 1.26367 6.49219C1.24635 7.30456 1.24635 8.11243 1.26367 8.9248C1.29131 10.2209 1.31211 11.1237 1.43359 11.8232C1.54988 12.4928 1.7497 12.9171 2.10547 13.2744C2.45902 13.6293 2.88949 13.833 3.5791 13.9531C4.29671 14.0781 5.22639 14.1023 6.55664 14.1357C8.16325 14.1761 9.75472 14.1761 11.3613 14.1357C12.6916 14.1023 13.6213 14.0781 14.3389 13.9531C15.0284 13.833 15.458 13.6293 15.8115 13.2744C16.1675 12.9171 16.368 12.493 16.4844 11.8232C16.6059 11.1237 16.6267 10.2209 16.6543 8.9248C16.6716 8.11243 16.6716 7.30456 16.6543 6.49219C16.63 5.35387 16.61 4.51872 16.5234 3.8584L11.8398 6.5127C10.7621 7.12334 9.88606 7.49707 8.95898 7.49707C8.0321 7.49696 7.15662 7.12321 6.0791 6.5127L1.39355 3.85742ZM11.3613 1.28027C9.75472 1.23991 8.16325 1.23991 6.55664 1.28027C5.2263 1.3137 4.29673 1.3389 3.5791 1.46387C2.88949 1.58397 2.45902 1.7867 2.10547 2.1416C1.96137 2.28629 1.84383 2.44256 1.74609 2.62109L6.69531 5.42578C7.74091 6.01819 8.37567 6.24697 8.95898 6.24707C9.54243 6.24707 10.1777 6.01838 11.2236 5.42578L16.1709 2.62109C16.0731 2.44259 15.9557 2.28628 15.8115 2.1416C15.458 1.7868 15.0283 1.58395 14.3389 1.46387C13.6213 1.33889 12.6916 1.3137 11.3613 1.28027Z" fill="white"/>
</svg>
