<svg width="20" height="20" viewBox="0 0 20 20" fill="none" xmlns="http://www.w3.org/2000/svg">
<path d="M15.417 10.625C17.362 10.625 18.959 12.176 18.959 14.1133C18.9589 15.239 18.3935 16.0519 17.8135 16.7012C17.723 16.8024 17.6268 16.9058 17.5293 17.0078L16.9453 17.6113C16.6699 17.9016 16.4365 18.1724 16.2598 18.4541C16.109 18.6944 15.8307 18.9609 15.4219 18.9609C15.02 18.9608 14.7415 18.702 14.5859 18.4707C14.3999 18.194 14.1591 17.9226 13.8789 17.6279C13.8052 17.5505 13.7273 17.4703 13.6475 17.3877C13.4368 17.1698 13.2119 16.9363 13.0068 16.7012C12.4312 16.0413 11.8761 15.2168 11.876 14.1133C11.876 12.1761 13.4721 10.6252 15.417 10.625ZM10.4053 1.04492C11.1497 1.05545 12.3405 1.05219 13.4326 1.04785C13.5773 1.04728 13.721 1.04648 13.8613 1.0459C14.7698 1.04212 15.5562 1.03894 15.8467 1.04492C16.3543 1.05541 16.7499 1.27548 17.0215 1.51074C17.287 1.7408 17.4615 2.00657 17.5498 2.1875C17.5555 2.19917 17.5605 2.21163 17.5654 2.22363C18.0544 3.40939 18.3991 4.3532 18.6221 5.08008C18.8393 5.78817 18.9589 6.34452 18.959 6.73145C18.959 6.77397 18.9549 6.81676 18.9463 6.8584C18.7783 7.67028 18.104 9.03012 16 9.60742C14.2316 10.0925 13.0377 9.44487 12.4033 8.91016C12.2631 9.01177 12.1095 9.11218 11.9453 9.20605C11.4167 9.50817 10.7329 9.76732 9.97168 9.75684C8.93868 9.74257 8.12664 9.34081 7.61328 8.94824C7.1357 9.34608 6.53198 9.65463 5.78809 9.75195C4.96107 9.86012 4.23315 9.73373 3.67188 9.54199C3.46052 9.46978 3.26792 9.38494 3.09766 9.29785V12.5C3.09766 13.6961 3.09897 14.5307 3.18359 15.1602C3.26581 15.7714 3.41686 16.0956 3.64746 16.3262C3.87807 16.5566 4.20234 16.7069 4.81348 16.7891C5.44283 16.8736 6.2769 16.875 7.47266 16.875H9.97266C10.3178 16.875 10.5977 17.1548 10.5977 17.5C10.5976 17.8451 10.3178 18.125 9.97266 18.125H7.42773C6.28807 18.125 5.36896 18.1245 4.64648 18.0273C3.89663 17.9265 3.26518 17.7113 2.76367 17.21C2.26208 16.7084 2.04616 16.0763 1.94531 15.3262C1.8482 14.6038 1.84764 13.6854 1.84766 12.5459V8.33301C1.84766 8.32713 1.84847 8.32127 1.84863 8.31543C1.83734 8.30358 1.82562 8.29217 1.81445 8.28027C1.57654 8.02664 1.28602 7.67727 1.15332 7.34766C1.07033 7.14136 1.0468 6.91808 1.04297 6.73145C1.03898 6.53677 1.05582 6.33542 1.08203 6.14844C1.13306 5.78453 1.22733 5.41954 1.31641 5.18164L1.88184 3.54102C1.88385 3.535 1.88559 3.52875 1.8877 3.52246C1.95751 3.31412 2.07772 2.95771 2.22266 2.6084C2.29775 2.42744 2.38327 2.23822 2.47754 2.06641C2.56766 1.90218 2.68492 1.71756 2.83105 1.57227C3.13276 1.27248 3.53729 1.15605 3.82324 1.10352C4.1264 1.04786 4.41123 1.04492 4.55859 1.04492H10.4053ZM15.417 11.875C14.1405 11.8752 13.126 12.8883 13.126 14.1133C13.1261 14.7607 13.4388 15.2959 13.9482 15.8799C14.131 16.0894 14.3216 16.2863 14.5234 16.4951C14.6084 16.583 14.6959 16.6728 14.7852 16.7666C14.9961 16.9885 15.2138 17.2263 15.4121 17.4814C15.6088 17.2167 15.826 16.9745 16.0381 16.751C16.1555 16.6272 16.2666 16.5132 16.374 16.4033C16.5495 16.2238 16.715 16.0548 16.8809 15.8691C17.3924 15.2966 17.7089 14.7756 17.709 14.1133C17.709 12.8882 16.6936 11.875 15.417 11.875ZM15.3975 13.333C15.8576 13.3332 16.2305 13.7069 16.2305 14.167C16.2302 14.6269 15.8574 14.9998 15.3975 15H15.3896C14.9296 15 14.5569 14.627 14.5566 14.167C14.5566 13.7068 14.9294 13.333 15.3896 13.333H15.3975ZM9.13965 13.542C9.48483 13.542 9.76465 13.8218 9.76465 14.167C9.76441 14.512 9.48468 14.792 9.13965 14.792H5.80664C5.46161 14.792 5.18188 14.512 5.18164 14.167C5.18164 13.8218 5.46146 13.542 5.80664 13.542H9.13965ZM4.55859 2.29492C4.42803 2.29492 4.23612 2.2986 4.04883 2.33301C3.84428 2.37059 3.74378 2.4273 3.71191 2.45898C3.69123 2.47959 3.64219 2.54231 3.57324 2.66797C3.50843 2.78612 3.44222 2.93059 3.37695 3.08789C3.24921 3.39578 3.14179 3.71642 3.07129 3.92676L3.06445 3.94629L2.49512 5.59766C2.49308 5.60356 2.4905 5.6094 2.48828 5.61523C2.43602 5.75297 2.36114 6.03106 2.32031 6.32227C2.30028 6.46524 2.29073 6.59707 2.29297 6.70605C2.29408 6.75991 2.29759 6.80273 2.30273 6.83496C2.30764 6.86571 2.31305 6.87966 2.31348 6.88086C2.35193 6.97613 2.49557 7.17958 2.72559 7.4248C2.94343 7.65705 3.16115 7.84618 3.26465 7.91797C3.29017 7.93569 3.31431 7.95525 3.33691 7.97656C3.39518 8.03152 3.65198 8.21346 4.07617 8.3584C4.48639 8.49853 5.0194 8.59203 5.62598 8.5127C6.8879 8.34761 7.61358 7.17788 7.81836 6.4375C7.91042 6.10496 8.25433 5.91006 8.58691 6.00195C8.91954 6.09395 9.11436 6.43788 9.02246 6.77051C8.92709 7.1153 8.73961 7.56448 8.44531 8.00977C8.7745 8.24188 9.30757 8.49742 9.98926 8.50684C10.4583 8.51321 10.9207 8.35135 11.3252 8.12012C11.7253 7.89136 12.029 7.61718 12.1748 7.45215C12.216 7.39989 12.4118 7.10475 12.6328 6.41406C12.738 6.08539 13.0893 5.90375 13.418 6.00879C13.7467 6.114 13.9285 6.46617 13.8232 6.79492C13.6406 7.36553 13.4522 7.76636 13.2939 8.02539C13.7281 8.3609 14.502 8.72244 15.6689 8.40234C17.1841 7.9867 17.5965 7.11052 17.707 6.6709C17.6942 6.46368 17.6192 6.0737 17.4268 5.44629C17.2204 4.77358 16.8941 3.87629 16.4189 2.72266C16.3879 2.66452 16.3138 2.55203 16.2031 2.45605C16.0887 2.35698 15.9632 2.29785 15.8213 2.29492C15.5481 2.28928 14.7805 2.29211 13.8643 2.2959C13.7252 2.29647 13.5822 2.29728 13.4375 2.29785C12.351 2.30217 11.15 2.30557 10.3916 2.29492H4.55859Z" fill="#161616"/>
</svg>
