<svg width="20" height="20" viewBox="0 0 20 20" fill="none" xmlns="http://www.w3.org/2000/svg">
<path d="M14.7842 18.9585C15.6423 18.9585 16.3491 18.9584 16.9033 18.8843C17.4819 18.8069 18.0003 18.6368 18.3994 18.2134C18.8024 17.7857 18.931 17.2612 18.9541 16.688C18.9759 16.146 18.9053 15.4665 18.8203 14.6509L17.9219 6.02783C18.3058 5.50768 18.5117 4.99477 18.5391 4.48291C18.57 3.90201 18.3661 3.41255 18.1016 3.01416C17.8436 2.62565 17.5042 2.28971 17.2227 2.01611C17.2028 1.99684 17.1832 1.97805 17.1641 1.95947C16.8886 1.692 16.6854 1.49405 16.5527 1.30615C16.4356 1.14031 16.245 1.0415 16.042 1.0415C15.839 1.04151 15.6484 1.14031 15.5313 1.30615C15.3986 1.49405 15.1955 1.69195 14.9199 1.95947C14.9008 1.97805 14.8812 1.99684 14.8613 2.01611C14.5798 2.28971 14.2404 2.62566 13.9824 3.01416C13.7179 3.41254 13.514 3.90202 13.5449 4.48291C13.569 4.93502 13.7338 5.38726 14.0361 5.84521L13.3496 10.436C13.1249 10.3563 12.8851 10.3056 12.6328 10.2739C12.3374 10.2369 11.9981 10.2234 11.6143 10.2163C11.8319 9.74994 11.9142 9.28528 11.8594 8.82275C11.7672 8.04622 11.3044 7.42021 10.8037 6.92529C10.3417 6.46866 9.77845 6.05853 9.28906 5.70264C9.24683 5.67193 9.20507 5.64172 9.16406 5.61182C8.70729 5.27877 8.35369 5.00841 8.125 4.76807V3.88428C8.37352 3.80589 8.59607 3.66899 8.77539 3.48975C9.01944 3.24569 9.01939 2.85004 8.77539 2.60596C8.53131 2.36188 8.13568 2.36188 7.8916 2.60596C7.82742 2.67002 7.74052 2.70843 7.64355 2.7085C7.44953 2.7085 7.29199 2.55096 7.29199 2.35693C7.29206 2.25997 7.33047 2.17307 7.39453 2.10889C7.63861 1.86481 7.63861 1.46918 7.39453 1.2251C7.15045 0.981094 6.7548 0.981045 6.51074 1.2251C6.22184 1.51412 6.04206 1.91514 6.04199 2.35693C6.04199 2.96286 6.37865 3.49021 6.875 3.76221V4.76904C6.64631 5.00915 6.29311 5.27918 5.83691 5.61182C5.7959 5.64172 5.75414 5.67192 5.71191 5.70264C5.22245 6.05861 4.65834 6.46854 4.19629 6.92529C3.69568 7.42019 3.23372 8.04629 3.1416 8.82275C3.08523 9.29846 3.17349 9.77658 3.40527 10.2563C3.3352 10.2627 3.2669 10.2657 3.20117 10.2739C2.65312 10.3427 2.16189 10.4931 1.76367 10.8647C1.35942 11.2421 1.18985 11.7173 1.11328 12.2485C1.04148 12.747 1.04196 13.3742 1.04199 14.1206L1.04199 16.7056C1.04194 17.0646 1.04188 17.3984 1.08105 17.6704C1.12492 17.9748 1.22842 18.2911 1.50195 18.5464C1.76942 18.796 2.09057 18.8851 2.39551 18.9233C2.67787 18.9587 3.02735 18.9585 3.41699 18.9585L14.7842 18.9585ZM15.1123 5.2085C14.8783 4.87051 14.8033 4.61051 14.793 4.4165C14.7806 4.18417 14.856 3.95781 15.0234 3.70557C15.1978 3.44305 15.4446 3.19236 15.7324 2.9126C15.7578 2.88796 15.7841 2.86297 15.8105 2.8374C15.8852 2.7652 15.9634 2.68935 16.042 2.61084C16.1206 2.68935 16.1988 2.7652 16.2734 2.8374C16.2999 2.86299 16.3262 2.88795 16.3516 2.9126C16.6394 3.19237 16.8862 3.44304 17.0605 3.70557C17.228 3.95782 17.3034 4.18415 17.291 4.4165C17.2807 4.61052 17.2057 4.87051 16.9717 5.2085H15.1123ZM4.8457 10.2085C4.42588 9.67104 4.34742 9.269 4.38281 8.97021C4.42579 8.60757 4.65389 8.23044 5.0752 7.81396C5.46666 7.427 5.95615 7.07159 6.46289 6.70264C6.4997 6.67584 6.53628 6.64853 6.57324 6.62158C6.88139 6.39689 7.21124 6.15483 7.5 5.89893C7.78882 6.15489 8.11951 6.39685 8.42773 6.62158C8.4647 6.64853 8.50128 6.67584 8.53809 6.70264C9.04487 7.07161 9.53428 7.42698 9.92578 7.81396C10.3471 8.23044 10.5752 8.60757 10.6182 8.97021C10.6536 9.26899 10.5751 9.67105 10.1553 10.2085L4.8457 10.2085ZM14.792 14.1206C14.792 13.3742 14.7925 12.747 14.7207 12.2485C14.6765 11.9415 14.5984 11.6546 14.4648 11.3931C14.4688 11.3763 14.4759 11.3597 14.4785 11.3423L15.209 6.4585H16.7109L17.5723 14.7329C17.6634 15.6083 17.7238 16.1974 17.7061 16.6382C17.6891 17.0581 17.6039 17.2363 17.4902 17.3569C17.3725 17.4818 17.1839 17.5853 16.7373 17.645C16.2847 17.7055 15.6773 17.7084 14.792 17.7085L14.792 14.1206ZM3.45313 17.7085C3.01571 17.7085 2.74593 17.7076 2.55078 17.6831C2.46 17.6717 2.40986 17.6573 2.38281 17.647C2.36165 17.6388 2.35564 17.6335 2.35449 17.6323C2.35388 17.6319 2.3529 17.63 2.34961 17.6226C2.34286 17.6073 2.32959 17.5696 2.31836 17.4917C2.29363 17.3197 2.29199 17.0779 2.29199 16.6665L2.29199 14.1665C2.29199 13.3622 2.29314 12.8262 2.35059 12.4272C2.40476 12.0512 2.49765 11.8896 2.61621 11.7788C2.74097 11.6624 2.93228 11.5684 3.35645 11.5151C3.7947 11.4601 4.38005 11.4585 5.23828 11.4585L10.5957 11.4585C11.4539 11.4585 12.0393 11.4601 12.4775 11.5151C12.9017 11.5684 13.093 11.6624 13.2178 11.7788C13.3363 11.8896 13.4292 12.0512 13.4834 12.4272C13.5408 12.8262 13.542 13.3622 13.542 14.1665L13.542 17.7085H10.625V16.6685C10.6328 15.2222 10.0231 14.2353 9.40527 13.6196C9.10025 13.3157 8.79483 13.1037 8.56445 12.9663C8.44883 12.8973 8.35037 12.8458 8.27832 12.811C8.24245 12.7937 8.21249 12.7806 8.19043 12.771C8.17947 12.7662 8.17025 12.7623 8.16309 12.7593L8.1543 12.7554L8.15039 12.7534H8.14941L7.91699 13.3335L8.14746 12.7524C7.99945 12.6937 7.83454 12.6937 7.68652 12.7524L7.68457 12.7534H7.68359L7.67969 12.7554L7.6709 12.7593C7.66373 12.7623 7.65451 12.7662 7.64355 12.771C7.62149 12.7806 7.59153 12.7937 7.55566 12.811C7.48362 12.8458 7.38515 12.8973 7.26953 12.9663C7.03916 13.1037 6.73374 13.3157 6.42871 13.6196C5.8109 14.2353 5.20121 15.2222 5.20898 16.6685V17.7085H3.45313ZM6.45898 16.6636C6.45292 15.6109 6.88439 14.9311 7.31152 14.5054C7.52884 14.2888 7.74681 14.1365 7.90918 14.0396C7.91164 14.0381 7.91456 14.0361 7.91699 14.0347C7.91942 14.0361 7.92235 14.0381 7.9248 14.0396C8.08718 14.1365 8.30515 14.2888 8.52246 14.5054C8.9496 14.9311 9.38107 15.6109 9.375 16.6636V17.7085H6.45898V16.6636Z" fill="#161616"/>
</svg>
