<svg width="16" height="16" viewBox="0 0 16 16" fill="none" xmlns="http://www.w3.org/2000/svg">
<path d="M1.47363 8.75098C1.65843 8.67285 1.87012 8.7666 1.87012 8.7666C1.97511 8.81342 2.82581 9.22658 3.98242 10.7754C4.03041 10.7054 4.08171 10.6298 4.1377 10.5498C4.2957 10.3238 4.60798 10.2688 4.83398 10.4268C5.0597 10.5848 5.11461 10.8962 4.95605 11.1221C4.61605 11.6081 4.43102 11.9195 4.42969 11.9229C4.34165 12.0706 4.18388 12.1623 4.0127 12.167C4.00828 12.167 4.00443 12.1679 4 12.168C3.83344 12.168 3.67667 12.0845 3.58398 11.9453C2.37265 10.128 1.46636 9.68142 1.45703 9.67676C1.45041 9.67384 1.25359 9.58567 1.18945 9.38086C1.12452 9.17274 1.2207 8.99023 1.2207 8.99023C1.22364 8.98341 1.2929 8.82738 1.47363 8.75098ZM14.1104 3.88672C14.3575 3.76379 14.657 3.86397 14.7803 4.11035C14.9036 4.35694 14.8041 4.65785 14.5576 4.78125C11.3856 6.36725 7.78893 11.8835 7.75293 11.9395C7.66162 12.0804 7.50528 12.1662 7.33691 12.167L7.33301 12.168C7.16578 12.1679 7.00962 12.0846 6.91699 11.9453C5.71231 10.138 4.81007 9.68625 4.79102 9.67676C4.79102 9.67676 4.58321 9.58676 4.51953 9.36328C4.456 9.13993 4.56543 8.97266 4.56543 8.97266C4.56543 8.97266 4.64378 8.79985 4.85059 8.74414C5.0572 8.68862 5.20312 8.7666 5.20312 8.7666C5.30712 8.8126 6.16253 9.22675 7.3252 10.7881C7.72116 10.2175 8.37937 9.30613 9.19727 8.30957C11.0113 6.09824 12.665 4.61005 14.1104 3.88672ZM10.7764 3.88672C11.0237 3.76344 11.3239 3.86371 11.4473 4.11035C11.5706 4.35702 11.4703 4.65792 11.2236 4.78125C10.0137 5.38594 8.54418 6.68491 6.97363 8.53809C6.87498 8.65474 6.73378 8.71483 6.5918 8.71484C6.4778 8.71484 6.36255 8.67668 6.26855 8.59668C6.05812 8.41809 6.03164 8.1032 6.20996 7.89258C7.89129 5.90924 9.4277 4.56072 10.7764 3.88672Z" fill="#161616"/>
</svg>
