<svg width="20" height="20" viewBox="0 0 20 20" fill="none" xmlns="http://www.w3.org/2000/svg">
<path fill-rule="evenodd" clip-rule="evenodd" d="M16.0697 1.87514C16.3466 1.87569 16.5851 1.87846 16.7882 1.89231C17.0524 1.91034 17.302 1.94921 17.544 2.04944C18.1055 2.28203 18.5517 2.72816 18.7842 3.28968C18.8845 3.53168 18.9233 3.78128 18.9413 4.04553C18.9587 4.29938 18.9587 4.60857 18.9587 4.97895L18.9587 17.5C18.9587 17.8452 18.6788 18.125 18.3337 18.125C17.9885 18.125 17.7087 17.8452 17.7087 17.5L17.7087 5.625L2.29199 5.625L2.29199 17.5C2.29199 17.8452 2.01217 18.125 1.66699 18.125C1.32182 18.125 1.04199 17.8452 1.04199 17.5L1.04213 4.76402C1.04268 4.4871 1.04545 4.2486 1.0593 4.04553C1.07733 3.78128 1.1162 3.53168 1.21643 3.28968C1.44903 2.72816 1.89515 2.28203 2.45668 2.04944C2.69867 1.94921 2.94828 1.91034 3.21253 1.89231C3.46637 1.875 3.77557 1.875 4.14595 1.875L16.0697 1.87514ZM16.1435 3.1254L3.85717 3.1254C3.62288 3.12632 3.44491 3.12936 3.29761 3.13941C3.09701 3.1531 2.99933 3.17766 2.93503 3.20429C2.67979 3.31002 2.47701 3.5128 2.37128 3.76804C2.34465 3.83233 2.32009 3.93001 2.3064 4.13062C2.30143 4.20353 2.29817 4.28395 2.29603 4.375L17.7046 4.375C17.7025 4.28395 17.6992 4.20353 17.6942 4.13062C17.6806 3.93001 17.656 3.83233 17.6294 3.76804C17.5237 3.5128 17.3208 3.31002 17.0657 3.20429C17.0013 3.17766 16.9037 3.1531 16.7031 3.13941C16.5558 3.12936 16.3778 3.12632 16.1435 3.1254ZM10.3513 7.70833C10.9449 7.70833 11.4452 7.70833 11.8514 7.75688C12.2827 7.80846 12.677 7.92108 13.0262 8.1937C13.3753 8.46633 13.5802 8.82142 13.7348 9.22742C13.8805 9.60975 14.0018 10.0951 14.1457 10.6709L14.2389 11.0434C15.0109 11.0809 15.6253 11.7187 15.6253 12.5L15.6253 15C15.6253 15.8054 14.9724 16.4583 14.167 16.4583H13.9587V17.5C13.9587 17.8452 13.6788 18.125 13.3337 18.125C12.9885 18.125 12.7087 17.8452 12.7087 17.5V16.4583L7.29199 16.4583V17.5C7.29199 17.8452 7.01217 18.125 6.66699 18.125C6.32182 18.125 6.04199 17.8452 6.04199 17.5V16.4583H5.83366C5.02824 16.4583 4.37533 15.8054 4.37533 15L4.37533 12.5C4.37533 11.7186 4.9899 11.0807 5.76206 11.0434L5.85517 10.6709C5.99912 10.0951 6.12042 9.60975 6.26609 9.22742C6.42075 8.82142 6.62563 8.46633 6.97478 8.1937C7.32394 7.92108 7.71817 7.80846 8.14949 7.75688C8.55583 7.70833 9.05599 7.70833 9.64958 7.70833L10.3513 7.70833ZM14.167 12.2917L5.83366 12.2917C5.7186 12.2917 5.62533 12.3849 5.62533 12.5L5.62533 15C5.62533 15.1151 5.7186 15.2083 5.83366 15.2083L14.167 15.2083C14.2821 15.2083 14.3753 15.1151 14.3753 15L14.3753 12.5C14.3753 12.3849 14.2821 12.2917 14.167 12.2917ZM10.7107 8.95888L9.29026 8.95888C8.86237 8.96064 8.54939 8.96793 8.29791 8.998C7.99133 9.03467 7.84699 9.09858 7.74405 9.17892C7.6411 9.25933 7.54414 9.38383 7.43419 9.67242C7.31827 9.97675 7.21419 10.3888 7.05893 11.0098L7.05096 11.0417L12.95 11.0417L12.942 11.0098C12.7867 10.3888 12.6827 9.97675 12.5667 9.67242C12.4568 9.38383 12.3598 9.25933 12.2569 9.17892C12.154 9.09858 12.0097 9.03467 11.703 8.998C11.4515 8.96793 11.1386 8.96064 10.7107 8.95888ZM7.08366 13.1168C7.42883 13.1168 7.70866 13.3967 7.70866 13.7418V13.7502C7.70866 14.0953 7.42883 14.3752 7.08366 14.3752C6.73848 14.3752 6.45866 14.0953 6.45866 13.7502V13.7418C6.45866 13.3967 6.73848 13.1168 7.08366 13.1168ZM13.542 13.7418C13.542 13.3967 13.2622 13.1168 12.917 13.1168C12.5718 13.1168 12.292 13.3967 12.292 13.7418V13.7502C12.292 14.0953 12.5718 14.3752 12.917 14.3752C13.2622 14.3752 13.542 14.0953 13.542 13.7502V13.7418Z" fill="#161616"/>
</svg>
