<svg width="22" height="18" viewBox="0 0 22 18" fill="none" xmlns="http://www.w3.org/2000/svg">
<path d="M10.75 10C14.9176 10 18.5 12.9178 18.5 16.75V17.5H3V16.75C3 12.9178 6.58242 10 10.75 10ZM10.75 11.5C7.50862 11.5 4.99362 13.53 4.56445 16H16.9355C16.5064 13.53 13.9914 11.5 10.75 11.5ZM5.75 10.5C3.40279 10.5 1.5 12.4028 1.5 14.75H0C0 11.5744 2.57436 9 5.75 9V10.5ZM15.75 9C18.9256 9 21.5 11.5744 21.5 14.75H20C20 12.4028 18.0972 10.5 15.75 10.5V9ZM10.75 0C13.0972 0 15 1.90279 15 4.25C15 6.59721 13.0972 8.5 10.75 8.5C8.40279 8.5 6.5 6.59721 6.5 4.25C6.5 1.90279 8.40279 0 10.75 0ZM5.75 3C4.7835 3 4 3.7835 4 4.75C4 5.7165 4.7835 6.5 5.75 6.5V8C3.95507 8 2.5 6.54493 2.5 4.75C2.5 2.95507 3.95507 1.5 5.75 1.5V3ZM15.75 1.5C17.5449 1.5 19 2.95507 19 4.75C19 6.54493 17.5449 8 15.75 8V6.5C16.7165 6.5 17.5 5.7165 17.5 4.75C17.5 3.7835 16.7165 3 15.75 3V1.5ZM10.75 1.5C9.23122 1.5 8 2.73122 8 4.25C8 5.76878 9.23122 7 10.75 7C12.2688 7 13.5 5.76878 13.5 4.25C13.5 2.73122 12.2688 1.5 10.75 1.5Z" fill="#007A8C"/>
</svg>
