<svg width="48" height="48" viewBox="0 0 48 48" fill="none" xmlns="http://www.w3.org/2000/svg">
<path d="M0 24C0 10.7452 10.7452 0 24 0C37.2548 0 48 10.7452 48 24C48 37.2548 37.2548 48 24 48C10.7452 48 0 37.2548 0 24Z" fill="#F3FCF6"/>
<path d="M19.6895 26.4736C22.3272 24.8426 25.6728 24.8426 28.3105 26.4736C28.3883 26.5217 28.4874 26.5793 28.6006 26.6455C29.1129 26.9453 29.9257 27.4214 30.4805 27.9854C30.8289 28.3395 31.1768 28.822 31.2402 29.4238C31.308 30.068 31.0343 30.6647 30.5127 31.1807C29.6511 32.033 28.5839 32.75 27.1846 32.75H20.8154C19.4161 32.7499 18.3489 32.033 17.4873 31.1807C16.9657 30.6647 16.692 30.068 16.7598 29.4238C16.8232 28.8221 17.1712 28.3395 17.5195 27.9854C18.0744 27.4213 18.8881 26.9453 19.4004 26.6455C19.5134 26.5794 19.6117 26.5217 19.6895 26.4736ZM27.5215 27.749C25.3672 26.4171 22.6327 26.417 20.4785 27.749C20.3492 27.829 20.2104 27.9108 20.0674 27.9951C19.5555 28.2969 18.9871 28.6323 18.5889 29.0371C18.3441 29.2859 18.264 29.4675 18.252 29.5811C18.2444 29.6526 18.2479 29.8232 18.542 30.1143C19.2744 30.8389 19.9828 31.2499 20.8154 31.25H27.1846C28.0173 31.25 28.7255 30.839 29.458 30.1143C29.7523 29.8231 29.7556 29.6526 29.748 29.5811C29.736 29.4675 29.656 29.286 29.4111 29.0371C29.0129 28.6323 28.4445 28.2969 27.9326 27.9951C27.7896 27.9108 27.6507 27.8289 27.5215 27.749ZM16.9326 24.2529C17.3451 24.2157 17.7098 24.5201 17.7471 24.9326C17.7843 25.3451 17.4798 25.7098 17.0674 25.7471C16.4272 25.805 15.7827 26.0523 15.1924 26.5068C15.0973 26.5801 14.998 26.6524 14.8984 26.7256C14.5589 26.9751 14.2101 27.2324 13.9609 27.5479C13.813 27.7352 13.7594 27.8762 13.751 27.9756C13.7446 28.0514 13.7559 28.1848 13.9277 28.3965C14.423 29.0066 14.8262 29.2498 15.2256 29.25C15.6398 29.25 15.9756 29.5858 15.9756 30C15.9756 30.4142 15.6398 30.75 15.2256 30.75C14.1268 30.7498 13.3384 30.0499 12.7637 29.3418C12.3881 28.8791 12.2127 28.3712 12.2568 27.8486C12.2991 27.35 12.5329 26.9351 12.7832 26.6182C13.1751 26.1221 13.7569 25.6991 14.0977 25.4512C14.1694 25.399 14.231 25.3541 14.2773 25.3184C15.0816 24.6991 15.9942 24.3378 16.9326 24.2529ZM31.0674 24.2529C32.0058 24.3378 32.9184 24.6991 33.7227 25.3184C33.769 25.3541 33.8306 25.399 33.9023 25.4512C34.2431 25.6991 34.8249 26.1221 35.2168 26.6182C35.4671 26.9351 35.7009 27.35 35.7432 27.8486C35.7873 28.3712 35.6119 28.8791 35.2363 29.3418C34.6616 30.0499 33.8732 30.7498 32.7744 30.75C32.3602 30.75 32.0244 30.4142 32.0244 30C32.0244 29.5858 32.3602 29.25 32.7744 29.25C33.1738 29.2498 33.577 29.0067 34.0723 28.3965C34.2441 28.1848 34.2554 28.0514 34.249 27.9756C34.2406 27.8762 34.187 27.7352 34.0391 27.5479C33.7899 27.2324 33.4411 26.9751 33.1016 26.7256C33.002 26.6524 32.9027 26.5801 32.8076 26.5068C32.2173 26.0523 31.5728 25.805 30.9326 25.7471C30.5202 25.7098 30.2157 25.3451 30.2529 24.9326C30.2902 24.5202 30.6549 24.2157 31.0674 24.2529ZM17.5 17.25C17.9142 17.25 18.25 17.5858 18.25 18C18.25 18.4142 17.9142 18.75 17.5 18.75C16.5335 18.75 15.75 19.5335 15.75 20.5C15.75 21.4665 16.5335 22.25 17.5 22.25C17.9142 22.25 18.25 22.5858 18.25 23C18.25 23.4142 17.9142 23.75 17.5 23.75C15.7051 23.75 14.25 22.2949 14.25 20.5C14.25 18.7051 15.7051 17.25 17.5 17.25ZM24 15.25C26.3472 15.25 28.25 17.1528 28.25 19.5C28.25 21.8472 26.3472 23.75 24 23.75C21.6528 23.75 19.75 21.8472 19.75 19.5C19.75 17.1528 21.6528 15.25 24 15.25ZM30 17.25C31.7949 17.25 33.25 18.7051 33.25 20.5C33.25 22.2949 31.7949 23.75 30 23.75C29.5858 23.75 29.25 23.4142 29.25 23C29.25 22.5858 29.5858 22.25 30 22.25C30.9665 22.25 31.75 21.4665 31.75 20.5C31.75 19.5335 30.9665 18.75 30 18.75C29.5858 18.75 29.25 18.4142 29.25 18C29.25 17.5858 29.5858 17.25 30 17.25ZM24 16.75C22.4812 16.75 21.25 17.9812 21.25 19.5C21.25 21.0188 22.4812 22.25 24 22.25C25.5188 22.25 26.75 21.0188 26.75 19.5C26.75 17.9812 25.5188 16.75 24 16.75Z" fill="#1B8354"/>
</svg>
