<svg width="17" height="17" viewBox="0 0 17 17" fill="none" xmlns="http://www.w3.org/2000/svg">
<path fill-rule="evenodd" clip-rule="evenodd" d="M3.97175 1.29593C3.84334 1.25664 3.68597 1.25008 3.10507 1.25008C2.70017 1.25008 2.43266 1.25053 2.22407 1.2671C2.02502 1.28292 1.92302 1.31098 1.84825 1.34523C1.6127 1.4531 1.3792 1.71022 1.29444 1.95504C1.22968 2.14212 1.23583 2.3382 1.30916 3.09813C1.66329 6.76814 2.83815 9.53611 4.77601 11.474C6.71387 13.4118 9.48183 14.5867 13.1518 14.9408C13.9118 15.0141 14.1079 15.0203 14.2949 14.9555C14.5398 14.8708 14.7969 14.6373 14.9047 14.4017C14.939 14.327 14.9671 14.225 14.9829 14.0259C14.9994 13.8173 14.9999 13.5498 14.9999 13.1449C14.9999 12.564 14.9933 12.4066 14.954 12.2782C14.8966 12.0904 14.7875 11.9226 14.6392 11.7938C14.5378 11.7057 14.3967 11.6358 13.8658 11.3999L13.1109 11.0643C12.536 10.8088 12.3779 10.747 12.232 10.7332C12.0692 10.7177 11.905 10.7405 11.7526 10.7999C11.616 10.853 11.4808 10.9556 10.9975 11.3584C10.9756 11.3767 10.9539 11.3948 10.9325 11.4126C10.5489 11.7329 10.2451 11.9864 9.86747 12.1244C9.5275 12.2486 9.10212 12.2921 8.74404 12.2393C8.34679 12.1808 8.03579 12.0143 7.64913 11.8073C7.63008 11.7971 7.61084 11.7868 7.5914 11.7764C6.11061 10.9851 5.26489 10.1394 4.47356 8.65858C4.46316 8.63914 4.45286 8.61989 4.44266 8.60084C4.23566 8.21418 4.06917 7.90318 4.01063 7.50593C3.95786 7.14786 4.00139 6.72247 4.12559 6.38251C4.26355 6.00487 4.51711 5.7011 4.83736 5.31746C4.85523 5.29605 4.8733 5.27439 4.89158 5.25246C5.29434 4.76915 5.39694 4.63394 5.45012 4.49738C5.50947 4.34498 5.53231 4.1808 5.51682 4.01799C5.50295 3.8721 5.44116 3.71402 5.18564 3.1391L4.85009 2.38412C4.61417 1.85329 4.54426 1.71215 4.4562 1.61076C4.32742 1.46249 4.15955 1.3534 3.97175 1.29593ZM3.18679 3.82984e-05C3.64678 -0.00029966 4.00677 -0.000564208 4.3375 0.100636C4.74935 0.226659 5.1175 0.465906 5.39993 0.791083C5.62673 1.05221 5.7727 1.38128 5.95921 1.80177C5.97011 1.82635 5.98116 1.85124 5.99236 1.87645L6.32791 2.63143C6.34 2.65864 6.35196 2.6855 6.36377 2.71202C6.56654 3.16725 6.72549 3.52414 6.76121 3.89963C6.79517 4.25669 6.74507 4.61674 6.61492 4.95097C6.47805 5.30244 6.2277 5.60238 5.90836 5.98496C5.88976 6.00725 5.87092 6.02982 5.85186 6.05269C5.45203 6.53248 5.35374 6.6635 5.2997 6.81143C5.24686 6.95605 5.22483 7.17137 5.24728 7.32369C5.2707 7.48262 5.32602 7.60163 5.57601 8.06943C6.25078 9.3321 6.91787 9.99919 8.18055 10.674C8.64834 10.924 8.76735 10.9793 8.92628 11.0027C9.0786 11.0251 9.29392 11.0031 9.43854 10.9503C9.58647 10.8962 9.71749 10.7979 10.1973 10.3981C10.2202 10.3791 10.2427 10.3602 10.265 10.3416C10.6476 10.0223 10.9475 9.77192 11.299 9.63506C11.6332 9.5049 11.9933 9.4548 12.3503 9.48877C12.7258 9.52448 13.0827 9.68345 13.538 9.88621C13.5645 9.89802 13.5913 9.90998 13.6185 9.92207L14.3735 10.2576C14.3987 10.2688 14.4236 10.2799 14.4482 10.2908C14.8687 10.4773 15.1978 10.6232 15.4589 10.85C15.7841 11.1325 16.0233 11.5006 16.1493 11.9125C16.2505 12.2432 16.2503 12.6032 16.2499 13.0632C16.2499 13.0901 16.2499 13.1173 16.2499 13.1449V13.1685C16.2499 13.5435 16.2499 13.8609 16.2289 14.1249C16.2068 14.4039 16.1589 14.6653 16.0412 14.9222C15.7912 15.4681 15.2712 15.9403 14.7039 16.1367C14.2276 16.3016 13.7423 16.2543 13.1333 16.1949C13.0999 16.1916 13.066 16.1883 13.0318 16.185C9.15972 15.8114 6.08919 14.5549 3.89213 12.3579C1.69506 10.1608 0.438569 7.09025 0.0649353 3.21819C0.0616325 3.18396 0.0583329 3.15013 0.0550698 3.11667C-0.00432098 2.50765 -0.0516457 2.02236 0.113225 1.54612C0.309647 0.978736 0.781867 0.458755 1.32776 0.208746C1.58467 0.0910835 1.84608 0.0431935 2.12508 0.0210295C2.38903 6.09489e-05 2.70644 6.86471e-05 3.08151 7.76871e-05L3.10507 7.80845e-05C3.13266 7.80845e-05 3.1599 5.80673e-05 3.18679 3.82984e-05Z" fill="white"/>
</svg>
