<svg width="32" height="27" viewBox="0 0 32 27" fill="none" xmlns="http://www.w3.org/2000/svg">
<path opacity="0.4" d="M29.5316 10.6592L29.1668 10.3331L29.1668 25.8854C29.1668 26.4895 28.6771 26.9792 28.073 26.9792L10.573 26.9792C9.96895 26.9792 9.47926 26.4895 9.47926 25.8854L9.47926 10.3331L9.11447 10.6592C8.66412 11.0618 7.97268 11.0231 7.57009 10.5727C7.1675 10.1224 7.20621 9.43092 7.65655 9.02833L14.667 2.76121L14.667 2.7612C15.5652 1.95823 16.3171 1.28602 16.9912 0.824102C17.7055 0.334608 18.4446 0 19.323 0C20.2015 0 20.9405 0.334609 21.6548 0.824102C22.3289 1.28602 23.0808 1.95823 23.979 2.76122L30.9895 9.02833C31.4398 9.43092 31.4785 10.1224 31.0759 10.5727C30.6733 11.0231 29.9819 11.0618 29.5316 10.6592Z" fill="#007A8C"/>
<path d="M20.7813 8.02246C21.3852 8.02246 21.8748 7.53262 21.875 6.92871C21.875 6.32465 21.3853 5.83496 20.7813 5.83496H17.8643C17.2603 5.83514 16.7705 6.32476 16.7705 6.92871C16.7707 7.53251 17.2605 8.02228 17.8643 8.02246H20.7813ZM30.2607 26.9805C30.8647 26.9803 31.3545 26.4907 31.3545 25.8867C31.3545 25.2828 30.8647 24.7931 30.2607 24.793L24.0625 24.793C24.0624 23.1914 24.0623 21.5898 24.0625 19.9883C24.0626 19.3571 24.0623 18.7784 23.999 18.3076C23.9293 17.7892 23.7661 17.2407 23.3154 16.79C22.8648 16.3394 22.3163 16.1761 21.7979 16.1064C21.3109 16.041 20.7082 16.043 20.0518 16.043H18.5938C17.9372 16.043 17.3346 16.041 16.8477 16.1064C16.3294 16.1761 15.7816 16.3397 15.3311 16.79C14.8804 17.2407 14.7162 17.7892 14.6465 18.3076C14.5832 18.7782 14.5829 19.3565 14.583 19.9873C14.5832 21.589 14.5831 23.1912 14.583 24.793L4.375 24.793L4.375 18.0059C4.9116 17.7769 5.36329 17.3916 5.70313 16.9385C6.25404 16.2038 6.5625 15.2388 6.5625 14.2197C6.56243 13.2007 6.25406 12.2356 5.70313 11.501C5.15187 10.7661 4.30665 10.21 3.28125 10.21C2.25585 10.21 1.41063 10.7661 0.859375 11.501C0.308438 12.2356 6.56081e-05 13.2007 0 14.2197C0 15.2388 0.308464 16.2038 0.859375 16.9385C1.19921 17.3916 1.6509 17.7769 2.1875 18.0059L2.1875 24.793H1.09375C0.489689 24.793 0 25.2827 0 25.8867C0 26.4908 0.489689 26.9805 1.09375 26.9805L30.2607 26.9805ZM20.7813 12.3975C21.3852 12.3975 21.8748 11.9076 21.875 11.3037C21.875 10.6996 21.3853 10.21 20.7813 10.21H17.8643C17.2603 10.2101 16.7705 10.6998 16.7705 11.3037C16.7707 11.9075 17.2605 12.3973 17.8643 12.3975H20.7813ZM16.7705 20.0527C16.7705 19.3346 16.7731 18.9058 16.8145 18.5986C16.8459 18.3648 16.8943 18.3074 17.1396 18.2744C17.4469 18.2331 17.8756 18.2305 18.5938 18.2305H20.0518C20.7701 18.2305 21.1995 18.2331 21.5068 18.2744C21.7519 18.3074 21.7996 18.365 21.8311 18.5986C21.8724 18.9059 21.875 19.3353 21.875 20.0537L21.875 24.793H16.7705L16.7705 20.0527Z" fill="#007A8C"/>
</svg>
