<svg width="20" height="20" viewBox="0 0 20 20" fill="none" xmlns="http://www.w3.org/2000/svg">
<path d="M9.67871 1.31982C10.0122 0.98439 10.4772 1.02936 10.708 1.06982C10.9914 1.11954 11.296 1.23192 11.5713 1.35205C12.1298 1.59585 12.7049 1.93458 13.0117 2.12354C13.8092 2.61462 13.9589 3.53774 13.959 4.15186C13.959 4.49693 13.679 4.77669 13.334 4.77686H10.625V5.521C10.6363 5.52645 10.648 5.53102 10.6592 5.53662C10.8292 5.62202 11.0175 5.74345 11.2168 5.87158C11.2242 5.87635 11.2318 5.88145 11.2393 5.88623L12.9971 7.01611C13.3514 7.24389 13.6536 7.43823 13.8896 7.62354C14.1412 7.82105 14.3552 8.03613 14.5117 8.32275C14.6683 8.6095 14.7335 8.90565 14.7637 9.22412C14.792 9.52293 14.792 9.88183 14.792 10.3032V10.3442C15.1688 10.4376 15.5188 10.5265 15.8291 10.6187C16.2666 10.7486 16.6787 10.9013 17.0264 11.1226C17.3877 11.3527 17.6786 11.6559 17.8691 12.0708C18.0539 12.4732 18.125 12.9398 18.125 13.4692V17.7085H18.334C18.6789 17.7087 18.9588 17.9886 18.959 18.3335C18.959 18.6786 18.679 18.9583 18.334 18.9585H1.66699C1.32181 18.9585 1.04199 18.6787 1.04199 18.3335C1.04216 17.9885 1.32192 17.7085 1.66699 17.7085H1.875V13.4692C1.875 12.9398 1.94705 12.4732 2.13184 12.0708C2.32244 11.6559 2.6132 11.3527 2.97461 11.1226C3.32215 10.9013 3.73352 10.7486 4.1709 10.6187C4.48136 10.5264 4.83196 10.4377 5.20898 10.3442V10.3032C5.20897 9.88183 5.20903 9.52293 5.2373 9.22412C5.26745 8.90566 5.33271 8.60949 5.48926 8.32275C5.64579 8.0362 5.85887 7.82101 6.11035 7.62354C6.34644 7.43814 6.64841 7.24401 7.00293 7.01611C7.01065 7.01115 7.0186 7.00646 7.02637 7.00146L8.76074 5.88623C8.76821 5.88143 8.77576 5.87637 8.7832 5.87158C8.98256 5.74339 9.17173 5.62206 9.3418 5.53662C9.35269 5.53115 9.36394 5.52633 9.375 5.521V2.44678C9.37493 2.27475 9.3756 2.08946 9.39648 1.93311C9.4209 1.75045 9.48316 1.51675 9.67871 1.31982ZM5.20898 11.6333C4.95952 11.6963 4.73422 11.7554 4.52734 11.8169C4.12575 11.9362 3.84669 12.0498 3.64648 12.1772C3.4603 12.2958 3.34504 12.4246 3.26758 12.5933C3.18435 12.7748 3.125 13.0442 3.125 13.4692V17.7085H5.20898V11.6333ZM9.98926 6.61768C9.97595 6.62147 9.94889 6.63042 9.90234 6.65381C9.79884 6.70582 9.66722 6.79032 9.4375 6.93799L7.70215 8.05322C7.31827 8.3 7.06684 8.46244 6.88281 8.60693C6.70906 8.74337 6.6332 8.8358 6.58594 8.92236C6.53875 9.00889 6.50224 9.12259 6.48145 9.34229C6.45943 9.57526 6.45898 9.87509 6.45898 10.3315V17.7085H9.375V15.0005C9.375 14.6554 9.65497 14.3757 10 14.3755C10.3452 14.3755 10.625 14.6553 10.625 15.0005V17.7085H13.542V10.3315C13.542 9.87511 13.5415 9.57526 13.5195 9.34229C13.4988 9.12271 13.4622 9.00888 13.415 8.92236C13.3678 8.83581 13.2919 8.74334 13.1182 8.60693C12.9341 8.46237 12.682 8.30019 12.2979 8.05322L10.5635 6.93799C10.3335 6.79016 10.2012 6.70583 10.0977 6.65381C10.0514 6.63058 10.025 6.62146 10.0117 6.61768C10.0062 6.6161 10.0032 6.61494 10.002 6.61475H9.99902C9.99813 6.61488 9.99517 6.616 9.98926 6.61768ZM14.792 17.7085H16.875V13.4692C16.875 13.044 16.8157 12.7748 16.7324 12.5933C16.655 12.4246 16.5406 12.2958 16.3545 12.1772C16.1543 12.0498 15.8753 11.9362 15.4736 11.8169C15.2668 11.7554 15.0415 11.6963 14.792 11.6333V17.7085ZM10.0078 10.0005C10.4679 10.0005 10.8407 10.3734 10.8408 10.8335C10.8408 11.2937 10.468 11.6675 10.0078 11.6675H10C9.53991 11.6673 9.16699 11.2936 9.16699 10.8335C9.16716 10.3735 9.54001 10.0007 10 10.0005H10.0078ZM10.625 2.47607V3.52686H12.6123C12.5513 3.36745 12.4638 3.25413 12.3564 3.18799C12.0631 3.00736 11.5477 2.70552 11.0713 2.49756C10.8989 2.42234 10.7485 2.36694 10.626 2.33252C10.6257 2.37488 10.625 2.42242 10.625 2.47607Z" fill="#161616"/>
</svg>
