<svg width="27" height="24" viewBox="0 0 27 24" fill="none" xmlns="http://www.w3.org/2000/svg">
<path fill-rule="evenodd" clip-rule="evenodd" d="M0.4728 10.1309C0.21067 10.235 0.0291015 10.4774 0.00286447 10.7582C-0.0233737 11.039 0.110153 11.3108 0.348464 11.4617L17.1968 22.127C17.4605 22.294 17.8001 22.2801 18.0494 22.0922C18.2987 21.9043 18.4055 21.5816 18.3175 21.2821L15.6339 12.1396L20.0169 3.78882C20.1627 3.51101 20.1202 3.1718 19.9104 2.93858C19.7005 2.70536 19.3676 2.62742 19.076 2.74322L0.4728 10.1309ZM14.2534 12.7622L16.3179 19.7954L2.39464 10.9817L17.7477 4.88467L14.3968 11.269L9.97238 10.8819L9.84164 12.3762L14.2534 12.7622Z" fill="white"/>
</svg>
