<svg width="18" height="18" viewBox="0 0 18 18" fill="none" xmlns="http://www.w3.org/2000/svg">
<path d="M11.0527 1.5C13.8025 0.191773 15.1861 -0.458482 16.3027 0.366211C17.4194 1.19117 17.1699 2.68301 16.6699 5.64941L15.8701 10.3994C15.5368 12.3327 15.361 13.3749 14.4443 13.9082C14.1278 14.0914 13.8109 14.1748 13.4443 14.1748L13.4365 14.166C12.7415 14.166 11.9022 13.8771 10.7217 13.4727C10.7178 13.4784 10.716 13.4856 10.7119 13.4912L10.0117 14.4912C8.74505 16.1662 8.05312 17.0996 7.20312 17.0996L7.21191 17.0918C7.10358 17.0918 6.99505 17.0748 6.88672 17.0498C5.8285 16.7665 5.82813 15.6165 5.82812 13.3252V11.7832L5.34473 11.6162C1.83652 10.3996 0.0947038 9.79142 0.00292969 8.2832C-0.0804037 6.7582 1.60312 5.96615 4.95312 4.38281L11.0527 1.5ZM7.07812 13.3252C7.07813 14.4751 7.07893 15.6584 7.25391 15.875C7.47104 15.7907 8.25429 14.7573 9.00391 13.7578L9.5 13.0518L7.07812 12.2148V13.3252ZM15.5449 1.3584C15.0366 0.98341 13.7363 1.5996 11.5781 2.61621L5.47852 5.5V5.50781C2.9037 6.72439 1.21203 7.52471 1.24512 8.20801C1.28678 8.88301 3.05352 9.4998 5.72852 10.4248L6.06836 10.542L12.2617 4.34961C12.5033 4.10822 12.9029 4.10821 13.1445 4.34961C13.3862 4.59128 13.3862 4.99173 13.1445 5.2334L7.38184 10.9951L11.0615 12.2666C12.6776 12.8247 13.4027 13.0582 13.8027 12.8252C14.1944 12.5919 14.3368 11.8583 14.6201 10.2168L15.4199 5.45801C15.7948 3.20015 16.0446 1.72538 15.5449 1.3584Z" fill="#A5F3FF"/>
</svg>
