<svg width="24" height="24" viewBox="0 0 24 24" fill="none" xmlns="http://www.w3.org/2000/svg">
<path d="M12.0576 1.75C14.2479 1.74999 15.9683 1.75012 17.3115 1.93066C18.6882 2.11575 19.7805 2.50313 20.6387 3.36133C21.4969 4.21953 21.8842 5.31182 22.0693 6.68848C22.2499 8.03174 22.25 9.75212 22.25 11.9424V12.0576C22.25 14.2479 22.2499 15.9683 22.0693 17.3115C21.8842 18.6882 21.4969 19.7805 20.6387 20.6387C19.7805 21.4969 18.6882 21.8842 17.3115 22.0693C15.9683 22.2499 14.2479 22.25 12.0576 22.25H11.9424C9.75212 22.25 8.03174 22.2499 6.68848 22.0693C5.31182 21.8842 4.21953 21.4969 3.36133 20.6387C2.50313 19.7805 2.11575 18.6882 1.93066 17.3115C1.75012 15.9683 1.74999 14.2479 1.75 12.0576V11.9424C1.74999 9.75212 1.75012 8.03174 1.93066 6.68848C2.11575 5.31182 2.50313 4.21953 3.36133 3.36133C4.21953 2.50313 5.31182 2.11575 6.68848 1.93066C8.03174 1.75012 9.75213 1.74999 11.9424 1.75H12.0576ZM12 3.25C9.73963 3.25 8.1196 3.25137 6.8877 3.41699C5.67747 3.57972 4.9549 3.88885 4.42188 4.42188C3.88885 4.9549 3.57972 5.67747 3.41699 6.8877C3.25137 8.1196 3.25 9.73963 3.25 12C3.25 14.2604 3.25137 15.8804 3.41699 17.1123C3.57972 18.3225 3.88885 19.0451 4.42188 19.5781C4.9549 20.1111 5.67747 20.4203 6.8877 20.583C8.1196 20.7486 9.73963 20.75 12 20.75C14.2604 20.75 15.8804 20.7486 17.1123 20.583C18.3225 20.4203 19.0451 20.1111 19.5781 19.5781C20.1111 19.0451 20.4203 18.3225 20.583 17.1123C20.7486 15.8804 20.75 14.2604 20.75 12C20.75 9.73963 20.7486 8.1196 20.583 6.8877C20.4203 5.67747 20.1111 4.9549 19.5781 4.42188C19.0451 3.88885 18.3225 3.57972 17.1123 3.41699C15.8804 3.25137 14.2604 3.25 12 3.25ZM12 7.25C12.2583 7.25 12.4811 7.33939 12.6426 7.42578C12.8098 7.51533 12.9656 7.63156 13.1035 7.74902C13.3788 7.98354 13.6544 8.28485 13.9004 8.5752C14.1301 8.84632 14.3529 9.1309 14.543 9.37305C14.5588 9.39322 14.5745 9.41306 14.5898 9.43262C14.803 9.70404 14.9494 9.88628 15.0381 9.97754C15.3265 10.2746 15.3194 10.7495 15.0225 11.0381C14.7254 11.3265 14.2505 11.3194 13.9619 11.0225C13.8049 10.8609 13.6032 10.6039 13.4111 10.3594C13.3964 10.3406 13.3811 10.3217 13.3662 10.3027C13.1733 10.057 12.9665 9.79356 12.7559 9.54492C12.7539 9.54263 12.7519 9.54037 12.75 9.53809V16C12.75 16.4142 12.4142 16.75 12 16.75C11.5858 16.75 11.25 16.4142 11.25 16V9.53809C11.2481 9.54037 11.2461 9.54263 11.2441 9.54492C11.0335 9.79356 10.8267 10.057 10.6338 10.3027C10.6189 10.3217 10.6036 10.3406 10.5889 10.3594C10.3968 10.6039 10.1951 10.8609 10.0381 11.0225C9.74947 11.3194 9.27458 11.3265 8.97754 11.0381C8.68061 10.7495 8.67349 10.2746 8.96191 9.97754C9.05062 9.88628 9.19696 9.70404 9.41016 9.43262C9.42552 9.41306 9.4412 9.39322 9.45703 9.37305C9.6471 9.1309 9.86987 8.84632 10.0996 8.5752C10.3456 8.28485 10.6212 7.98354 10.8965 7.74902C11.0344 7.63156 11.1902 7.51533 11.3574 7.42578C11.5189 7.33939 11.7417 7.25 12 7.25Z" fill="#161616"/>
</svg>
