<svg width="24" height="24" viewBox="0 0 24 24" fill="none" xmlns="http://www.w3.org/2000/svg">
<path d="M12.0576 1.75C14.2479 1.74999 15.9683 1.75012 17.3115 1.93066C18.6882 2.11575 19.7805 2.50313 20.6387 3.36133C21.4969 4.21953 21.8842 5.31182 22.0693 6.68848C22.2499 8.03174 22.25 9.75212 22.25 11.9424V12.0576C22.25 14.2479 22.2499 15.9683 22.0693 17.3115C21.8842 18.6882 21.4969 19.7805 20.6387 20.6387C19.7805 21.4969 18.6882 21.8842 17.3115 22.0693C15.9683 22.2499 14.2479 22.25 12.0576 22.25H11.9424C9.75212 22.25 8.03174 22.2499 6.68848 22.0693C5.31182 21.8842 4.21953 21.4969 3.36133 20.6387C2.50313 19.7805 2.11575 18.6882 1.93066 17.3115C1.75012 15.9683 1.74999 14.2479 1.75 12.0576V11.9424C1.74999 9.75212 1.75012 8.03174 1.93066 6.68848C2.11575 5.31182 2.50313 4.21953 3.36133 3.36133C4.21953 2.50313 5.31182 2.11575 6.68848 1.93066C8.03174 1.75012 9.75213 1.74999 11.9424 1.75H12.0576ZM12 3.25C9.73963 3.25 8.1196 3.25137 6.8877 3.41699C5.67747 3.57972 4.9549 3.88885 4.42188 4.42188C3.88885 4.9549 3.57972 5.67747 3.41699 6.8877C3.25137 8.1196 3.25 9.73963 3.25 12C3.25 14.2604 3.25137 15.8804 3.41699 17.1123C3.57972 18.3225 3.88885 19.0451 4.42188 19.5781C4.9549 20.1111 5.67747 20.4203 6.8877 20.583C8.1196 20.7486 9.73963 20.75 12 20.75C14.2604 20.75 15.8804 20.7486 17.1123 20.583C18.3225 20.4203 19.0451 20.1111 19.5781 19.5781C20.1111 19.0451 20.4203 18.3225 20.583 17.1123C20.7486 15.8804 20.75 14.2604 20.75 12C20.75 9.73963 20.7486 8.1196 20.583 6.8877C20.4203 5.67747 20.1111 4.9549 19.5781 4.42188C19.0451 3.88885 18.3225 3.57972 17.1123 3.41699C15.8804 3.25137 14.2604 3.25 12 3.25ZM12.9619 8.97754C13.2505 8.68061 13.7254 8.67349 14.0225 8.96191C14.1137 9.05062 14.296 9.19696 14.5674 9.41016C14.5869 9.42552 14.6068 9.4412 14.627 9.45703C14.8691 9.6471 15.1537 9.86987 15.4248 10.0996C15.7151 10.3456 16.0165 10.6212 16.251 10.8965C16.3684 11.0344 16.4847 11.1902 16.5742 11.3574C16.6606 11.5189 16.75 11.7417 16.75 12C16.75 12.2583 16.6606 12.4811 16.5742 12.6426C16.4847 12.8098 16.3684 12.9656 16.251 13.1035C16.0165 13.3788 15.7151 13.6544 15.4248 13.9004C15.1537 14.1301 14.8691 14.3529 14.627 14.543C14.6068 14.5588 14.5869 14.5745 14.5674 14.5898C14.296 14.803 14.1137 14.9494 14.0225 15.0381C13.7254 15.3265 13.2505 15.3194 12.9619 15.0225C12.6735 14.7254 12.6806 14.2505 12.9775 13.9619C13.1391 13.8049 13.3961 13.6032 13.6406 13.4111C13.6594 13.3964 13.6783 13.3811 13.6973 13.3662C13.943 13.1733 14.2064 12.9666 14.4551 12.7559C14.4574 12.7539 14.4596 12.7519 14.4619 12.75H8C7.58579 12.75 7.25 12.4142 7.25 12C7.25 11.5858 7.58579 11.25 8 11.25H14.4619C14.4596 11.2481 14.4574 11.2461 14.4551 11.2441C14.2064 11.0335 13.943 10.8267 13.6973 10.6338C13.6783 10.6189 13.6594 10.6036 13.6406 10.5889C13.3961 10.3968 13.1391 10.1951 12.9775 10.0381C12.6806 9.74948 12.6735 9.27458 12.9619 8.97754Z" fill="#161616"/>
</svg>
