<svg width="80" height="54" viewBox="0 0 80 54" fill="none" xmlns="http://www.w3.org/2000/svg">
<path d="M48.03 0.97168H47.1299V1.86964H48.03V0.97168Z" fill="white"/>
<path d="M66.737 12.1348H65.8369V13.0327H66.737V12.1348Z" fill="white"/>
<path d="M76.7741 11.1736C76.9953 11.0683 77.1736 10.9179 77.309 10.7182C77.4443 10.5205 77.5388 10.2799 77.5947 10.0006C77.6505 9.71923 77.6785 9.40344 77.6785 9.05328V2.76758H76.7784V9.05328C76.7784 9.30677 76.7655 9.52159 76.7397 9.69775C76.7139 9.8739 76.6688 10.0157 76.6044 10.1252C76.5399 10.2327 76.454 10.3121 76.3466 10.3615C76.237 10.411 76.0974 10.4346 75.9255 10.4346C75.8439 10.4346 75.7708 10.4303 75.7128 10.4238C75.6527 10.4174 75.5711 10.3981 75.4658 10.368L75.2295 11.2316C75.4765 11.3003 75.7214 11.3325 75.9599 11.3325C76.28 11.3304 76.5528 11.2788 76.7741 11.1736Z" fill="white"/>
<path d="M73.6816 1.17508H72.4464V0.9667C72.4464 0.852845 72.47 0.764768 72.5195 0.702469C72.5603 0.650912 72.6569 0.625133 72.7966 0.625133H73.4153V0H72.7815C72.4378 0 72.1693 0.0902254 71.9888 0.268528C71.8062 0.44683 71.7139 0.738989 71.7139 1.13211V1.86466H73.6838L73.6816 1.17508Z" fill="white"/>
<path d="M64.9372 12.1348H64.0371V13.0327H64.9372V12.1348Z" fill="white"/>
<path d="M49.8298 0.97168H48.9297V1.86964H49.8298V0.97168Z" fill="white"/>
<path d="M69.6278 8.14888C69.9694 8.39163 70.3647 8.57208 70.8136 8.68808C71.2626 8.80409 71.7395 8.86209 72.2422 8.86209H72.4807L72.7836 8.22836V9.11988C72.7836 9.59034 72.6482 9.92761 72.3797 10.1295C72.109 10.3315 71.7309 10.4324 71.2433 10.4324C70.9662 10.4324 70.717 10.4067 70.4957 10.353C70.2744 10.3014 70.0209 10.2112 69.7374 10.0844L69.456 10.948C69.7997 11.0748 70.1069 11.1714 70.3733 11.2337C70.6396 11.2982 70.9082 11.3282 71.1767 11.3282C72.0532 11.3282 72.6912 11.1199 73.0886 10.7053C73.486 10.2885 73.6837 9.72997 73.6837 9.0275V2.76758H72.2444C71.6901 2.76758 71.1831 2.84706 70.7256 3.00388C70.268 3.1607 69.877 3.37553 69.5505 3.64835C69.224 3.92118 68.9705 4.2477 68.7922 4.62579C68.6117 5.00388 68.5215 5.41419 68.5215 5.85458C68.5215 6.38519 68.6203 6.84061 68.8201 7.2187C69.0156 7.59464 69.2863 7.90613 69.6278 8.14888ZM69.6278 4.96736C69.7653 4.69883 69.9501 4.46897 70.1778 4.27778C70.4055 4.08659 70.6676 3.94051 70.9597 3.83525C71.2433 3.73428 71.5376 3.68272 71.8426 3.68057V3.67843H73.297L72.7836 3.93406V7.96628H71.8727C71.5354 7.96628 71.2197 7.91902 70.9232 7.8245C70.6267 7.73212 70.3668 7.59464 70.1412 7.41419C69.9157 7.23374 69.7395 7.01462 69.6128 6.75253C69.486 6.49045 69.4216 6.19185 69.4216 5.85458C69.4194 5.53234 69.4882 5.23589 69.6278 4.96736Z" fill="white"/>
<path d="M47.3738 11.2058H49.2428V10.5334C49.2599 10.5656 49.2793 10.5979 49.2986 10.6258C49.434 10.8234 49.6123 10.9759 49.8335 11.0812C50.0548 11.1865 50.3255 11.238 50.6477 11.238H67.0494V2.76758H66.1493V10.3422H65.2148H50.6799C50.5081 10.3422 50.3663 10.3186 50.2589 10.2692C50.1515 10.2198 50.0634 10.1424 50.0011 10.0329C49.9388 9.92331 49.8937 9.78153 49.8657 9.60537C49.84 9.42922 49.8271 9.2144 49.8271 8.96091V2.76758H47.3953C44.9076 2.76758 43.2148 4.7375 43.2148 6.98669V7.01032C43.217 9.25951 44.8862 11.2058 47.3738 11.2058ZM44.1751 6.96306C44.1751 5.10914 45.507 3.61828 47.3738 3.61828H49.4791L48.927 3.89325V8.96091C48.927 9.31321 48.9549 9.629 49.0108 9.90827C49.043 10.0715 49.0902 10.2198 49.1504 10.3551H47.3953C45.5263 10.3551 44.1729 8.84061 44.1729 6.98669V6.96306H44.1751Z" fill="white"/>
<path d="M38.7156 8.97497L39.1087 10.0104L33.3944 2.75586H32.5029V11.1876H33.431V4.83319L32.9025 3.60441L38.8853 11.1876H39.6458V2.75586H38.7156V8.97497Z" fill="white"/>
<path d="M51.5287 24.6572L56.7145 19.7141V16.3242H42.8542V20.1846H49.9605L52.5964 18.4918L46.0164 25.0976L46.721 27.9633H48.5964C51.1162 27.9633 52.6114 28.8999 52.6114 30.5669V30.6249C52.6114 32.1459 51.4105 33.1104 49.7113 33.1104C47.6318 33.1104 46.1667 32.234 44.7596 30.6529L41.6533 33.6067C43.4106 35.684 45.9605 37.1448 49.6533 37.1448C54.2247 37.1448 57.0367 34.307 57.0367 30.4466V30.3886C57.0389 26.5884 54.3128 25.1255 51.5287 24.6572Z" fill="white"/>
<path d="M26.6482 2.6123C24.0789 2.6123 22.3281 4.64667 22.3281 6.9732V6.99683C22.3281 9.32121 24.0531 11.3319 26.6246 11.3319C29.1938 11.3319 30.9447 9.29757 30.9447 6.9732V6.94957C30.9425 4.62304 29.2175 2.6123 26.6482 2.6123ZM29.9543 6.99683C29.9543 8.91089 28.5795 10.4533 26.6482 10.4533C24.717 10.4533 23.3185 8.88726 23.3185 6.9732V6.94957C23.3185 5.0355 24.6955 3.49308 26.6246 3.49308C28.5558 3.49308 29.9543 5.05913 29.9543 6.9732V6.99683Z" fill="white"/>
<path d="M69.1304 15.9717C62.8017 15.9717 58.2002 20.7386 58.2002 26.5581V26.6161C58.2002 32.4357 62.7415 37.1446 69.0702 37.1446C75.3989 37.1446 80.0004 32.3777 80.0004 26.5581V26.5001C80.0025 20.6806 75.459 15.9717 69.1304 15.9717ZM75.285 26.6161C75.285 30.1263 72.7651 32.9921 69.1304 32.9921C65.4977 32.9921 62.9177 30.0683 62.9177 26.5581V26.5001C62.9177 22.9899 65.4376 20.1242 69.0702 20.1242C72.7028 20.1242 75.2829 23.0479 75.2829 26.5581L75.285 26.6161Z" fill="white"/>
<path d="M20.6823 2.75586H19.7285V11.1855H20.6823V2.75586Z" fill="white"/>
<path d="M4.41598 34.4556L5.28601 33.7853L9.76935 30.331C13.402 27.5233 15.1614 25.8283 15.1614 22.4062V22.3482C15.1614 18.5158 12.3494 16.0303 8.10018 16.0303C4.43746 16.0303 2.47398 17.5211 0.452507 20.2709L3.61684 22.8144C5.13993 20.9433 6.22478 20.0668 7.80802 20.0668C9.41919 20.0668 10.562 21.0034 10.562 22.7284C10.562 24.4234 9.56527 25.5362 7.01748 27.6414L0.19043 33.2268V36.795H15.3698V32.9046H7.54809L4.41598 34.4556Z" fill="white"/>
<path d="M4.47689 11.2478L8.10739 2.75586H7.08269L4.21266 9.66669L4.30289 10.5947L4.06658 10.019L1.58109 4.01257L1.06122 2.75586H0L3.63264 11.2478H4.47689Z" fill="white"/>
<path d="M10.3571 2.75586H9.40332V11.1855H10.3571V2.75586Z" fill="white"/>
<path d="M15.4065 6.51407C13.5483 6.11665 13.1143 5.67196 13.1143 4.87712V4.85349C13.1143 4.09517 13.8146 3.49367 14.9124 3.49367C15.7803 3.49367 16.5665 3.77079 17.3506 4.40881L17.9049 3.67412C17.0477 2.98668 16.167 2.63867 14.936 2.63867C13.3313 2.63867 12.1605 3.61397 12.1605 4.93942V4.96305C12.1605 6.34865 13.0542 6.97379 14.9962 7.39699C16.7706 7.77078 17.1917 8.21546 17.1917 8.99956V9.02319C17.1917 9.85455 16.4441 10.4561 15.3098 10.4561C14.139 10.4561 13.2948 10.0586 12.414 9.26379L11.8232 9.96197C12.8372 10.8664 13.9349 11.3111 15.2733 11.3111C16.9511 11.3111 18.1562 10.3723 18.1562 8.92652V8.90289C18.1562 7.61181 17.2883 6.92438 15.4065 6.51407Z" fill="white"/>
<path d="M27.6247 14.626L28.6644 15.6206L27.6677 16.6582L26.6279 15.6636L27.6247 14.626Z" fill="white"/>
<path d="M30.0029 15.6636L31.0405 16.6582L32.0373 15.6206L30.9997 14.626L30.0029 15.6636Z" fill="white"/>
<path d="M28.5391 16.9689L29.3489 17.7444L30.1245 16.9366L29.3146 16.1611L28.5391 16.9689Z" fill="white"/>
<path d="M31.5059 17.4111L32.3136 18.1866L33.0891 17.3788L32.2814 16.6055L31.5059 17.4111Z" fill="white"/>
<path d="M27.2168 18.2021L28.0267 18.9776L28.8022 18.1698L27.9945 17.3965L27.2168 18.2021Z" fill="white"/>
<path d="M29.9316 18.297L30.7394 19.0725L31.5149 18.2648L30.7071 17.4893L29.9316 18.297Z" fill="white"/>
<path d="M28.8721 19.2253L29.4392 19.771L29.987 19.2039L29.4177 18.6582L28.8721 19.2253Z" fill="white"/>
<path d="M31.0166 19.6542L31.5837 20.1977L32.1315 19.6306L31.5623 19.085L31.0166 19.6542Z" fill="white"/>
<path d="M37.4714 15.0106L35.707 15.334L36.0301 17.0962L37.7944 16.7728L37.4714 15.0106Z" fill="white"/>
<path d="M34.821 15.8072L33.4053 16.0664L33.6641 17.48L35.0798 17.2208L34.821 15.8072Z" fill="white"/>
<path d="M37.5534 17.7862L36.1377 18.0459L36.397 19.4595L37.8127 19.1998L37.5534 17.7862Z" fill="white"/>
<path d="M35.2905 18.0421L34.1875 18.2441L34.3892 19.345L35.4922 19.1429L35.2905 18.0421Z" fill="white"/>
<path d="M37.4389 20.1329L36.3359 20.335L36.5376 21.4358L37.6406 21.2338L37.4389 20.1329Z" fill="white"/>
<path d="M33.6391 18.4923L32.5361 18.6943L32.7378 19.7952L33.8408 19.5931L33.6391 18.4923Z" fill="white"/>
<path d="M35.6411 19.9327L34.5381 20.1348L34.7398 21.2356L35.8428 21.0336L35.6411 19.9327Z" fill="white"/>
<path d="M33.9053 20.1264L33.1299 20.2686L33.2716 21.0419L34.0471 20.8998L33.9053 20.1264Z" fill="white"/>
<path d="M35.3966 21.7264L34.6211 21.8682L34.7625 22.6416L35.538 22.4998L35.3966 21.7264Z" fill="white"/>
<path d="M40.9538 21.1045L40.1826 22.7221L41.8024 23.4912L42.5736 21.8757L40.9538 21.1045Z" fill="white"/>
<path d="M38.6519 20.3574L38.0332 21.6549L39.3329 22.2736L39.9516 20.9761L38.6519 20.3574Z" fill="white"/>
<path d="M39.7144 23.5537L39.0957 24.8512L40.3975 25.4678L41.0162 24.1724L39.7144 23.5537Z" fill="white"/>
<path d="M38.0124 22.5801L37.5312 23.5919L38.5431 24.0709L39.0264 23.0613L38.0124 22.5801Z" fill="white"/>
<path d="M38.5263 25.5303L38.043 26.5399L39.0548 27.0211L39.5381 26.0093L38.5263 25.5303Z" fill="white"/>
<path d="M36.4099 21.9785L35.9287 22.9903L36.9405 23.4694L37.4239 22.4597L36.4099 21.9785Z" fill="white"/>
<path d="M37.1884 24.3164L36.7051 25.3282L37.719 25.8073L38.2002 24.7976L37.1884 24.3164Z" fill="white"/>
<path d="M35.9713 23.6045L35.6318 24.3156L36.345 24.6528L36.6823 23.9418L35.9713 23.6045Z" fill="white"/>
<path d="M36.2431 25.7783L35.9053 26.4883L36.6172 26.8271L36.955 26.1171L36.2431 25.7783Z" fill="white"/>
<path d="M41.8254 28.8506L40.2529 29.7099L41.1165 31.2802L42.689 30.4209L41.8254 28.8506Z" fill="white"/>
<path d="M40.3989 26.9004L39.1357 27.5921L39.8296 28.851L41.0906 28.1592L40.3989 26.9004Z" fill="white"/>
<path d="M39.386 30.1143L38.125 30.806L38.8167 32.0648L40.0799 31.3731L39.386 30.1143Z" fill="white"/>
<path d="M38.5757 28.3291L37.5918 28.8683L38.131 29.8479L39.1149 29.3108L38.5757 28.3291Z" fill="white"/>
<path d="M37.2659 31.0205L36.2842 31.5597L36.8234 32.5393L37.8051 32.0022L37.2659 31.0205Z" fill="white"/>
<path d="M37.6292 26.9062L36.6475 27.4433L37.1845 28.425L38.1684 27.8858L37.6292 26.9062Z" fill="white"/>
<path d="M36.8911 29.2578L35.9072 29.7949L36.4464 30.7766L37.4303 30.2374L36.8911 29.2578Z" fill="white"/>
<path d="M36.3206 27.9678L35.6289 28.3459L36.0091 29.0354L36.6987 28.6574L36.3206 27.9678Z" fill="white"/>
<path d="M35.2699 29.8848L34.5781 30.2629L34.9584 30.9524L35.6501 30.5743L35.2699 29.8848Z" fill="white"/>
<path d="M36.2197 35.424L36 37.2021L37.7803 37.4221L38 35.6439L36.2197 35.424Z" fill="white"/>
<path d="M36.5459 33.0474L36.3691 34.4736L37.7975 34.6507L37.9743 33.2244L36.5459 33.0474Z" fill="white"/>
<path d="M33.8438 35.064L33.667 36.4902L35.0954 36.6673L35.2721 35.241L33.8438 35.064Z" fill="white"/>
<path d="M34.5446 33.1793L34.4072 34.29L35.5201 34.4276L35.6574 33.3169L34.5446 33.1793Z" fill="white"/>
<path d="M31.903 34.5953L31.7656 35.7061L32.8785 35.8436L33.0158 34.7329L31.903 34.5953Z" fill="white"/>
<path d="M34.6133 31.4772L34.4756 32.5879L35.5884 32.7258L35.7261 31.6151L34.6133 31.4772Z" fill="white"/>
<path d="M32.6367 32.9508L32.499 34.0615L33.6119 34.1995L33.7495 33.0887L32.6367 32.9508Z" fill="white"/>
<path d="M33.2596 31.6104L33.1631 32.3906L33.9455 32.4874L34.042 31.7072L33.2596 31.6104Z" fill="white"/>
<path d="M31.2859 32.5469L31.1895 33.3271L31.9719 33.4239L32.0683 32.6436L31.2859 32.5469Z" fill="white"/>
<path d="M30.9052 38.9094L29.5905 37.6914L28.3682 39.004L29.6829 40.222L30.9052 38.9094Z" fill="white"/>
<path d="M30.663 13.8216L29.3483 12.6035L28.126 13.9161L29.4428 15.1341L30.663 13.8216Z" fill="white"/>
<path d="M32.3068 36.9433L31.2521 35.9658L30.2725 37.0184L31.3272 37.9959L32.3068 36.9433Z" fill="white"/>
<path d="M28.934 36.9989L27.8771 36.0215L26.8975 37.0741L27.9544 38.0516L28.934 36.9989Z" fill="white"/>
<path d="M30.3752 35.6698L29.5546 34.9072L28.792 35.7278L29.6126 36.4883L30.3752 35.6698Z" fill="white"/>
<path d="M27.4026 35.2741L26.582 34.5137L25.8193 35.3321L26.6421 36.0948L27.4026 35.2741Z" fill="white"/>
<path d="M31.4289 34.322L30.6083 33.5615L29.8457 34.38L30.6663 35.1426L31.4289 34.322Z" fill="white"/>
<path d="M28.9602 34.363L28.1396 33.6025L27.377 34.421L28.1976 35.1836L28.9602 34.363Z" fill="white"/>
<path d="M30.0075 33.4179L29.4296 32.8809L28.8926 33.4587L29.4704 33.9936L30.0075 33.4179Z" fill="white"/>
<path d="M27.8542 33.0251L27.2763 32.4902L26.7393 33.066L27.3171 33.6009L27.8542 33.0251Z" fill="white"/>
<path d="M22.8877 35.6651L21.1289 36.0176L21.481 37.7743L23.2397 37.4218L22.8877 35.6651Z" fill="white"/>
<path d="M25.253 35.2359L23.8418 35.5186L24.1241 36.9277L25.5353 36.645L25.253 35.2359Z" fill="white"/>
<path d="M22.4757 33.3184L21.0645 33.6016L21.3471 35.0107L22.7584 34.7276L22.4757 33.3184Z" fill="white"/>
<path d="M24.494 33.3843L23.3945 33.6045L23.6143 34.7019L24.7139 34.4817L24.494 33.3843Z" fill="white"/>
<path d="M26.1386 32.9067L25.0391 33.127L25.2589 34.2244L26.3584 34.0041L26.1386 32.9067Z" fill="white"/>
<path d="M24.1142 31.5024L23.0146 31.7227L23.2345 32.8201L24.334 32.5998L24.1142 31.5024Z" fill="white"/>
<path d="M25.57 31.6744L24.7969 31.8291L24.9511 32.6001L25.7242 32.4454L25.57 31.6744Z" fill="white"/>
<path d="M24.0543 30.0969L23.2812 30.252L23.4359 31.0229L24.2089 30.8678L24.0543 30.0969Z" fill="white"/>
<path d="M17.8953 31.7378L18.6408 30.1073L17.006 29.3662L16.2627 30.9946L17.8953 31.7378Z" fill="white"/>
<path d="M20.2098 32.4463L20.8049 31.1402L19.4966 30.543L18.8994 31.8512L20.2098 32.4463Z" fill="white"/>
<path d="M19.0907 29.2695L19.6879 27.9613L18.3775 27.3662L17.7803 28.6745L19.0907 29.2695Z" fill="white"/>
<path d="M20.2622 28.7287L19.7979 29.7471L20.8182 30.2123L21.2826 29.1939L20.2622 28.7287Z" fill="white"/>
<path d="M22.1776 32.7606L22.6416 31.7423L21.6212 31.2783L21.1572 32.2966L22.1776 32.7606Z" fill="white"/>
<path d="M19.6912 25.7962L19.2266 26.8145L20.2468 27.2799L20.7114 26.2617L19.6912 25.7962Z" fill="white"/>
<path d="M21.8669 29.3108L21.4023 30.3291L22.4226 30.7946L22.8872 29.7763L21.8669 29.3108Z" fill="white"/>
<path d="M21.047 26.9751L20.582 27.9932L21.602 28.459L22.067 27.4409L21.047 26.9751Z" fill="white"/>
<path d="M22.8347 29.1552L23.1634 28.4398L22.4459 28.1133L22.1172 28.8308L22.8347 29.1552Z" fill="white"/>
<path d="M22.53 26.9942L22.8565 26.2767L22.139 25.9502L21.8125 26.6677L22.53 26.9942Z" fill="white"/>
<path d="M16.8943 24.0089L18.4539 23.1217L17.5645 21.5664L16.0049 22.4536L16.8943 24.0089Z" fill="white"/>
<path d="M18.3529 25.9328L19.6053 25.2218L18.8899 23.9736L17.6396 24.6847L18.3529 25.9328Z" fill="white"/>
<path d="M19.3109 22.7043L20.5611 21.9932L19.8479 20.7451L18.5977 21.4562L19.3109 22.7043Z" fill="white"/>
<path d="M20.1519 24.4745L21.125 23.9202L20.5708 22.9492L19.5977 23.5035L20.1519 24.4745Z" fill="white"/>
<path d="M21.4187 21.7637L22.3918 21.2095L21.8376 20.2363L20.8623 20.7906L21.4187 21.7637Z" fill="white"/>
<path d="M21.1228 25.8817L22.0959 25.3274L21.5417 24.3564L20.5664 24.9107L21.1228 25.8817Z" fill="white"/>
<path d="M21.823 23.5215L22.7961 22.9673L22.2419 21.9941L21.2666 22.5505L21.823 23.5215Z" fill="white"/>
<path d="M22.4144 24.7995L23.0997 24.4107L22.7087 23.7275L22.0234 24.1164L22.4144 24.7995Z" fill="white"/>
<path d="M23.433 22.8681L24.1183 22.4771L23.7273 21.7939L23.042 22.1828L23.433 22.8681Z" fill="white"/>
<path d="M20.8018 15.367L20.6113 17.1484L22.3949 17.3391L22.5853 15.5577L20.8018 15.367Z" fill="white"/>
<path d="M20.8189 18.1365L20.666 19.5654L22.0971 19.7186L22.25 18.2896L20.8189 18.1365Z" fill="white"/>
<path d="M23.4918 16.0749L23.3389 17.5039L24.77 17.657L24.9229 16.2281L23.4918 16.0749Z" fill="white"/>
<path d="M23.0948 18.3217L22.9756 19.4346L24.0906 19.554L24.2098 18.4412L23.0948 18.3217Z" fill="white"/>
<path d="M25.7242 16.8704L25.6055 17.9834L26.7206 18.1024L26.8393 16.9894L25.7242 16.8704Z" fill="white"/>
<path d="M23.0626 20.0297L22.9434 21.1426L24.0583 21.262L24.1775 20.1492L23.0626 20.0297Z" fill="white"/>
<path d="M25.0137 18.5229L24.8945 19.6357L26.0095 19.7552L26.1287 18.6423L25.0137 18.5229Z" fill="white"/>
<path d="M24.7077 20.2358L24.624 21.0176L25.4079 21.1015L25.4916 20.3197L24.7077 20.2358Z" fill="white"/>
<path d="M26.6662 19.2689L26.583 20.0508L27.367 20.1342L27.4502 19.3523L26.6662 19.2689Z" fill="white"/>
<path d="M35.0529 27.5126C34.9197 27.4374 34.6769 27.3107 34.3418 27.2054C33.8585 27.0507 33.1839 26.9347 32.3848 27.0615C32.1163 27.1044 31.8327 27.1753 31.5384 27.2806C31.5105 27.2913 31.4825 27.2999 31.4546 27.3107C31.3042 27.3665 31.156 27.4353 31.0056 27.5105C30.8767 27.5749 30.75 27.6458 30.6232 27.7231C30.3332 27.8971 30.0475 28.0948 29.7704 28.3096C29.4546 26.3998 29.6093 24.6275 29.6823 23.7575C29.6823 23.7532 29.6888 23.7511 29.6931 23.7532C30.3697 24.1786 30.1807 25.3665 30.0368 25.7081C30.0346 25.7145 30.0432 25.7188 30.0497 25.7145C30.8918 24.7199 30.4815 23.62 30.3075 23.3429C30.3032 23.3365 30.3117 23.33 30.3182 23.3343C30.4406 23.4331 30.5395 23.5384 30.6232 23.6458C30.8832 23.9788 30.9798 24.3375 31.0056 24.6555C31.0185 24.823 31.0142 24.9777 31.0056 25.1109C31.0035 25.1474 31.0013 25.1796 30.997 25.2119C30.997 25.2162 31.0013 25.2183 31.0056 25.2162C31.0078 25.2162 31.0099 25.2162 31.0099 25.214C31.2376 24.7672 31.3472 24.0926 31.0056 23.4374C30.9133 23.2591 30.7887 23.083 30.6232 22.9133C30.576 22.8638 30.5244 22.8166 30.4707 22.7672C30.4664 22.7629 30.4707 22.7543 30.4772 22.7564C30.5287 22.7693 30.576 22.7844 30.6232 22.7994C30.7672 22.8488 30.8939 22.9176 31.0056 23.0013C31.2613 23.1904 31.4353 23.4482 31.5384 23.7188C31.6243 23.9423 31.663 24.1721 31.663 24.3762C31.663 24.3848 31.6737 24.3848 31.6759 24.3783C31.8348 23.7962 31.7382 23.3558 31.5384 23.0357C31.3966 22.8058 31.2011 22.6383 31.0056 22.5201C30.8724 22.4406 30.7392 22.3848 30.6232 22.3504C30.5545 22.3289 30.4943 22.316 30.4406 22.3096C30.432 22.3096 30.4342 22.2967 30.4428 22.2967C30.5051 22.2903 30.5652 22.2881 30.6232 22.286C30.765 22.2838 30.8918 22.2967 31.0056 22.316C31.2312 22.359 31.4073 22.4364 31.5384 22.5266C31.7532 22.6705 31.8606 22.8402 31.8971 22.909C31.8993 22.9154 31.91 22.9111 31.91 22.9047C31.88 22.5975 31.7382 22.3569 31.5405 22.185C31.388 22.0518 31.2011 21.9594 31.0078 21.9036C30.881 21.8692 30.7521 21.8499 30.6254 21.8477C30.4535 21.8456 30.2881 21.8735 30.1485 21.9337C30.142 21.9358 30.1377 21.9294 30.1399 21.9229C30.2645 21.7446 30.4406 21.6372 30.6254 21.5792C30.7543 21.5405 30.8853 21.5255 31.0078 21.5341C31.1259 21.5405 31.2333 21.5663 31.3214 21.6071C31.3279 21.6093 31.3322 21.6028 31.3279 21.5964C31.2312 21.4868 31.1216 21.4009 31.0078 21.3365C30.8853 21.2677 30.7564 21.2269 30.6254 21.2119C30.2838 21.1732 29.9358 21.3193 29.7038 21.6694C29.7017 21.6737 29.6952 21.6737 29.6931 21.6694C29.6479 21.59 29.605 21.5019 29.5663 21.4095C29.4739 21.1947 29.3988 20.9541 29.3579 20.7135C29.3558 20.7049 29.3472 20.7049 29.3472 20.7135C29.3064 20.9541 29.229 21.1968 29.1367 21.4116C29.0959 21.504 29.055 21.59 29.0099 21.6673C29.0078 21.6716 29.0013 21.6716 28.9992 21.6673C28.5953 21.055 27.837 21.0679 27.3751 21.5964C27.3708 21.6007 27.3751 21.6093 27.3816 21.6071C27.6888 21.4611 28.2709 21.504 28.5631 21.9229C28.5674 21.9294 28.5609 21.9358 28.5545 21.9337C28.1055 21.7446 27.4095 21.8671 27.0379 22.3096C26.9047 22.4664 26.8144 22.6662 26.7908 22.9047C26.7908 22.9111 26.7994 22.9154 26.8037 22.909C26.8316 22.8553 26.9047 22.7392 27.0379 22.6211C27.2548 22.4299 27.6329 22.2366 28.258 22.2946C28.2666 22.2967 28.2666 22.3075 28.2602 22.3075C27.9401 22.3461 27.2806 22.6318 27.0379 23.2849C26.9304 23.5728 26.9025 23.9337 27.0228 24.3762C27.025 24.3826 27.0357 24.3826 27.0357 24.374C27.0357 24.3633 27.0357 24.3547 27.0379 24.344C27.0443 23.7511 27.3837 22.9562 28.2237 22.7543C28.2301 22.7521 28.2344 22.7607 28.2301 22.765C27.2913 23.5899 27.3837 24.6082 27.6909 25.2097C27.6952 25.2162 27.7038 25.214 27.7038 25.2076C27.663 24.7521 27.6308 23.9423 28.3826 23.33C28.3891 23.3257 28.3977 23.3322 28.3934 23.3386C28.2194 23.6179 27.8091 24.7156 28.6512 25.7102C28.6555 25.7167 28.6662 25.7124 28.6641 25.7038C28.5223 25.3644 28.3332 24.1743 29.0078 23.7489C29.0121 23.7468 29.0185 23.7489 29.0185 23.7532C29.0916 24.6232 29.2462 26.3955 28.9304 28.3053C28.3869 27.8885 27.8134 27.5233 27.2462 27.3085C27.1753 27.2827 27.1066 27.2591 27.04 27.2355C26.4535 27.0421 25.9165 26.9884 25.4482 27.0099C24.6963 27.0421 24.1206 27.2677 23.8048 27.4245C23.7403 27.4567 23.6866 27.4868 23.6458 27.5105C23.6286 27.5212 23.6415 27.5448 23.6587 27.5384C23.7081 27.5233 23.7554 27.5083 23.8048 27.4954C24.3826 27.3321 24.9304 27.2892 25.4482 27.3343C26.0131 27.3837 26.5438 27.5384 27.04 27.7618C27.736 28.0754 28.3655 28.5223 28.9347 28.9949C28.1313 29.6952 27.4525 30.3762 27.04 30.6146C27.0185 30.6254 26.9992 30.6383 26.9799 30.649C26.881 30.5137 26.7092 30.4363 26.5223 30.4771C26.359 30.5137 26.2258 30.6447 26.1893 30.8058C26.1571 30.9498 26.1936 31.1066 26.2752 31.1882C26.4944 31.4073 26.7478 31.4224 27.04 31.2999C27.5964 31.0658 28.2881 30.3311 29.1367 29.5534C29.2076 29.489 29.2785 29.4224 29.3515 29.3579C29.4245 29.4224 29.4954 29.4868 29.5663 29.5513C29.9508 29.9036 30.3032 30.2473 30.6254 30.5394C30.7586 30.6597 30.8853 30.7715 31.0078 30.8703C31.1968 31.0249 31.3751 31.1517 31.5405 31.2398C31.8649 31.4116 32.1463 31.4331 32.3869 31.2204C32.3998 31.2097 32.4127 31.199 32.4256 31.1861C32.4815 31.1302 32.5459 30.9476 32.5115 30.8037C32.4922 30.7199 32.4471 30.6447 32.3848 30.5867C32.3289 30.533 32.2559 30.4922 32.1786 30.475C31.9917 30.4342 31.8198 30.5115 31.721 30.6469C31.6651 30.6189 31.605 30.5803 31.5384 30.5352C31.3859 30.4299 31.2076 30.2817 31.0056 30.1055C30.8853 30.0002 30.7586 29.8842 30.6232 29.7618C30.3612 29.5233 30.0733 29.2613 29.7682 28.9927C30.0389 28.7672 30.3246 28.548 30.6232 28.3461C30.7478 28.2623 30.8746 28.1807 31.0056 28.1034C31.1796 28.0002 31.3558 27.9057 31.5384 27.8176C31.8112 27.6866 32.0926 27.577 32.3848 27.4933C32.9906 27.3193 33.6415 27.2613 34.3418 27.373C34.5695 27.4095 34.8015 27.4632 35.04 27.5362C35.0572 27.547 35.0701 27.5233 35.0529 27.5126Z" fill="white"/>
<path d="M4.69448 47.0205H4.16602V47.549H4.69448V47.0205Z" fill="white"/>
<path d="M39.7471 46.4106V42.9219H39.2315V45.895H37.2873V42.9219H36.7718V45.895H34.7245V42.9219H33.9146C33.5924 42.9219 33.3002 42.9648 33.0382 43.0529C32.7761 43.141 32.5527 43.2634 32.3679 43.4181C32.1832 43.5749 32.0414 43.7597 31.9404 43.9745C31.8394 44.1893 31.79 44.4192 31.79 44.6684C31.79 44.9734 31.848 45.2334 31.964 45.4525C32.08 45.6716 32.2347 45.8499 32.4281 45.9917C32.6214 46.1335 32.847 46.2387 33.1048 46.3053C33.3625 46.3741 33.6332 46.4084 33.9168 46.4084L39.7471 46.4106ZM33.1585 45.8134C32.9887 45.7575 32.8405 45.678 32.7138 45.5728C32.587 45.4675 32.4882 45.3386 32.4152 45.1883C32.3421 45.0357 32.3056 44.8639 32.3056 44.6705C32.3056 44.4858 32.3464 44.3182 32.4259 44.1657C32.5054 44.0132 32.6107 43.8843 32.7417 43.7747C32.8727 43.6652 33.021 43.5814 33.1885 43.5234C33.3561 43.4654 33.528 43.4375 33.7041 43.4375H34.2132V45.8972H33.7041C33.5108 45.8972 33.3282 45.8692 33.1585 45.8134Z" fill="white"/>
<path d="M29.2499 41.8008H28.7344V46.4109H29.2499V41.8008Z" fill="white"/>
<path d="M34.7248 41.8008H34.1963V42.3292H34.7248V41.8008Z" fill="white"/>
<path d="M39.7531 47.0146H39.2246V47.5431H39.7531V47.0146Z" fill="white"/>
<path d="M5.59683 47.0205H5.06836V47.549H5.59683V47.0205Z" fill="white"/>
<path d="M26.7186 45.8976H25.8765C25.5758 45.8976 25.3395 45.8547 25.1676 45.7687C24.9958 45.6828 24.8604 45.5539 24.7616 45.3842C24.7917 45.251 24.8067 45.0899 24.8067 44.903V43.2446H24.2912V44.9846C24.2912 45.2811 24.2117 45.5174 24.0527 45.6957C23.8937 45.874 23.6531 45.9621 23.3309 45.9621C23.1805 45.9621 23.043 45.9385 22.9184 45.8912C22.7938 45.8439 22.6864 45.7795 22.5962 45.6979C22.506 45.6162 22.4351 45.5217 22.3835 45.4121C22.332 45.3026 22.304 45.1866 22.2998 45.062V43.2446H21.7842V45.0233C21.7842 45.1823 21.7605 45.3155 21.7133 45.425C21.666 45.5346 21.6016 45.6248 21.5199 45.6957C21.4383 45.7666 21.3459 45.8182 21.2428 45.8504C21.1397 45.8826 21.0301 45.8976 20.9141 45.8976H19.9174V43.2446H19.4018V45.8976H16.6993L17.5994 43.7451C17.462 43.6248 17.3159 43.5131 17.1612 43.4078C17.0065 43.3026 16.8476 43.2102 16.6843 43.1307C16.521 43.0512 16.3556 42.9889 16.1881 42.9438C16.0205 42.8987 15.8551 42.8772 15.6918 42.8772C15.5243 42.8772 15.3567 42.9009 15.1891 42.9438C15.0216 42.9889 14.8562 43.0491 14.6907 43.1264C14.5253 43.2038 14.3664 43.2961 14.2138 43.4036C14.0613 43.511 13.9195 43.6227 13.7863 43.743L14.6929 45.8955H12.9099V42.9223H12.0871C11.7692 42.9223 11.4791 42.9675 11.2171 43.0577C10.955 43.1479 10.7316 43.2704 10.5447 43.4272C10.3578 43.584 10.2138 43.7709 10.1107 43.9857C10.0076 44.2027 9.95605 44.4368 9.95605 44.6903C9.95605 44.9954 10.0119 45.2553 10.1258 45.4701C10.2396 45.6871 10.3943 45.8654 10.5898 46.0029C10.7853 46.1425 11.0108 46.2457 11.2686 46.3101C11.5264 46.3767 11.7992 46.4089 12.0871 46.4089H12.3964V46.5571C12.3964 46.8278 12.3191 47.019 12.1644 47.135C12.0098 47.251 11.7928 47.309 11.5135 47.309C11.3545 47.309 11.2128 47.294 11.086 47.2639C10.9593 47.2338 10.8153 47.1823 10.6521 47.1092L10.491 47.6033C10.6886 47.6764 10.8626 47.7301 11.0151 47.7666C11.1677 47.8031 11.3202 47.8224 11.4749 47.8224C11.9775 47.8224 12.3406 47.7043 12.5683 47.4658C12.796 47.2274 12.9099 46.9073 12.9099 46.5056V46.4089H20.9099C21.159 46.4089 21.3803 46.3552 21.5758 46.2478C21.7713 46.1404 21.9281 45.9965 22.0484 45.8182C22.173 46.0244 22.3427 46.1855 22.5575 46.2994C22.7724 46.4154 23.028 46.4734 23.3245 46.4734C23.6338 46.4734 23.8959 46.4197 24.1129 46.3122C24.3298 46.2048 24.4952 46.0416 24.6112 45.8182C24.6542 45.8912 24.7058 45.9621 24.7681 46.033C24.8304 46.1039 24.9098 46.1662 25.0087 46.222C25.1075 46.2779 25.2278 46.323 25.3653 46.3574C25.4705 46.3831 25.5973 46.396 25.7348 46.4025V46.4089H27.2213V41.7988H26.7058V45.8976H26.7186ZM12.4029 45.8976H11.8809C11.6875 45.8976 11.5071 45.8719 11.3374 45.8182C11.1677 45.7644 11.0194 45.6871 10.8905 45.584C10.7616 45.4809 10.6607 45.3541 10.5876 45.2059C10.5146 45.0555 10.4781 44.8837 10.4781 44.6925C10.4781 44.5077 10.5167 44.3402 10.5962 44.1855C10.6757 44.0308 10.781 43.8998 10.912 43.7902C11.0431 43.6807 11.1913 43.5969 11.3588 43.5367C11.5264 43.4766 11.7004 43.4465 11.8809 43.4465H12.4029V45.8976ZM15.2428 45.8976L14.4394 43.9256C14.637 43.758 14.839 43.6356 15.0473 43.5604C15.2557 43.483 15.4727 43.4444 15.7004 43.4444C15.9324 43.4444 16.1623 43.4895 16.39 43.5819C16.6177 43.6742 16.811 43.7881 16.97 43.9256L16.1666 45.8976H15.2428Z" fill="white"/>
<path d="M2.93275 41.8008H2.4043V42.3292H2.93275V41.8008Z" fill="white"/>
<path d="M55.0119 41.8008H54.4834V42.3292H55.0119V41.8008Z" fill="white"/>
<path d="M50.4394 41.8008H49.9238V46.4109H50.4394V41.8008Z" fill="white"/>
<path d="M33.8224 41.8008H33.2939V42.3292H33.8224V41.8008Z" fill="white"/>
<path d="M9.14678 44.3887C9.14678 44.1868 9.121 43.9999 9.06515 43.8237C9.01144 43.6476 8.92981 43.4994 8.8181 43.3748C8.68062 43.2244 8.52809 43.1127 8.35838 43.0375C8.18867 42.9623 7.98244 42.9258 7.73755 42.9258H7.35731V43.4392H7.80843C7.93303 43.4392 8.05119 43.4671 8.1629 43.5187C8.2746 43.5724 8.36697 43.6411 8.44001 43.7271C8.51305 43.8173 8.56246 43.9161 8.59039 44.0235C8.61832 44.1309 8.63335 44.2598 8.63335 44.4081V45.8989H6.21875V46.4123H9.14678V44.3887Z" fill="white"/>
<path d="M77.6787 41.8008H77.1631V46.4109H77.6787V41.8008Z" fill="white"/>
<path d="M55.9152 41.8008H55.3867V42.3292H55.9152V41.8008Z" fill="white"/>
<path d="M75.6624 41.8008H75.1468V45.8974H73.3767C73.4841 45.6611 73.5378 45.4098 73.5378 45.1391C73.5378 44.8749 73.4884 44.6257 73.3939 44.398C73.2972 44.1681 73.1662 43.9705 72.9986 43.8051C72.831 43.6375 72.6334 43.5065 72.4035 43.4098C72.1737 43.3131 71.9266 43.2659 71.6602 43.2659C71.4025 43.2659 71.1619 43.3153 70.9384 43.4141C70.715 43.5129 70.5217 43.6461 70.3563 43.8158C70.1909 43.9855 70.062 44.1832 69.9674 44.4109C69.8729 44.6386 69.8257 44.8813 69.8257 45.1434C69.8257 45.2809 69.8407 45.4119 69.8686 45.5387C69.8966 45.6654 69.9331 45.7857 69.9803 45.9017H68.3842C68.4916 45.6654 68.5453 45.4141 68.5453 45.1434C68.5453 44.8792 68.4959 44.63 68.4014 44.4023C68.3047 44.1724 68.1737 43.9748 68.0061 43.8094C67.8386 43.6418 67.6409 43.5108 67.4111 43.4141C67.1812 43.3174 66.9342 43.2702 66.6678 43.2702C66.41 43.2702 66.1715 43.3196 65.9481 43.4184C65.7247 43.5172 65.5314 43.6504 65.366 43.8201C65.2005 43.9898 65.0716 44.1875 64.9771 44.4152C64.8826 44.6429 64.8353 44.8856 64.8353 45.1477C64.8353 45.2852 64.8504 45.4162 64.8783 45.543C64.9062 45.6697 64.9428 45.79 64.99 45.906H63.3552V41.8094H62.8396V45.906H61.1984V45.1198C61.1984 44.9221 61.1726 44.7353 61.1211 44.557C61.0695 44.3786 60.9879 44.2283 60.8762 44.1037C60.743 43.9533 60.5926 43.8416 60.425 43.7686C60.2575 43.6955 60.0448 43.659 59.787 43.659H57.5078L58.4766 41.8072H57.9159L56.9277 43.6526C56.9449 43.7643 56.9707 43.8609 57.0094 43.9426C57.0459 44.0242 57.0953 44.1015 57.1597 44.1746H59.7849C59.9481 44.1746 60.0878 44.1982 60.2059 44.2498C60.3241 44.2992 60.4186 44.3658 60.4916 44.4517C60.5647 44.5376 60.6141 44.6364 60.6399 44.7481C60.6656 44.8599 60.6785 44.9844 60.6785 45.1198V45.906H55.9159V42.9329H55.1039C54.7817 42.9329 54.4895 42.9759 54.2296 43.0639C53.9675 43.152 53.7441 43.2745 53.5593 43.4291C53.3746 43.586 53.2328 43.7707 53.1318 43.9855C53.0309 44.2003 52.9814 44.4302 52.9814 44.6794C52.9814 44.9845 53.0394 45.2444 53.1555 45.4635C53.2715 45.6826 53.4261 45.8609 53.6195 46.0027C53.8128 46.1445 54.0384 46.2498 54.2962 46.3163C54.5539 46.3851 54.8246 46.4195 55.106 46.4195H65.3208C65.4884 46.5999 65.686 46.7417 65.9159 46.847C66.1458 46.9522 66.395 47.0038 66.6656 47.0038C66.9406 47.0038 67.1962 46.9522 67.4347 46.8491C67.6731 46.746 67.8772 46.6021 68.0491 46.4195H70.3155C70.483 46.5999 70.6807 46.7417 70.9105 46.847C71.1404 46.9522 71.3896 47.0038 71.6602 47.0038C71.9352 47.0038 72.1909 46.9522 72.4293 46.8491C72.6678 46.746 72.8718 46.6021 73.0437 46.4195H75.6624V41.8008ZM55.4003 45.8974H54.8912C54.6979 45.8974 54.5174 45.8695 54.3477 45.8137C54.178 45.7578 54.0298 45.6783 53.903 45.5731C53.7763 45.4678 53.6775 45.3389 53.6044 45.1885C53.5314 45.036 53.4949 44.8641 53.4949 44.6708C53.4949 44.4861 53.5335 44.3185 53.613 44.166C53.6925 44.0134 53.7978 43.8846 53.9288 43.775C54.0599 43.6654 54.2081 43.5817 54.3756 43.5237C54.5432 43.4657 54.7151 43.4377 54.8912 43.4377H55.4003V45.8974ZM67.9223 45.6697C67.8514 45.8351 67.7548 45.9769 67.6323 46.0972C67.5099 46.2175 67.3659 46.3099 67.2005 46.3765C67.0351 46.4431 66.8568 46.4753 66.6635 46.4753C66.4744 46.4753 66.3004 46.4388 66.1393 46.3701C65.9782 46.2992 65.8386 46.2025 65.7204 46.08C65.6023 45.9576 65.5099 45.8158 65.4433 45.6525C65.3767 45.4893 65.3445 45.3153 65.3445 45.1327C65.3445 44.9479 65.3788 44.7739 65.4433 44.6085C65.5099 44.4431 65.6023 44.3013 65.7183 44.1789C65.8343 44.0564 65.9718 43.9597 66.1329 43.8867C66.294 43.8137 66.4701 43.7771 66.6635 43.7771C66.8611 43.7771 67.0416 43.8115 67.207 43.8803C67.3724 43.949 67.5163 44.0435 67.6388 44.1638C67.7612 44.2841 67.8557 44.4259 67.9245 44.5913C67.9932 44.7567 68.0276 44.9372 68.0276 45.1348C68.0298 45.326 67.9932 45.5043 67.9223 45.6697ZM72.917 45.6697C72.8461 45.8351 72.7494 45.9769 72.6269 46.0972C72.5045 46.2175 72.3606 46.3099 72.1952 46.3765C72.0297 46.4431 71.8514 46.4753 71.6581 46.4753C71.4691 46.4753 71.295 46.4388 71.1339 46.3701C70.9728 46.2992 70.8332 46.2025 70.715 46.08C70.5969 45.9576 70.5045 45.8158 70.4379 45.6525C70.3713 45.4893 70.3369 45.3153 70.3369 45.1327C70.3369 44.9479 70.3713 44.7739 70.4379 44.6085C70.5045 44.4431 70.5947 44.3013 70.7107 44.1789C70.8267 44.0564 70.9642 43.9597 71.1253 43.8867C71.2865 43.8137 71.4626 43.7771 71.656 43.7771C71.8536 43.7771 72.034 43.8115 72.1995 43.8803C72.3649 43.949 72.5088 44.0435 72.6312 44.1638C72.7537 44.2841 72.8482 44.4259 72.917 44.5913C72.9857 44.7567 73.0201 44.9372 73.0201 45.1348C73.0244 45.326 72.9879 45.5043 72.917 45.6697Z" fill="white"/>
<path d="M1.31471 46.3075C1.5725 46.3762 1.84318 46.4106 2.1246 46.4106H5.4973V42.9219H4.98172V45.895H2.93447V42.9219H2.12245C1.80021 42.9219 1.5102 42.9648 1.24812 43.0529C0.986034 43.141 0.76262 43.2634 0.577873 43.4181C0.393125 43.5749 0.251345 43.7597 0.150378 43.9745C0.0494118 44.1893 0 44.4192 0 44.6684C0 44.9734 0.0580015 45.2334 0.174006 45.4525C0.29001 45.6716 0.444676 45.8499 0.638016 45.9917C0.831356 46.1356 1.05692 46.2409 1.31471 46.3075ZM0.515566 44.6705C0.515566 44.4858 0.556382 44.3182 0.635866 44.1657C0.71535 44.0132 0.82062 43.8843 0.951661 43.7747C1.0827 43.6652 1.23093 43.5814 1.3985 43.5234C1.56606 43.4654 1.73791 43.4375 1.91406 43.4375H2.42319V45.8972H1.91406C1.72072 45.8972 1.54028 45.8692 1.37057 45.8134C1.20086 45.7575 1.05263 45.678 0.925884 45.5728C0.799139 45.4675 0.700317 45.3386 0.627278 45.1883C0.55209 45.0357 0.515566 44.8639 0.515566 44.6705Z" fill="white"/>
<path d="M37.8712 47.0205H37.3428V47.549H37.8712V47.0205Z" fill="white"/>
<path d="M36.9689 47.0205H36.4404V47.549H36.9689V47.0205Z" fill="white"/>
<path d="M41.7514 47.0639C41.7836 46.9028 41.8008 46.7224 41.8008 46.5204V46.4109H48.4238V41.8008H47.9082V45.8974H45.7192L46.6193 43.7449C46.4818 43.6246 46.3357 43.5129 46.1811 43.4077C46.0264 43.3024 45.8674 43.21 45.7042 43.1305C45.5409 43.051 45.3755 42.9888 45.2079 42.9436C45.0404 42.8985 44.8749 42.877 44.7117 42.877C44.5441 42.877 44.3766 42.9007 44.209 42.9436C44.0414 42.9888 43.876 43.0489 43.7106 43.1262C43.5452 43.2036 43.3862 43.2959 43.2337 43.4034C43.0812 43.5108 42.9394 43.6225 42.8062 43.7428L43.7128 45.8953H41.7944V42.9222H41.2788V46.5204C41.2788 46.6665 41.2724 46.789 41.2573 46.8899C41.2423 46.9909 41.2165 47.0725 41.18 47.1348C41.1435 47.1971 41.0941 47.2422 41.0318 47.2702C40.9695 47.2981 40.89 47.3131 40.7912 47.3131C40.7439 47.3131 40.7031 47.311 40.6687 47.3067C40.6343 47.3024 40.5871 47.2916 40.5269 47.2745L40.3916 47.7685C40.5334 47.8072 40.673 47.8265 40.8105 47.8265C40.9952 47.8265 41.1499 47.7965 41.2767 47.7363C41.4034 47.6762 41.5044 47.5902 41.5817 47.4764C41.6655 47.3625 41.7192 47.225 41.7514 47.0639ZM43.455 43.9254C43.6526 43.7578 43.8545 43.6354 44.0629 43.5602C44.2713 43.4828 44.4883 43.4442 44.716 43.4442C44.948 43.4442 45.1778 43.4893 45.4056 43.5817C45.6333 43.674 45.8266 43.7879 45.9856 43.9254L45.1821 45.8974H44.2627L43.455 43.9254Z" fill="white"/>
<path d="M2.03236 41.8008H1.50391V42.3292H2.03236V41.8008Z" fill="white"/>
<path d="M3.69402 49.7881H2.90133L1.15052 51.6356V49.7881H0.503906V53.4594H1.15052V52.396L1.7241 51.8074L2.97866 53.4594H3.76276L2.16448 51.367L3.69402 49.7881Z" fill="white"/>
<path d="M4.9972 49.7881H4.35059V53.4594H4.9972V49.7881Z" fill="white"/>
<path d="M8.56146 52.3273L6.59154 49.7881H5.99219V53.4594H6.62806V50.8472L8.65598 53.4594H9.19733V49.7881H8.56146V52.3273Z" fill="white"/>
<path d="M11.8744 51.9705H12.8153V52.6579C12.5898 52.8255 12.274 52.935 11.9281 52.935C11.1763 52.935 10.6779 52.3786 10.6779 51.6246V51.6139C10.6779 50.9114 11.1913 50.3185 11.8701 50.3185C12.3384 50.3185 12.6156 50.471 12.8991 50.7116L13.3094 50.224C12.9313 49.9039 12.5361 49.7256 11.8959 49.7256C10.7874 49.7256 9.99902 50.5956 9.99902 51.6246V51.6354C9.99902 52.7052 10.7552 53.5236 11.9066 53.5236C12.5576 53.5236 13.0796 53.2616 13.4405 52.9522V51.4098H11.8744V51.9705Z" fill="white"/>
<path d="M15.7026 49.7881H14.332V53.4594H15.7026C16.8583 53.4594 17.6575 52.6581 17.6575 51.6227V51.6119C17.6575 50.5808 16.8583 49.7881 15.7026 49.7881ZM16.9808 51.6356C16.9808 52.3531 16.476 52.8729 15.7047 52.8729H14.9808V50.3767H15.7047C16.4781 50.3767 16.9808 50.9073 16.9808 51.6248V51.6356Z" fill="white"/>
<path d="M20.1916 49.7256C19.0616 49.7256 18.2646 50.5913 18.2646 51.6246V51.6354C18.2646 52.6687 19.053 53.5236 20.183 53.5236C21.313 53.5236 22.1121 52.6579 22.1121 51.6246V51.6139C22.1078 50.5806 21.3194 49.7256 20.1916 49.7256ZM21.4311 51.6354C21.4311 52.3486 20.922 52.9307 20.1916 52.9307C19.4612 52.9307 18.9413 52.3378 18.9413 51.6246V51.6139C18.9413 50.9007 19.4505 50.3185 20.1809 50.3185C20.9113 50.3185 21.4311 50.9114 21.4311 51.6246V51.6354Z" fill="white"/>
<path d="M24.7178 51.5238L23.5986 49.7881H22.9111V53.4594H23.547V50.8386L24.6985 52.5571H24.7178L25.88 50.8278V53.4594H26.5266V49.7881H25.837L24.7178 51.5238Z" fill="white"/>
<path d="M30.8147 49.7256C29.6847 49.7256 28.8877 50.5913 28.8877 51.6246V51.6354C28.8877 52.6687 29.6761 53.5236 30.8061 53.5236C31.936 53.5236 32.7352 52.6579 32.7352 51.6246V51.6139C32.733 50.5806 31.9446 49.7256 30.8147 49.7256ZM32.0542 51.6354C32.0542 52.3486 31.545 52.9307 30.8147 52.9307C30.0843 52.9307 29.5644 52.3378 29.5644 51.6246V51.6139C29.5644 50.9007 30.0735 50.3185 30.8039 50.3185C31.5343 50.3185 32.0542 50.9114 32.0542 51.6246V51.6354Z" fill="white"/>
<path d="M33.5361 53.4594H34.1827V51.9642H36.0367V51.3778H34.1827V50.3767H36.273V49.7881H33.5361V53.4594Z" fill="white"/>
<path d="M39.9785 51.3293C39.2739 51.1618 39.1064 51.035 39.1064 50.7536V50.7429C39.1064 50.5023 39.3276 50.3068 39.7057 50.3068C40.043 50.3068 40.3738 50.4378 40.7046 50.6849L41.0505 50.1972C40.6767 49.8986 40.2514 49.7354 39.7165 49.7354C38.9861 49.7354 38.4598 50.1714 38.4598 50.7987V50.8095C38.4598 51.4862 38.9023 51.716 39.6842 51.9051C40.3674 52.0619 40.5135 52.2037 40.5135 52.4657V52.4786C40.5135 52.7579 40.2621 52.9405 39.8625 52.9405C39.405 52.9405 39.0527 52.7665 38.7004 52.4636L38.3115 52.9255C38.7541 53.3186 39.2825 53.5119 39.8454 53.5119C40.6187 53.5119 41.1579 53.1038 41.1579 52.4163V52.4056C41.1601 51.7955 40.7562 51.5184 39.9785 51.3293Z" fill="white"/>
<path d="M43.142 49.7617L41.5244 53.4588H42.1861L42.5642 52.5716H44.3042L44.678 53.4588H45.3611L43.7435 49.7617H43.142ZM42.8005 52.0023L43.432 50.5329L44.0679 52.0023H42.8005Z" fill="white"/>
<path d="M48.238 51.9019C48.238 52.5786 47.8857 52.9245 47.3122 52.9245C46.7343 52.9245 46.382 52.5571 46.382 51.8762V49.7881H45.7354V51.9019C45.7354 52.9653 46.3454 53.5174 47.3014 53.5174C48.2638 53.5174 48.8825 52.9675 48.8825 51.8719V49.7902H48.2359V51.9019H48.238Z" fill="white"/>
<path d="M51.2046 49.7881H49.834V53.4594H51.2046C52.3603 53.4594 53.1594 52.6581 53.1594 51.6227V51.6119C53.1594 50.5808 52.3603 49.7881 51.2046 49.7881ZM52.4806 51.6356C52.4806 52.3531 51.9758 52.8729 51.2046 52.8729H50.4806V50.3767H51.2046C51.9779 50.3767 52.4806 50.9073 52.4806 51.6248V51.6356Z" fill="white"/>
<path d="M54.6232 49.7881H53.9766V53.4594H54.6232V49.7881Z" fill="white"/>
<path d="M58.4829 49.7617L56.8652 53.4588H57.5269L57.905 52.5716H59.645L60.0188 53.4588H60.702L59.0844 49.7617H58.4829ZM58.1413 52.0023L58.7729 50.5329L59.4087 52.0023H58.1413Z" fill="white"/>
<path d="M64.3188 50.9589V50.9481C64.3188 50.628 64.2093 50.3552 64.0138 50.1554C63.7775 49.9256 63.4144 49.7881 62.9526 49.7881H61.3135V53.4594H61.9601V52.1791H62.7592H62.77L63.6744 53.4594H64.437L63.4445 52.0695C63.9558 51.9234 64.3188 51.5604 64.3188 50.9589ZM61.9601 51.6076V50.3746H62.901C63.3801 50.3746 63.6636 50.5894 63.6636 50.9825V50.9932C63.6636 51.3649 63.3693 51.6076 62.9075 51.6076H61.9601Z" fill="white"/>
<path d="M66.5278 49.7617L64.9102 53.4588H65.5718L65.9499 52.5716H67.69L68.0637 53.4588H68.7469L67.1293 49.7617H66.5278ZM66.1862 52.0023L66.8178 50.5329L67.4537 52.0023H66.1862Z" fill="white"/>
<path d="M71.6875 51.5516C71.9603 51.4098 72.2138 51.1735 72.2138 50.7331V50.7224C72.2138 50.4753 72.13 50.2777 71.9667 50.1144C71.7562 49.9039 71.4254 49.79 71.0043 49.79H69.3545V53.4614H71.0559C71.8765 53.4614 72.4157 53.1112 72.4157 52.4538V52.4431C72.4179 51.9447 72.1193 51.6977 71.6875 51.5516ZM69.9904 50.3593H70.9205C71.3352 50.3593 71.5672 50.5376 71.5672 50.8255V50.8362C71.5672 51.1713 71.2879 51.3346 70.8733 51.3346H69.9904V50.3593ZM71.7712 52.3851C71.7712 52.7159 71.5027 52.8878 71.0623 52.8878H69.9904V51.8803H71.0151C71.5242 51.8803 71.7712 52.065 71.7712 52.3744V52.3851Z" fill="white"/>
<path d="M73.8654 49.7881H73.2188V53.4594H73.8654V49.7881Z" fill="white"/>
<path d="M76.6984 49.7617H76.0991L74.4814 53.4588H75.1431L75.5212 52.5716H77.2612L77.635 53.4588H78.3182L76.6984 49.7617ZM75.7575 52.0023L76.3891 50.5329L77.0249 52.0023H75.7575Z" fill="white"/>
</svg>
