<svg width="18" height="17" viewBox="0 0 18 17" fill="none" xmlns="http://www.w3.org/2000/svg">
<path d="M8.95801 3.33301C11.1 3.33301 12.9361 4.27619 14.3574 5.38574C15.7799 6.49629 16.8317 7.80798 17.4199 8.63281C17.4345 8.65319 17.4499 8.67358 17.4648 8.69434C17.6758 8.98774 17.916 9.32349 17.916 9.79199C17.9159 10.2603 17.6757 10.5954 17.4648 10.8887C17.4499 10.9095 17.4345 10.9298 17.4199 10.9502C16.8317 11.775 15.7801 13.0866 14.3574 14.1973C12.9361 15.3069 11.1001 16.25 8.95801 16.25C6.81592 16.25 4.97995 15.3069 3.55859 14.1973C2.13595 13.0866 1.08431 11.775 0.496094 10.9502C0.481537 10.9298 0.466126 10.9095 0.451172 10.8887C0.240275 10.5954 0.000111466 10.2603 0 9.79199C0 9.32349 0.240208 8.98774 0.451172 8.69434C0.466111 8.67356 0.481551 8.6532 0.496094 8.63281C1.08433 7.80799 2.13604 6.49631 3.55859 5.38574C4.97992 4.27618 6.816 3.33302 8.95801 3.33301ZM8.95801 4.58301C7.19248 4.58302 5.6209 5.36108 4.32715 6.37109C3.0349 7.37999 2.06384 8.58696 1.51367 9.3584C1.37771 9.54906 1.31304 9.64265 1.27441 9.7168C1.24987 9.76395 1.24993 9.77738 1.25 9.79004V9.79395C1.24993 9.80651 1.25007 9.81943 1.27441 9.86621C1.31303 9.9404 1.37757 10.0338 1.51367 10.2246C2.06379 10.996 3.03486 12.203 4.32715 13.2119C5.6209 14.2219 7.19248 15 8.95801 15C10.7236 15 12.2951 14.2219 13.5889 13.2119C14.8812 12.203 15.8522 10.996 16.4023 10.2246C16.5384 10.0338 16.603 9.94039 16.6416 9.86621C16.666 9.81941 16.6661 9.80651 16.666 9.79395V9.79004C16.6661 9.77738 16.6661 9.76395 16.6416 9.7168C16.603 9.64266 16.5383 9.54902 16.4023 9.3584C15.8522 8.58695 14.8811 7.37997 13.5889 6.37109C12.2951 5.36107 10.7236 4.58301 8.95801 4.58301ZM8.95801 6.66699C10.6839 6.66699 12.083 8.0661 12.083 9.79199C12.0828 11.5177 10.6838 12.917 8.95801 12.917C7.23225 12.917 5.83318 11.5177 5.83301 9.79199C5.83301 8.06612 7.23214 6.66702 8.95801 6.66699ZM8.95801 7.91699C7.9225 7.91702 7.08301 8.75648 7.08301 9.79199C7.08318 10.8274 7.92261 11.667 8.95801 11.667C9.99343 11.667 10.8328 10.8274 10.833 9.79199C10.833 8.75646 9.99354 7.91699 8.95801 7.91699ZM8.95801 0C11.4411 0 13.6505 1.11986 15.2061 2.19434C15.9896 2.73559 16.6233 3.2757 17.0615 3.68164C17.2809 3.88489 17.4517 4.05598 17.5693 4.17676C17.628 4.23693 17.6737 4.28467 17.7051 4.31836C17.7208 4.33522 17.7336 4.34897 17.7422 4.3584L17.752 4.36914L17.7549 4.37305L17.7559 4.37402C17.7532 4.37683 17.7183 4.40941 17.291 4.79199L17.7568 4.375C17.987 4.63214 17.9651 5.02659 17.708 5.25684C17.451 5.48697 17.0565 5.46575 16.8262 5.20898L16.8252 5.20801L16.8193 5.20117C16.8135 5.19483 16.8037 5.18456 16.791 5.1709C16.7656 5.14361 16.7267 5.10213 16.6748 5.04883C16.5705 4.9418 16.414 4.78682 16.2119 4.59961C15.8068 4.22436 15.2194 3.72297 14.4951 3.22266C13.0346 2.21384 11.0772 1.25 8.95801 1.25C6.83878 1.25002 4.88141 2.21383 3.4209 3.22266C2.69658 3.72297 2.1092 4.22436 1.7041 4.59961C1.50204 4.7868 1.34548 4.94181 1.24121 5.04883C1.18927 5.10214 1.15043 5.14362 1.125 5.1709C1.11227 5.18456 1.10247 5.19483 1.09668 5.20117L1.09082 5.20801V5.20898C0.860508 5.46577 0.465029 5.48698 0.208008 5.25684C-0.0490082 5.02659 -0.0709466 4.63212 0.15918 4.375L0.161133 4.37305L0.164062 4.36914L0.173828 4.3584C0.182437 4.34897 0.195221 4.33522 0.210937 4.31836C0.242356 4.28466 0.288022 4.23696 0.34668 4.17676C0.46436 4.05598 0.635046 3.88492 0.854492 3.68164C1.29271 3.27571 1.92642 2.73559 2.70996 2.19434C4.26549 1.11986 6.47495 1.52101e-05 8.95801 0Z" fill="white"/>
</svg>
