<svg width="20" height="22" viewBox="0 0 20 22" fill="none" xmlns="http://www.w3.org/2000/svg">
<path d="M12.5508 0.0458984C13.4132 -0.0313489 14.7616 -0.151122 15.665 0.989258C16.3363 1.83684 16.5056 3.021 16.5 4.05566C16.496 4.78682 16.4017 5.5191 16.2793 6.15137C16.2803 6.15156 16.2812 6.15215 16.2822 6.15234C17.1798 6.32447 17.9317 6.61125 18.4932 7.2168C19.0489 7.8162 19.2836 8.5642 19.3936 9.44727C19.5002 10.3037 19.5 11.3941 19.5 12.7529V14.8779C19.5 16.2713 19.5001 17.4 19.3691 18.2891C19.2319 19.22 18.938 19.9953 18.2725 20.6035C17.6143 21.2049 16.8473 21.433 15.9443 21.4863C15.092 21.5367 14.0375 21.4335 12.749 21.3076L12.6875 21.3018C10.0731 21.0463 7.14239 20.599 4.34375 19.8428C4.28482 19.8269 4.22662 19.8105 4.16895 19.7949C2.64015 19.383 1.54959 19.0891 0.773438 18.0703C0.360815 17.5287 0.172561 16.9391 0.0839844 16.2529C0.000341879 15.6047 -2.28812e-05 14.8158 0 13.8594V4.75C0 4.73732 0.00131657 4.72451 0.00195312 4.71191H0C6.166e-05 3.50672 0.732522 2.36779 1.92285 2.00195C3.9195 1.38831 7.46377 0.493653 12.4658 0.0537109C12.4934 0.0512891 12.5221 0.0484641 12.5508 0.0458984ZM1.5 13.8115C1.5 14.8276 1.50145 15.5192 1.57129 16.0605C1.63763 16.5747 1.75894 16.8905 1.96582 17.1621C2.39948 17.7313 2.95635 17.9138 4.73535 18.3945C7.43023 19.1227 10.2743 19.5595 12.834 19.8096C14.1985 19.9429 15.1349 20.0318 15.8555 19.9893C16.5391 19.9489 16.9352 19.7936 17.2607 19.4961C17.5789 19.2053 17.776 18.8081 17.8848 18.0703C17.9978 17.3032 18 16.2855 18 14.8184V12.8047C18 11.3826 17.999 10.3857 17.9053 9.63281C17.8135 8.89597 17.6438 8.50728 17.3926 8.23633C17.147 7.97164 16.7645 7.7726 16 7.62598C15.2238 7.47712 14.182 7.40333 12.7021 7.30078C7.95158 6.9716 3.904 6.3148 1.5 5.72656V13.8115ZM14.25 11.5C15.4926 11.5 16.5 12.5074 16.5 13.75C16.4999 14.9925 15.4926 16 14.25 16C13.0074 16 12.0001 14.9925 12 13.75C12 12.5074 13.0074 11.5 14.25 11.5ZM14.25 13C13.8358 13 13.5 13.3358 13.5 13.75C13.5001 14.1641 13.8359 14.5 14.25 14.5C14.6641 14.5 14.9999 14.1641 15 13.75C15 13.3358 14.6642 13 14.25 13ZM14.4893 1.91992C14.1321 1.46927 13.6219 1.45778 12.5977 1.54785C7.71229 1.97751 4.2715 2.84907 2.36328 3.43555C2.01752 3.54181 1.72913 3.82401 1.58984 4.20117C3.82485 4.77452 7.91045 5.46548 12.8057 5.80469L12.8564 5.80762C13.5725 5.85723 14.2158 5.90147 14.79 5.95508C14.9062 5.37968 14.9964 4.70497 15 4.04688C15.0051 3.11047 14.836 2.35755 14.4893 1.91992Z" fill="white"/>
</svg>
