<svg width="20" height="20" viewBox="0 0 20 20" fill="none" xmlns="http://www.w3.org/2000/svg">
<path d="M7.56543 2.02393C8.94413 0.71461 11.0568 0.71461 12.4355 2.02393C13.5022 3.0369 14.8094 4.4331 15.8535 6.03467C16.8929 7.62902 17.7089 9.48284 17.709 11.3979C17.709 15.1211 14.7855 18.9585 10 18.9585C5.21473 18.9583 2.29199 15.1211 2.29199 11.3979C2.29206 9.48278 3.10805 7.62905 4.14746 6.03467C5.19161 4.43302 6.49876 3.03691 7.56543 2.02393ZM11.5752 2.93018C10.6789 2.079 9.32207 2.079 8.42578 2.93018C7.39804 3.90621 6.16574 5.22723 5.19434 6.71729C4.21829 8.2145 3.54207 9.82654 3.54199 11.3979C3.54199 14.512 5.98362 17.7083 10 17.7085C14.0166 17.7085 16.459 14.512 16.459 11.3979C16.4589 9.82659 15.7826 8.21445 14.8066 6.71729C13.8353 5.22731 12.6029 3.9062 11.5752 2.93018ZM13.334 11.0415C13.679 11.0417 13.959 11.3214 13.959 11.6665C13.959 13.8526 12.1861 15.6245 10 15.6245C9.65497 15.6243 9.375 15.3446 9.375 14.9995C9.37517 14.6546 9.65508 14.3747 10 14.3745C11.4958 14.3745 12.709 13.1623 12.709 11.6665C12.709 11.3213 12.9888 11.0415 13.334 11.0415Z" fill="#161616"/>
</svg>
