<svg width="20" height="20" viewBox="0 0 20 20" fill="none" xmlns="http://www.w3.org/2000/svg">
<path d="M10.0098 14.5835C10.4699 14.5835 10.8436 14.9564 10.8438 15.4165C10.8438 15.8767 10.47 16.2505 10.0098 16.2505H10C9.53981 16.2504 9.16699 15.8767 9.16699 15.4165C9.16717 14.9565 9.53992 14.5836 10 14.5835H10.0098ZM6.43359 12.4751C8.34435 10.5645 11.6567 10.5644 13.5674 12.4751C13.8112 12.7192 13.8113 13.1149 13.5674 13.3589C13.3234 13.6029 12.9277 13.6027 12.6836 13.3589C11.261 11.9363 8.73999 11.9364 7.31738 13.3589C7.07339 13.6029 6.67769 13.6027 6.43359 13.3589C6.18952 13.1148 6.18952 12.7192 6.43359 12.4751ZM4.18359 9.93701C7.74149 6.9721 12.4481 6.95573 15.8311 9.94873C16.0895 10.1774 16.1133 10.5721 15.8848 10.8306C15.6561 11.089 15.2615 11.1137 15.0029 10.8853C12.1065 8.3227 8.09217 8.30633 4.9834 10.897C4.71825 11.1178 4.32447 11.082 4.10352 10.8169C3.88254 10.5517 3.91843 10.158 4.18359 9.93701ZM10 3.9585C13.0219 3.95848 16.0115 5.13815 18.7363 7.43896C19.0001 7.66166 19.0332 8.0561 18.8105 8.31982C18.5879 8.58338 18.1943 8.61657 17.9307 8.39404C15.3924 6.2507 12.6797 5.20848 10 5.2085C7.32046 5.20854 4.60841 6.25087 2.07031 8.39404C1.80659 8.61674 1.41215 8.58355 1.18945 8.31982C0.9668 8.0561 0.999963 7.66165 1.26367 7.43896C3.9885 5.13809 6.97806 3.95854 10 3.9585Z" fill="#161616"/>
</svg>
