<svg width="18" height="18" viewBox="0 0 18 18" fill="none" xmlns="http://www.w3.org/2000/svg">
<path d="M8.58984 0C10.4153 -1.1324e-05 11.8493 -0.000117967 12.9688 0.150391C14.1159 0.304633 15.0261 0.627623 15.7412 1.34277C16.4564 2.05793 16.7794 2.96805 16.9336 4.11523C17.0841 5.23471 17.084 6.66865 17.084 8.49414V8.58984C17.084 10.4153 17.0841 11.8493 16.9336 12.9688C16.7794 14.1159 16.4564 15.0261 15.7412 15.7412C15.0261 16.4564 14.1159 16.7794 12.9688 16.9336C11.8493 17.0841 10.4153 17.084 8.58984 17.084H8.49414C6.66864 17.084 5.23471 17.0841 4.11523 16.9336C2.96804 16.7794 2.05793 16.4564 1.34277 15.7412C0.627621 15.0261 0.304633 14.1159 0.150391 12.9688C-0.000118228 11.8493 -1.1324e-05 10.4153 0 8.58984V8.49414C-1.13241e-05 6.66865 -0.000118697 5.23471 0.150391 4.11523C0.304632 2.96804 0.627618 2.05793 1.34277 1.34277C2.05793 0.627619 2.96804 0.304631 4.11523 0.150391C5.23471 -0.000118958 6.66864 -1.13241e-05 8.49414 0H8.58984ZM8.54199 1.25C6.65855 1.25 5.30877 1.25167 4.28223 1.38965C3.27363 1.52525 2.67077 1.78236 2.22656 2.22656C1.78236 2.67077 1.52525 3.27362 1.38965 4.28223C1.25167 5.30877 1.25 6.65855 1.25 8.54199C1.25 10.4254 1.25167 11.7752 1.38965 12.8018C1.52525 13.8104 1.78236 14.4132 2.22656 14.8574C2.67077 15.3016 3.27363 15.5587 4.28223 15.6943C5.30877 15.8323 6.65855 15.834 8.54199 15.834C10.4254 15.834 11.7752 15.8323 12.8018 15.6943C13.8104 15.5587 14.4132 15.3016 14.8574 14.8574C15.3016 14.4132 15.5587 13.8104 15.6943 12.8018C15.8323 11.7752 15.834 10.4254 15.834 8.54199C15.834 6.65855 15.8323 5.30877 15.6943 4.28223C15.5587 3.27363 15.3016 2.67077 14.8574 2.22656C14.4132 1.78236 13.8104 1.52525 12.8018 1.38965C11.7752 1.25167 10.4254 1.25 8.54199 1.25ZM6.69043 3.75C6.89101 3.7501 7.07982 3.84715 7.19727 4.00977L9.29102 6.90918L12.2666 3.93359C12.5107 3.68952 12.9063 3.68952 13.1504 3.93359C13.3945 4.17767 13.3945 4.57331 13.1504 4.81738L10.0322 7.93555L13.2148 12.3428C13.3523 12.533 13.3715 12.7842 13.2646 12.9932C13.1578 13.2019 12.9435 13.3339 12.709 13.334H10.3936C10.193 13.3339 10.0042 13.2368 9.88672 13.0742L7.79297 10.1748L4.81738 13.1504C4.57331 13.3945 4.17767 13.3945 3.93359 13.1504C3.68952 12.9063 3.68952 12.5107 3.93359 12.2666L7.05176 9.14844L3.86816 4.74121C3.73096 4.55104 3.71168 4.29966 3.81836 4.09082C3.92516 3.88194 4.14041 3.75012 4.375 3.75H6.69043ZM10.7139 12.084H11.4863L6.37012 5H5.59766L10.7139 12.084Z" fill="white"/>
</svg>
